<svg width="76" height="40" viewBox="0 0 76 40" fill="none" xmlns="http://www.w3.org/2000/svg">
<path d="M7.90838 29.4034L6.36861 29.6761C6.30421 29.4792 6.20194 29.2917 6.06179 29.1136C5.92543 28.9356 5.73982 28.7898 5.50497 28.6761C5.27012 28.5625 4.97656 28.5057 4.62429 28.5057C4.14323 28.5057 3.74171 28.6136 3.41974 28.8295C3.09777 29.0417 2.93679 29.3163 2.93679 29.6534C2.93679 29.9451 3.04474 30.1799 3.26065 30.358C3.47656 30.536 3.82505 30.6818 4.30611 30.7955L5.69247 31.1136C6.4955 31.2992 7.09399 31.5852 7.48793 31.9716C7.88187 32.358 8.07884 32.8598 8.07884 33.4773C8.07884 34 7.92732 34.4659 7.62429 34.875C7.32505 35.2803 6.90649 35.5985 6.36861 35.8295C5.83452 36.0606 5.2152 36.1761 4.51065 36.1761C3.53338 36.1761 2.73603 35.9678 2.11861 35.5511C1.50118 35.1307 1.1224 34.5341 0.982244 33.7614L2.62429 33.5114C2.72656 33.9394 2.93679 34.2633 3.25497 34.483C3.57315 34.6989 3.98793 34.8068 4.49929 34.8068C5.05611 34.8068 5.50118 34.6913 5.83452 34.4602C6.16785 34.2254 6.33452 33.9394 6.33452 33.6023C6.33452 33.3295 6.23224 33.1004 6.0277 32.9148C5.82694 32.7292 5.51823 32.589 5.10156 32.4943L3.62429 32.1705C2.8099 31.9848 2.20762 31.6894 1.81747 31.2841C1.43111 30.8788 1.23793 30.3655 1.23793 29.7443C1.23793 29.2292 1.38187 28.7784 1.66974 28.392C1.95762 28.0057 2.35535 27.7045 2.86293 27.4886C3.3705 27.2689 3.95194 27.1591 4.60724 27.1591C5.55043 27.1591 6.29285 27.3636 6.83452 27.7727C7.37618 28.178 7.73414 28.7216 7.90838 29.4034ZM11.6456 30.8182V36H9.94673V24.3636H11.6229V28.6932H11.7308C11.9354 28.2235 12.2479 27.8504 12.6683 27.5739C13.0888 27.2973 13.638 27.1591 14.3161 27.1591C14.9145 27.1591 15.4373 27.2822 15.8842 27.5284C16.335 27.7746 16.6835 28.142 16.9297 28.6307C17.1797 29.1155 17.3047 29.7216 17.3047 30.4489V36H15.6058V30.6534C15.6058 30.0133 15.4411 29.517 15.1115 29.1648C14.782 28.8087 14.3236 28.6307 13.7365 28.6307C13.335 28.6307 12.9751 28.7159 12.657 28.8864C12.3426 29.0568 12.0945 29.3068 11.9126 29.6364C11.7346 29.9621 11.6456 30.3561 11.6456 30.8182ZM23.2479 36.1761C22.4297 36.1761 21.7157 35.9886 21.1058 35.6136C20.496 35.2386 20.0225 34.714 19.6854 34.0398C19.3482 33.3655 19.1797 32.5777 19.1797 31.6761C19.1797 30.7708 19.3482 29.9792 19.6854 29.3011C20.0225 28.6231 20.496 28.0966 21.1058 27.7216C21.7157 27.3466 22.4297 27.1591 23.2479 27.1591C24.0661 27.1591 24.7801 27.3466 25.3899 27.7216C25.9998 28.0966 26.4732 28.6231 26.8104 29.3011C27.1475 29.9792 27.3161 30.7708 27.3161 31.6761C27.3161 32.5777 27.1475 33.3655 26.8104 34.0398C26.4732 34.714 25.9998 35.2386 25.3899 35.6136C24.7801 35.9886 24.0661 36.1761 23.2479 36.1761ZM23.2536 34.75C23.7839 34.75 24.2232 34.6098 24.5717 34.3295C24.9202 34.0492 25.1778 33.6761 25.3445 33.2102C25.5149 32.7443 25.6001 32.2311 25.6001 31.6705C25.6001 31.1136 25.5149 30.6023 25.3445 30.1364C25.1778 29.6667 24.9202 29.2898 24.5717 29.0057C24.2232 28.7216 23.7839 28.5795 23.2536 28.5795C22.7195 28.5795 22.2763 28.7216 21.924 29.0057C21.5755 29.2898 21.3161 29.6667 21.1456 30.1364C20.9789 30.6023 20.8956 31.1136 20.8956 31.6705C20.8956 32.2311 20.9789 32.7443 21.1456 33.2102C21.3161 33.6761 21.5755 34.0492 21.924 34.3295C22.2763 34.6098 22.7195 34.75 23.2536 34.75ZM30.8388 36L28.2706 27.2727H30.0263L31.7365 33.6818H31.8217L33.5376 27.2727H35.2933L36.9979 33.6534H37.0831L38.782 27.2727H40.5376L37.9751 36H36.2422L34.4695 29.6989H34.3388L32.5661 36H30.8388ZM48.0831 24.3636V36H46.3842V24.3636H48.0831ZM54.13 36.1761C53.2701 36.1761 52.5296 35.9924 51.9084 35.625C51.291 35.2538 50.8137 34.733 50.4766 34.0625C50.1432 33.3883 49.9766 32.5985 49.9766 31.6932C49.9766 30.7992 50.1432 30.0114 50.4766 29.3295C50.8137 28.6477 51.2834 28.1155 51.8857 27.733C52.4917 27.3504 53.2 27.1591 54.0107 27.1591C54.5031 27.1591 54.9804 27.2405 55.4425 27.4034C55.9046 27.5663 56.3194 27.822 56.6868 28.1705C57.0542 28.5189 57.344 28.9716 57.5561 29.5284C57.7682 30.0814 57.8743 30.7538 57.8743 31.5455V32.1477H50.9368V30.875H56.2095C56.2095 30.428 56.1186 30.0322 55.9368 29.6875C55.755 29.339 55.4993 29.0644 55.1697 28.8636C54.844 28.6629 54.4614 28.5625 54.022 28.5625C53.5447 28.5625 53.1281 28.6799 52.772 28.9148C52.4197 29.1458 52.147 29.4489 51.9538 29.8239C51.7644 30.1951 51.6697 30.5985 51.6697 31.0341V32.0284C51.6697 32.6117 51.772 33.108 51.9766 33.517C52.1849 33.9261 52.4747 34.2386 52.8459 34.4545C53.2171 34.6667 53.6508 34.7727 54.147 34.7727C54.469 34.7727 54.7625 34.7273 55.0277 34.6364C55.2929 34.5417 55.522 34.4015 55.7152 34.2159C55.9084 34.0303 56.0561 33.8011 56.1584 33.5284L57.7663 33.8182C57.6375 34.2917 57.4065 34.7064 57.0732 35.0625C56.7436 35.4148 56.3288 35.6894 55.8288 35.8864C55.3326 36.0795 54.7663 36.1761 54.13 36.1761ZM66.299 29.4034L64.7592 29.6761C64.6948 29.4792 64.5926 29.2917 64.4524 29.1136C64.3161 28.9356 64.1304 28.7898 63.8956 28.6761C63.6607 28.5625 63.3672 28.5057 63.0149 28.5057C62.5339 28.5057 62.1323 28.6136 61.8104 28.8295C61.4884 29.0417 61.3274 29.3163 61.3274 29.6534C61.3274 29.9451 61.4354 30.1799 61.6513 30.358C61.8672 30.536 62.2157 30.6818 62.6967 30.7955L64.0831 31.1136C64.8861 31.2992 65.4846 31.5852 65.8786 31.9716C66.2725 32.358 66.4695 32.8598 66.4695 33.4773C66.4695 34 66.3179 34.4659 66.0149 34.875C65.7157 35.2803 65.2971 35.5985 64.7592 35.8295C64.2251 36.0606 63.6058 36.1761 62.9013 36.1761C61.924 36.1761 61.1267 35.9678 60.5092 35.5511C59.8918 35.1307 59.513 34.5341 59.3729 33.7614L61.0149 33.5114C61.1172 33.9394 61.3274 34.2633 61.6456 34.483C61.9638 34.6989 62.3786 34.8068 62.8899 34.8068C63.4467 34.8068 63.8918 34.6913 64.2251 34.4602C64.5585 34.2254 64.7251 33.9394 64.7251 33.6023C64.7251 33.3295 64.6229 33.1004 64.4183 32.9148C64.2176 32.7292 63.9089 32.589 63.4922 32.4943L62.0149 32.1705C61.2005 31.9848 60.5982 31.6894 60.2081 31.2841C59.8217 30.8788 59.6286 30.3655 59.6286 29.7443C59.6286 29.2292 59.7725 28.7784 60.0604 28.392C60.3482 28.0057 60.746 27.7045 61.2536 27.4886C61.7611 27.2689 62.3426 27.1591 62.9979 27.1591C63.9411 27.1591 64.6835 27.3636 65.2251 27.7727C65.7668 28.178 66.1248 28.7216 66.299 29.4034ZM74.8771 29.4034L73.3374 29.6761C73.273 29.4792 73.1707 29.2917 73.0305 29.1136C72.8942 28.9356 72.7086 28.7898 72.4737 28.6761C72.2389 28.5625 71.9453 28.5057 71.593 28.5057C71.112 28.5057 70.7105 28.6136 70.3885 28.8295C70.0665 29.0417 69.9055 29.3163 69.9055 29.6534C69.9055 29.9451 70.0135 30.1799 70.2294 30.358C70.4453 30.536 70.7938 30.6818 71.2749 30.7955L72.6612 31.1136C73.4643 31.2992 74.0627 31.5852 74.4567 31.9716C74.8506 32.358 75.0476 32.8598 75.0476 33.4773C75.0476 34 74.8961 34.4659 74.593 34.875C74.2938 35.2803 73.8752 35.5985 73.3374 35.8295C72.8033 36.0606 72.1839 36.1761 71.4794 36.1761C70.5021 36.1761 69.7048 35.9678 69.0874 35.5511C68.4699 35.1307 68.0911 34.5341 67.951 33.7614L69.593 33.5114C69.6953 33.9394 69.9055 34.2633 70.2237 34.483C70.5419 34.6989 70.9567 34.8068 71.468 34.8068C72.0249 34.8068 72.4699 34.6913 72.8033 34.4602C73.1366 34.2254 73.3033 33.9394 73.3033 33.6023C73.3033 33.3295 73.201 33.1004 72.9964 32.9148C72.7957 32.7292 72.487 32.589 72.0703 32.4943L70.593 32.1705C69.7786 31.9848 69.1764 31.6894 68.7862 31.2841C68.3999 30.8788 68.2067 30.3655 68.2067 29.7443C68.2067 29.2292 68.3506 28.7784 68.6385 28.392C68.9264 28.0057 69.3241 27.7045 69.8317 27.4886C70.3393 27.2689 70.9207 27.1591 71.576 27.1591C72.5192 27.1591 73.2616 27.3636 73.8033 27.7727C74.3449 28.178 74.7029 28.7216 74.8771 29.4034Z" fill="#2C3E50"/>
<path d="M46 16L39 9L32 16" stroke="#2C3E50" stroke-width="2.5" stroke-linecap="round" stroke-linejoin="round"/>
<path d="M46 9L39 2L32 9" stroke="#2C3E50" stroke-width="2.5" stroke-linecap="round" stroke-linejoin="round"/>
</svg>
