<svg width="1165" height="537" viewBox="0 0 1165 537" fill="none" xmlns="http://www.w3.org/2000/svg">
<path fill-rule="evenodd" clip-rule="evenodd" d="M665.266 10.0398L675.894 11.2207H697.256C697.183 10.8491 697.134 10.4699 697.112 10.0858C685.9 10.0077 673.317 9.96226 665.266 10.0398ZM707.998 10.2857C708.099 10.2502 708.206 10.2142 708.319 10.1778C709.724 10.1911 711.047 10.2044 712.27 10.2173C712.599 10.261 712.958 10.3131 713.339 10.3732C711.795 10.6286 710.268 10.85 708.877 11.0302C708.567 10.7906 708.269 10.5399 707.998 10.2857ZM693.117 21.2207H680.16C680.134 21.4643 680.105 21.7092 680.072 21.9513C679.931 22.9945 679.662 24.5318 678.968 25.9259C678.734 26.3948 678.395 26.9453 677.936 27.4793C678.405 27.6101 678.866 27.7506 679.318 27.9007L693.117 27.0271V21.2207ZM703.117 26.3053C737.433 24.3596 768.778 37.504 797.616 53.4207C799.893 50.5894 802.789 49.0336 804.598 48.4569L805.818 48.068L807.074 48.3132C807.443 48.3851 807.81 48.4413 808.177 48.4826C812.425 48.9613 817.004 47.4577 821.94 44.1706C826.866 40.8898 831.693 36.1318 836.242 30.9293C839.41 27.3066 842.359 23.5684 845.058 20.0964C845.455 19.5859 845.849 19.0783 846.239 18.5759C848.45 15.725 850.53 13.0436 852.33 10.956L853.834 9.2111L1096.04 10.2203C1098.96 10.1308 1103.41 10.8296 1106.84 13.8542C1110.78 17.3169 1112.21 22.728 1110.46 29.4754C1108.67 36.3759 1106.4 43.5942 1103.6 50.0152C1100.84 56.3454 1097.38 62.3357 1093.02 66.3846C1092.62 66.7519 1092.17 67.1769 1091.66 67.6523C1087.72 71.326 1080.57 78.0061 1072.91 84.2704C1070.92 85.8995 1068.87 87.5161 1066.82 89.0562C1075.7 88.8213 1084.89 88.7632 1093.42 89.0132C1101.23 89.2419 1108.6 89.7311 1114.74 90.6033C1120.04 91.3548 1125.06 92.4672 1128.62 94.3265C1132.64 94.8799 1136.84 97.547 1140.53 101.014C1144.92 105.145 1149.44 111.189 1153.35 119.139C1161.19 135.081 1166.67 158.905 1163.59 191.195C1161.14 216.955 1154.89 234.494 1147.75 246.004C1140.71 257.372 1132.56 263.215 1126.18 264.606L1125.95 264.657L1125.71 264.685C1110.96 266.443 1088.21 268.605 1067.91 269.372C1057.76 269.756 1048.11 269.796 1040.31 269.242C1036.42 268.965 1032.87 268.531 1029.89 267.879C1027.96 267.454 1025.97 266.876 1024.22 266.008L985.551 274.041L787.453 308.236L786.932 308.217C766.289 307.453 702.112 310.663 669.594 312.537C657.925 337.323 640.851 351.492 627.943 355.042L627.886 355.057L627.829 355.072C617.573 357.636 600.672 360.764 583.034 361.886C565.621 362.993 546.704 362.204 532.797 356.38C523.564 353.036 518.103 349.939 514.843 347.463C513.77 346.648 512.923 345.891 512.253 345.203C511.427 345.203 510.619 345.176 509.837 345.127C508.71 346.655 507.203 347.778 505.793 348.558C503.055 350.073 499.641 350.946 496.407 351.484C490.897 352.403 484.692 352.539 480.161 352.404C479.733 352.805 479.278 353.193 478.794 353.568C475.197 356.354 470.435 358.023 464.76 359.216C459.189 360.387 452.236 361.194 443.745 361.93C441.856 362.616 439.889 363.047 437.962 363.303C429.024 364.488 418.437 362.236 411.554 359.97L411.457 359.938L411.361 359.903C386.048 350.41 341.524 343.324 292.578 338.636C243.804 333.964 191.213 331.721 150.117 331.721C138.397 331.721 130.546 331.241 125.094 329.806C122.273 329.064 119.887 328.018 117.867 326.502C116.648 325.588 115.654 324.572 114.813 323.495C107.006 322.713 100.253 321.075 93.9098 319.244C91.3414 318.502 88.9142 317.754 86.5322 317.02C82.2657 315.705 78.1442 314.435 73.6166 313.328C60.2041 310.048 44.2988 308.541 18.4455 314.919C17.0708 315.632 15.4196 316.256 13.636 316.55C11.5537 316.893 8.96756 316.832 6.49043 315.547C1.14743 312.777 -0.5014 306.354 0.132308 298.327C0.652028 291.744 2.71862 282.914 5.61682 273.742V268.721H7.27445C10.2438 260.091 13.916 251.203 17.861 243.462C22.2337 234.882 27.2758 227.031 32.4751 222.831C39.2278 217.377 54.3311 207.238 68.2572 198.432C75.2599 194.005 82.0576 189.856 87.4747 186.739C90.1778 185.183 92.5829 183.858 94.5199 182.878C95.4859 182.389 96.3841 181.961 97.1732 181.627C97.8705 181.331 98.8019 180.969 99.7224 180.802L107.189 179.444L105.49 186.84C102.681 199.067 98.7659 218.625 96.401 237.009C95.2176 246.207 94.4365 255.006 94.3572 262.396C94.3104 266.746 94.5142 270.364 94.9286 273.196C97.6979 271.462 101.334 268.683 105.926 265.173C106.779 264.521 107.666 263.843 108.587 263.142C101.504 243.184 100.186 209.658 110.19 179.923C115.554 163.98 124.27 148.82 137.417 137.357C150.625 125.84 168.057 118.277 190.382 117.227L190.44 117.224L190.498 117.222L190.617 122.221C190.498 117.222 190.499 117.222 190.499 117.222L190.502 117.222L190.537 117.222L190.636 117.219C190.721 117.218 190.846 117.215 191.007 117.213C191.328 117.207 191.796 117.201 192.389 117.196C193.577 117.186 195.271 117.182 197.319 117.206C201.406 117.253 206.937 117.412 212.659 117.861C213.501 117.927 214.352 118 215.207 118.08C206.325 115.079 196.001 113.868 187.833 113.723C186.774 113.722 185.702 113.721 184.617 113.721L184.533 103.722C185.602 103.704 186.725 103.703 187.893 103.723C216.576 103.762 237.288 104.379 251.348 108.897C258.852 111.308 264.852 114.935 269.212 120.458C273.175 125.478 275.471 131.672 276.643 139.019C283.006 144.199 293.485 155.065 297.969 169.721H312.187C322.771 164.135 335.516 158.104 346.187 153.053C346.743 152.79 347.294 152.53 347.838 152.272C349.033 145.507 349.682 134.06 349.119 114.363C349.004 110.357 351.876 107.057 355.482 106.431C357.454 106.089 359.639 106.566 361.372 108.112C363.024 109.585 363.792 111.594 364.067 113.513C364.629 117.451 364.824 121.408 364.95 125.059C364.979 125.907 365.004 126.732 365.029 127.536C365.114 130.285 365.191 132.79 365.386 135.142C365.77 139.763 366.542 142.393 367.625 143.899C389.685 136.085 438.151 122.369 477.839 122.696L475.141 117.721H457.467L455.979 115.528C454.283 113.028 451.885 108.927 451.149 104.551C450.768 102.292 450.779 99.6596 451.843 97.0797C452.944 94.4101 454.978 92.275 457.788 90.796L458.881 90.2206H495.117V106.609C501.332 100.487 507.876 94.1416 513.987 88.383C521.814 81.0082 529.17 74.3668 534.233 70.4642C534.037 66.6288 535.275 63.3957 537.764 61.0684C540.567 58.4482 544.176 57.7331 546.553 57.7207C570.867 57.1775 609.138 58.0495 648.36 62.2328C647.744 60.9325 647.164 59.5893 646.641 58.2207H631.261L630.91 58.1704C627.33 57.659 624.047 54.9623 623.484 51.1751C623.172 49.0829 623.778 46.8118 625.521 45.1089C627.14 43.5276 629.253 42.9003 631.202 42.7379C635.337 42.3933 640.337 42.2783 644.23 42.2399C644.643 39.4639 645.635 36.7194 647.494 34.2675C650.598 30.1763 655.506 27.7023 661.897 26.7726C663.476 26.543 665 26.3939 666.473 26.3207C666.56 25.3517 666.807 24.1269 667.482 22.9571C668.043 21.9843 668.835 21.1723 669.799 20.605L649.694 18.3711L648.536 15.7248C647.727 13.8764 646.813 10.6068 647.703 7.31586C648.188 5.52094 649.226 3.70448 651.057 2.33673C652.844 1.00198 655.01 0.373838 657.305 0.230432C663.318 -0.145367 691.003 0.0162709 707.663 0.171228C709.468 0.18801 711.15 0.204805 712.67 0.220978L712.955 0.224005L713.237 0.259302C715.432 0.533611 718.827 1.12886 722.015 2.05769C723.606 2.52112 725.281 3.10625 726.776 3.84167C728.146 4.51517 729.957 5.594 731.185 7.31449C731.775 8.14035 732.272 9.26204 732.306 10.6145C732.34 11.9615 731.904 13.0877 731.386 13.9104C730.473 15.3629 729.113 16.1927 728.325 16.6194C726.574 17.5672 724.24 18.2719 722.073 18.8106C717.565 19.9308 711.95 20.7605 708.181 21.1887L707.9 21.2207H703.117V26.3053ZM631.776 52.7403C631.776 52.7403 631.783 52.7379 631.798 52.7346C631.784 52.7389 631.776 52.7403 631.776 52.7403ZM563.821 67.5844C557.575 67.5537 551.835 67.6047 546.729 67.7193L546.673 67.7205H546.617C546.315 67.7205 545.882 67.7733 545.452 67.9129C545.027 68.0512 544.751 68.2263 544.594 68.3727C544.476 68.4829 544.36 68.6303 544.283 68.9503C544.197 69.3119 544.116 70.1015 544.468 71.5079L545.315 74.8966L542.424 76.8579C540.255 78.3298 537.013 80.9916 533.057 84.4745C538.161 80.7524 543.346 77.3347 548.46 74.4615C553.582 71.5834 558.765 69.1758 563.821 67.5844ZM480.972 133.517L479.52 132.095L479.508 132.72C448.612 132.114 411.143 140.854 386.316 148.332L387.608 153.493C384.981 154.314 382.501 154.956 380.169 155.398C369.576 158.689 357.04 164.789 349.645 169.232C349.467 169.344 349.29 169.451 349.112 169.553L345.958 164.227C335.965 168.966 324.944 174.254 315.781 179.134C310.296 182.055 304.808 185.045 299.332 188.09C291.392 192.506 283.48 197.038 275.651 201.642C266.547 206.996 257.555 212.447 248.761 217.926C233.024 227.73 217.923 237.621 203.944 247.206C190.702 256.285 166.962 273.506 156.136 281.707C145.392 289.845 142.268 292.903 137.184 297.881C135.841 299.195 134.362 300.644 132.569 302.355C127.167 307.512 123.615 311.546 121.825 314.332C133.341 315.873 146.485 314.383 164.797 304.792L164.939 304.717L165.086 304.652C170.399 302.29 181.381 296.112 195.471 287.853C207.087 281.044 220.603 272.948 234.405 264.682C237.216 262.998 240.04 261.307 242.862 259.618C259.514 249.652 276.1 239.769 289.717 231.968C300.479 225.804 309.743 220.727 315.723 218.027C315.742 216.676 315.936 215.231 316.414 213.806C316.99 212.087 318.016 210.307 319.722 208.872C321.442 207.426 323.579 206.562 325.997 206.26C330.248 205.728 334.633 205.713 338.022 205.857C344.883 202.324 354.826 197.321 363.794 193.055C368.542 190.796 373.064 188.722 376.729 187.178C377.504 186.852 378.25 186.545 378.96 186.263C378.854 185.953 378.763 185.634 378.689 185.306C378.019 182.331 378.956 179.36 381.407 177.159C383.514 175.266 386.537 174.104 390.048 173.336C393.449 172.592 395.999 172.187 397.945 172.14C399.898 172.093 402.1 172.379 403.935 173.925C404.375 174.296 404.721 174.683 404.986 175.022C415.922 170.249 432.731 163.842 451.123 158.606C470.44 153.105 491.909 148.777 510.272 149.201C510.639 148.879 511.006 148.562 511.371 148.252C511.724 144.549 512.789 139.998 515.027 135.721H479.024L480.972 133.517ZM533.471 132.636C529.419 133.554 526.765 135.865 524.925 138.606C524.742 138.88 524.566 139.159 524.398 139.442C525.991 138.649 527.526 137.999 528.984 137.495L529.778 137.221H545.698C546.193 135.64 546.846 133.95 547.681 132.297C543.995 132.305 540.708 132.282 538.001 132.219C537.217 132.201 536.473 132.224 535.764 132.285L533.471 132.636ZM561.704 132.158C560.366 132.185 558.872 133.036 557.325 135.523C556.988 136.064 556.681 136.636 556.403 137.221H620.534L620.946 137.29C622.73 137.59 624.631 138.059 626.617 138.703V131.721H620.117V129.92L616.2 130.703L615.795 130.717C603.316 131.163 580.581 131.862 561.704 132.158ZM625.866 121.721H647.393C647.697 121.114 647.904 120.495 648.016 119.864C646.368 116.785 644.658 112.405 644.768 108.178C644.837 105.543 645.637 102.53 648.08 100.174C650.489 97.8497 653.79 96.8496 657.445 96.7235C662.274 96.557 669.615 96.499 677.397 96.4997C673.103 95.4158 668.637 94.643 665.242 94.2127C651.775 93.8994 644.587 98.0216 643.111 99.3018C641.39 101.091 638.535 103.402 635.06 105.05C631.526 106.727 626.792 107.972 621.823 106.551C621.765 106.552 621.453 106.543 620.788 106.677C619.858 106.864 618.615 107.25 617.064 107.873C613.97 109.115 610.169 111.084 606.079 113.461C603.052 115.219 599.941 117.158 596.941 119.11L625.549 118.721L625.866 121.721ZM578.95 119.355C584.723 115.153 593.112 109.43 601.055 104.814C605.323 102.334 609.597 100.095 613.338 98.5928C615.205 97.8432 617.07 97.2237 618.818 96.8726C620.467 96.5414 622.533 96.337 624.528 96.9237C626.232 97.4249 628.252 97.1467 630.447 96.1661C627.724 94.9462 624.336 93.5652 620.626 92.131C612.227 88.8834 602.474 85.4759 595.778 83.2366C594.71 83.226 593.656 83.2206 592.617 83.2206H592.39L592.164 83.2C587.072 82.7371 582.187 83.4704 577.536 85.1242C578.203 85.5628 578.87 86.0217 579.528 86.4993C583.28 89.2215 587.602 93.155 589.332 98.0564C590.916 102.545 588.946 107.041 586.473 110.348C584.065 113.567 580.485 116.67 576.096 119.394L578.95 119.355ZM541.989 119.565C553.56 118.74 563.153 115.413 569.873 111.47C574.008 109.045 576.863 106.5 578.464 104.359C580.024 102.273 579.877 101.349 579.888 101.347V101.347C579.203 99.4539 577.031 97.0428 573.655 94.5929C571.418 92.9695 569.018 91.5907 567.022 90.588C556.217 98.0018 547.539 109.62 541.989 119.565ZM562.284 81.7229C562.849 81.3492 563.42 80.9847 563.997 80.63C567.353 78.5658 570.927 76.818 574.698 75.5239C574.185 75.5734 573.692 75.6268 573.219 75.6842C569.679 76.1132 565.713 77.3015 561.426 79.1489L562.284 81.7229ZM539.254 92.3324C536.422 94.3897 533.59 96.5651 530.787 98.8178C519.82 107.632 509.484 117.48 501.553 125.721H520.38C523.706 118.397 528.602 108.339 534.552 99.111C536.041 96.8018 537.611 94.5212 539.254 92.3324ZM629.398 84.8529C631.866 85.861 634.14 86.8384 636.073 87.7434C637.404 88.3664 638.64 88.9859 639.698 89.5845C641.644 88.4775 644.137 87.3843 647.153 86.4749C641.293 85.8658 635.328 85.3179 629.398 84.8529ZM695.597 93.5041C696.576 94.3182 697.58 95.3537 698.342 96.6116C701.228 96.6396 703.866 96.6701 706.108 96.6996C706.086 96.5515 706.046 96.3697 705.981 96.1579C703.765 95.3907 700.264 94.4816 695.597 93.5041ZM704.221 106.676C701.412 106.642 698.118 106.607 694.575 106.578C681.809 106.472 665.961 106.436 657.789 106.718C655.644 106.792 655.066 107.329 655.023 107.371C655.013 107.38 654.788 107.56 654.765 108.438C654.726 109.929 655.325 111.966 656.217 113.907C658.264 114.035 660.519 114.171 662.908 114.311C671.205 114.795 681.097 115.312 689.559 115.626C697.299 115.913 703.376 116.006 706.129 115.835C706.165 115.383 706.165 114.707 706.052 113.765C705.789 111.569 705.055 108.982 704.221 106.676ZM637.117 139.601C636.949 139.648 636.782 139.694 636.617 139.739V143.141C636.783 143.234 636.95 143.329 637.117 143.424V139.601ZM647.117 150.394C649.001 151.957 650.88 153.668 652.735 155.535H712.617C714.101 155.535 715.557 155.638 716.979 155.835C729.973 156.762 747.754 157.998 763.215 158.999C771.776 159.553 779.611 160.035 785.523 160.353C788.482 160.512 790.938 160.629 792.754 160.693C794.782 160.766 795.569 160.751 795.565 160.751L796.669 170.69C795.765 170.79 794.09 170.747 792.397 170.687C790.492 170.619 787.967 170.499 784.986 170.338C779.019 170.018 771.141 169.533 762.569 168.978C754.311 168.443 745.396 167.842 736.9 167.256C739.077 170.126 740.626 173.357 741.375 176.755C742.69 182.723 741.47 189.092 736.956 194.396C735.795 195.759 734.445 197.021 732.906 198.173C733.925 198.262 734.943 198.359 735.958 198.467C743.798 199.301 751.625 200.754 758.498 203.139C765.314 205.503 771.611 208.927 775.92 213.974C789.228 229.564 804.106 235.738 809.173 236.833L807.06 246.608C799.794 245.037 783.006 237.677 768.314 220.467C765.622 217.314 761.19 214.657 755.22 212.586C749.307 210.535 742.289 209.197 734.9 208.411C720.159 206.843 704.584 207.535 694.773 208.662C688.845 209.548 684.187 210.117 680.072 210.582C680.988 215.244 681.713 220.159 682.221 225.337C696.633 225.808 716.603 227.371 735.091 229.697C745.351 230.988 755.233 232.524 763.505 234.257C771.588 235.95 778.713 237.943 783.045 240.35C789.432 243.898 798.116 245.963 806.733 247.21C813.054 248.124 818.922 248.552 823.554 248.89C825.231 249.012 826.746 249.123 828.061 249.24L827.172 259.201C826.075 259.103 824.716 259.004 823.156 258.89C819.391 258.616 814.45 258.255 809.156 257.616C810.23 258.165 811.296 258.74 812.349 259.332C820.877 260.042 832.966 260.667 844.926 258.652C857.424 256.547 869.106 251.677 876.625 241.709L876.941 241.291L877.336 240.947C885.14 234.161 898.119 223.844 911.821 214.842C918.675 210.339 925.782 206.117 932.565 202.825C934.219 202.023 935.872 201.266 937.513 200.57L926.638 200.728L926.097 200.616C924.866 200.359 923.409 199.951 922.059 199.355C920.953 198.867 918.897 197.825 917.702 195.784C916.991 194.57 916.593 193 916.947 191.288C917.276 189.689 918.152 188.494 918.975 187.674C920.52 186.134 922.805 184.998 925.361 184.039L926.21 183.721H937.523C935.161 171.446 939.691 162.655 943.783 158.994L944.494 158.359L945.388 158.029C947.399 157.288 950.666 156.502 953.909 156.864C955.578 157.05 957.539 157.575 959.294 158.862C961.145 160.22 962.432 162.184 962.989 164.596C963.503 166.827 963.737 168.889 963.774 170.721H973.434C973.244 167.21 973.49 163.249 974.6 159.52C974.922 158.437 975.326 157.347 975.828 156.278C967.609 156.441 958.99 156.566 951.257 156.597C944.837 156.622 938.986 156.584 934.468 156.446C932.214 156.377 930.238 156.282 928.665 156.152C927.336 156.042 925.638 155.867 924.408 155.42C921.047 154.197 918.36 151.74 918.047 148.042C917.876 146.021 918.497 144.28 919.241 142.99C834.713 152.087 737.949 147.777 697.675 144.201L698.559 134.24C740.197 137.938 842.72 142.403 928.599 131.847C921.505 126.676 913.289 121.031 907.387 117.078C906.579 116.995 905.77 116.9 904.963 116.793C898.635 115.958 892.333 114.422 886.057 112.361C885.191 112.077 884.325 111.782 883.46 111.478C869.337 106.517 855.133 98.9425 840.859 90.6033C834.793 87.0596 828.794 83.4278 822.766 79.7783C814.373 74.6964 805.922 69.5802 797.155 64.6194C787.018 58.884 776.773 53.5484 766.36 49.081C766.903 50.4951 766.815 51.9141 766.459 53.0471C766.074 54.2736 765.382 55.1994 764.867 55.7893C763.825 56.9829 762.434 58.0018 761.237 58.7829C758.743 60.4106 755.664 61.9131 753.61 62.806L752.657 63.2207H717.682C719.093 64.9135 720.336 66.7152 721.278 68.6031C722.293 70.6375 723.016 72.9022 723.143 75.2798C740.766 79.996 756.728 85.9368 769.194 93.436L764.039 102.005C751.761 94.6186 735.268 88.6288 716.391 83.8559C714.922 83.4845 713.441 83.1208 711.947 82.7647C715.878 84.1865 719.319 85.7198 722.014 87.3803C723.875 88.5266 725.638 89.8886 726.944 91.5362C728.286 93.2303 729.339 95.4955 729.096 98.1712C728.642 103.195 730.771 108.934 734.269 114.469C737.706 119.909 742.042 124.479 744.887 126.938L738.347 134.503C734.859 131.488 729.844 126.188 725.815 119.811C721.921 113.649 718.523 105.811 719.099 97.7381C718.792 97.3542 718.1 96.7141 716.768 95.894C716.535 95.7499 716.289 95.605 716.032 95.4594C716.105 96.0239 716.14 96.6053 716.128 97.1978C716.094 98.8827 715.663 100.785 714.461 102.543C714.229 102.882 713.978 103.203 713.707 103.506C714.701 106.288 715.617 109.534 715.981 112.576C716.249 114.813 716.3 117.552 715.371 120.02C714.879 121.326 714.067 122.674 712.768 123.758C711.447 124.862 709.879 125.477 708.237 125.682C705.097 126.074 697.511 125.928 689.188 125.619C681.805 125.345 673.373 124.919 665.849 124.496C664.285 127.663 661.948 131.264 659.112 134.47C656.078 137.899 651.988 141.423 647.117 143.167V150.394ZM694.037 68.7734C700.154 69.9107 706.172 71.1545 712.036 72.5132C710.988 70.6494 709.258 68.5857 706.959 66.4442C704.004 63.692 700.442 61.1172 697.047 58.978C696.724 61.0325 696.246 63.1486 695.566 65.1615C695.177 66.3116 694.677 67.5489 694.037 68.7734ZM697.113 47.4308C698.924 48.4145 700.916 49.5786 702.962 50.8886C704.516 45.2351 711.068 40.6737 719.738 42.2491C724.878 42.5515 733.162 42.5894 740.656 42.6236C743.791 42.638 746.787 42.6517 749.357 42.6838C732.991 37.4474 716.154 34.8777 698.632 36.6939L698.533 36.7042L692.269 37.1008C694.845 40.5125 696.365 44.2214 697.113 47.4308ZM751.04 52.9908C751.219 52.906 751.401 52.8187 751.585 52.729C751.552 52.7267 751.519 52.7244 751.486 52.7222C751.471 52.7231 751.452 52.7244 751.43 52.7262C751.35 52.7326 751.242 52.7447 751.105 52.7652C750.939 52.7904 750.749 52.8257 750.537 52.8722C750.704 52.9127 750.871 52.9522 751.04 52.9908ZM758.027 54.0679C758.027 54.0679 758.004 54.0568 757.97 54.0322C758.011 54.0552 758.027 54.0679 758.027 54.0679ZM757.325 49.2224C757.344 49.1985 757.349 49.1957 757.332 49.2144C757.33 49.2169 757.328 49.2196 757.325 49.2224ZM687.623 51.0625C687.109 46.9638 684.205 40.3953 676.859 37.6358C675.348 37.0685 673.603 36.6381 671.584 36.422C669.239 36.1709 666.507 36.2073 663.337 36.6685C658.69 37.3443 656.525 38.9089 655.462 40.3106C654.363 41.7593 653.809 43.8661 654.045 46.8246C654.167 48.3683 654.501 50.0478 655.019 51.8123C656.238 55.9677 658.366 60.2084 660.52 63.6359C667.929 64.5577 675.33 65.605 682.634 66.7908C683.634 66.4985 684.94 65.3713 686.093 61.9599C687.288 58.4221 687.674 54.0656 687.623 51.0625ZM925.302 117.221C928.749 119.629 932.262 122.129 935.513 124.515C937.096 125.676 938.629 126.82 940.07 127.92C939.473 122.796 938.842 117.305 938.212 111.727C936.384 95.5386 934.561 78.5532 933.625 67.6482C933.332 64.24 933.121 61.3669 933.026 59.2781C932.979 58.2482 932.956 57.315 932.975 56.57C932.985 56.2132 933.007 55.7648 933.071 55.3171C933.103 55.0997 933.163 54.7465 933.287 54.3449L933.288 54.3417C933.367 54.0894 933.678 53.0885 934.581 52.1851C935.114 51.6525 936.041 50.8877 937.394 50.5327C938.909 50.1355 940.344 50.4079 941.477 50.9864C942.471 51.4942 943.155 52.1912 943.564 52.666C944 53.1712 944.368 53.713 944.669 54.1957C945.344 55.2757 946.204 56.9393 947.212 58.8899C947.773 59.9771 948.381 61.1535 949.029 62.3677C949.205 62.698 949.356 62.9191 949.468 63.0621C949.515 63.0388 949.565 63.0119 949.618 62.9813C949.603 62.8054 949.584 62.6124 949.56 62.4017C949.395 60.926 949.029 58.7965 948.286 56.009C947.817 54.2509 946.18 51.2292 943.64 48.1718C941.11 45.1269 938.298 42.7903 936.022 41.82C935.104 41.4284 934.522 41.3564 934.175 41.3757C934.104 41.5492 934.023 41.7705 933.933 42.0468C933.514 43.3448 933.107 45.2736 932.75 47.8312C932.042 52.9096 931.625 59.74 931.429 67.35C931.035 82.5527 931.531 100.288 932.111 111.973L932.371 117.221H925.302ZM934.419 40.8697C934.419 40.8697 934.414 40.8799 934.401 40.8977C934.413 40.8782 934.419 40.8697 934.419 40.8697ZM956.779 70.1042C955.725 71.0079 954.416 71.8813 952.906 72.4646C950.722 73.3081 947.901 73.58 945.178 72.2207H944.079C944.966 81.6333 946.28 93.9163 947.65 106.165H968.06L969.562 108.093C971.427 110.488 973.705 114.495 974.641 119.09C974.87 120.214 975.022 121.402 975.061 122.626C978.301 119.618 980.734 116.579 982.065 113.652L983.308 110.918L999.726 109.892C1001.3 107.554 1003.5 104.812 1006.21 102.311C1009.89 98.9141 1014.94 95.5498 1020.97 94.7627C1021.67 94.6711 1023.12 94.0351 1025.25 91.9839C1027.28 90.0404 1029.41 87.3149 1031.53 84.1318C1035.61 77.9707 1039.2 70.7035 1041.31 65.7421C1041.43 64.9992 1041.43 63.9153 1041.12 62.9755C1040.96 62.5043 1040.74 62.0772 1040.37 61.7161C1039.5 61.9852 1038.52 62.2325 1037.47 62.4629C1035.23 62.9553 1032.41 63.4291 1029.23 63.8845C1022.84 64.7973 1014.63 65.6781 1005.85 66.4871C989.08 68.0316 969.966 69.3346 956.779 70.1042ZM1051 61.2455C1051.61 63.9583 1051.41 66.5622 1050.98 68.3658L1050.89 68.7707L1050.73 69.1543C1048.48 74.5232 1044.51 82.6451 1039.86 89.6596C1039.71 89.8833 1039.56 90.1065 1039.41 90.3292C1041.33 90.2011 1043.36 90.0755 1045.46 89.9549C1047.48 89.4944 1050.48 88.0665 1054.3 85.6277C1058.16 83.155 1062.4 79.9441 1066.58 76.5297C1073.96 70.4906 1080.87 64.0441 1084.82 60.3553C1085.34 59.8729 1085.8 59.4377 1086.21 59.0567C1089.08 56.3953 1091.87 51.8857 1094.43 46.0184C1096.95 40.242 1099.07 33.5654 1100.78 26.9659C1101.32 24.8518 1101.25 23.537 1101.06 22.7864C1100.89 22.0892 1100.59 21.6731 1100.24 21.3622C1099.79 20.9656 1099.14 20.661 1098.43 20.4653C1084.45 38.8865 1072.46 49.8885 1062.75 55.9077C1058.59 58.4867 1054.63 60.2722 1051 61.2455ZM1085.96 20.1784L858.447 19.2304C857.179 20.7895 855.762 22.6158 854.173 24.6636C853.777 25.1739 853.37 25.6979 852.953 26.235C852.107 27.3219 851.225 28.4511 850.31 29.6071L891.141 31.1526C891.861 30.6938 892.68 30.319 893.602 30.0899C895.581 29.5981 897.498 29.912 899.162 30.6581C899.584 30.8473 900 31.0442 900.41 31.2481L930.724 31.9306C933.593 30.9763 936.471 31.354 938.927 32.224L1074.96 32.7131C1078.4 29.1548 1082.07 25.0035 1085.96 20.1784ZM1064.13 42.6742L951.732 42.2701C954.568 45.784 957.001 49.8824 957.948 53.4323C958.625 55.9702 959.058 58.1385 959.322 59.9354C972.218 59.1552 989.586 57.9427 1004.93 56.5292C1013.66 55.7257 1021.67 54.8628 1027.81 53.985C1030.89 53.545 1033.43 53.1118 1035.32 52.696C1036.27 52.4878 1036.99 52.2984 1037.5 52.1354C1037.81 52.036 1037.97 51.9701 1038.01 51.95L1039.93 50.7202L1042.2 51.4772C1042.62 51.6188 1043.03 51.7751 1043.42 51.9447C1045.14 52.3631 1049.63 52.277 1057.48 47.4086C1059.53 46.1388 1061.75 44.5756 1064.13 42.6742ZM923.669 41.7743L913.283 41.5404C917.645 46.6188 920.515 51.9961 921.948 55.5541C922.175 52.2294 922.469 49.1516 922.846 46.4496C923.077 44.7969 923.347 43.2203 923.669 41.7743ZM921.597 62.1086C921.546 62.2365 921.494 62.3648 921.441 62.4932C921.488 62.4936 921.535 62.4939 921.581 62.4943C921.586 62.3655 921.591 62.2369 921.597 62.1086ZM921.329 72.4926C919.343 72.475 917.082 72.3873 914.786 72.2634C912.126 72.1198 909.365 71.9244 906.844 71.7221C907.743 82.89 909.099 96.8647 910.164 107.221H921.886C921.476 97.2216 921.175 84.4437 921.329 72.4926ZM899.966 105.793C898.737 93.7013 897.214 77.7026 896.422 66.5753C896.159 62.8694 895.972 59.6394 895.907 57.2527C895.876 56.0742 895.871 55.0013 895.914 54.1435C895.935 53.7293 895.973 53.2286 896.06 52.7365C896.102 52.4946 896.178 52.1275 896.32 51.7177C896.422 51.4233 896.749 50.5176 897.581 49.6851C898.216 49.0508 899.385 48.1368 901.105 47.9427C902.886 47.7416 904.275 48.4186 905.094 48.9917C906.356 49.8754 907.274 51.254 907.738 51.9509L907.777 52.0097C908.077 52.459 908.384 52.9372 908.713 53.449C909.626 54.868 910.704 56.5449 912.238 58.579C912.26 58.5244 912.282 58.4695 912.304 58.4146C910.11 53.447 904.766 44.9676 896.75 40.6146C896.532 40.4962 896.312 40.381 896.091 40.2691C895.873 40.6645 895.611 41.2253 895.329 41.9967C894.812 43.4094 894.329 45.2446 893.898 47.4863C893.036 51.9697 892.462 57.6598 892.126 63.9864C891.43 77.0629 891.772 92.2774 892.405 103.868C894.945 104.619 897.464 105.264 899.966 105.793ZM881.741 79.6042C881.744 76.0201 881.796 72.4245 881.909 68.9099C880.436 68.8696 878.854 68.7815 877.217 68.6641C875.744 68.5585 874.166 68.4238 872.503 68.264C873.901 70.1791 875.366 72.115 876.812 73.9277C878.594 76.1598 880.281 78.1204 881.741 79.6042ZM859.214 66.7239C841.557 64.4141 820.03 60.7867 806.879 58.3991C806.87 58.3979 806.86 58.3967 806.851 58.3956C806.785 58.4381 806.718 58.4833 806.649 58.5313C813.905 62.7268 821.136 67.1023 828.221 71.3895C834.246 75.0348 840.165 78.6163 845.903 81.9689C857.401 88.6861 868.498 94.687 879.336 99.1867L878.413 89.9329C878.363 89.8981 878.314 89.8637 878.266 89.8298C877.231 89.0941 876.197 88.1792 875.209 87.2121C873.226 85.2722 871.078 82.7738 868.996 80.1654C865.438 75.7073 861.836 70.6234 859.214 66.7239ZM828.277 51.9537C839.503 53.811 852.007 55.7361 862.745 57.096C868.522 57.8277 873.733 58.3886 877.932 58.6898C879.687 58.8156 881.185 58.8891 882.429 58.9189C882.793 54.0671 883.324 49.5167 884.077 45.5985C884.392 43.9635 884.753 42.3958 885.171 40.9338L842.175 39.3063C837.998 43.9259 833.32 48.4593 828.277 51.9537ZM895.07 39.7824L895.072 39.7832ZM913.582 60.2034C913.582 60.2034 913.576 60.2002 913.565 60.1916C913.576 60.1987 913.582 60.2034 913.582 60.2034ZM1002.83 119.717L989.729 120.536C987.403 124.451 984.142 127.971 980.676 131.031C976.968 134.305 972.817 137.232 968.837 139.721H991.694C992.667 139.096 993.81 138.31 994.828 137.51C995.559 136.936 996.125 136.432 996.497 136.039C996.558 135.975 996.608 135.92 996.647 135.874C998.264 130.282 1000.3 124.829 1002.83 119.717ZM991.448 155.917C989.162 156.177 987.71 156.975 986.703 157.927C985.613 158.955 984.76 160.437 984.184 162.374C983.406 164.986 983.259 168.007 983.453 170.721H991.056C991.347 165.819 991.812 160.843 992.495 155.889C992.149 155.899 991.8 155.908 991.448 155.917ZM951.617 170.721H953.771C953.737 169.657 953.593 168.368 953.254 166.887C953.159 166.859 953.012 166.826 952.8 166.802C952.277 166.744 951.593 166.771 950.819 166.899C950.479 166.955 950.151 167.026 949.847 167.104C948.199 169.174 945.429 174.769 947.77 183.721H950.91C951.164 183.111 951.41 182.46 951.617 181.882V170.721ZM975.508 200.017L952.5 200.352L953.284 206.176C948.852 206.772 943.265 208.748 936.931 211.822C930.66 214.865 923.942 218.844 917.312 223.199C904.27 231.768 891.849 241.611 884.28 248.162C874.6 260.69 860.205 266.22 846.586 268.514C840.459 269.546 834.356 269.946 828.7 270.006C829.893 270.856 831.053 271.691 832.172 272.496C833.065 273.138 833.932 273.761 834.768 274.359C837.878 276.582 840.518 278.415 842.659 279.689C843.726 280.324 844.556 280.752 845.174 281.008C845.389 281.098 845.545 281.152 845.648 281.185C885.255 276.662 966.963 267.087 983.684 264.215L1023.58 255.925L996.813 239.847L995.238 231.332C994.475 228.485 993.518 223.335 992.678 216.721H966.184L975.753 208.021C977.122 206.776 979.712 203.91 981.206 201.09C979.575 200.49 977.29 200.128 975.508 200.017ZM991.323 202.908C991.321 202.915 991.318 202.922 991.316 202.929C990.843 204.23 990.218 205.505 989.511 206.721H991.622C991.515 205.48 991.416 204.208 991.323 202.908ZM1049.15 259.615C1054.72 259.724 1060.96 259.628 1067.53 259.38C1080.78 258.879 1095.13 257.771 1107.55 256.574C1103.54 253.578 1099.92 249.653 1096.83 244.182C1090.29 232.619 1086.38 214.626 1084.63 185.017C1082.1 142.529 1100.3 114.365 1116.07 100.937C1115.22 100.787 1114.31 100.642 1113.34 100.504C1107.71 99.7055 1100.76 99.2323 1093.13 99.0089C1077.89 98.5626 1060.39 99.1238 1046.4 99.9177C1042.33 100.148 1038.58 100.398 1035.27 100.648C1020.31 106.824 1011.25 121.096 1006.13 139.089C1005.5 141.284 1004.94 143.526 1004.44 145.802C1004.01 147.71 1003.63 149.641 1003.29 151.589C1001.88 159.594 1001.12 167.855 1000.82 175.908C1000.73 178.213 1000.68 180.5 1000.67 182.756C1000.65 184.742 1000.66 186.703 1000.7 188.634C1000.73 190.632 1000.79 192.595 1000.87 194.516C1001.12 200.598 1001.57 206.244 1002.1 211.186C1003.04 219.936 1004.22 226.278 1004.94 228.891L1004.99 229.099L1005.83 233.595L1049.15 259.615ZM1128.08 104.456C1114.51 112.923 1091.93 139.338 1094.61 184.424C1096.35 213.815 1100.19 229.822 1105.53 239.259C1110.32 247.721 1116.51 251.27 1125.26 254.463C1127.6 253.562 1131.2 251.256 1135.13 246.52C1132.86 247.294 1130.36 247.721 1127.62 247.721C1113.85 247.721 1106.08 237.015 1101.78 225.394C1097.42 213.597 1095.77 198.849 1095.12 186.482C1094.34 171.515 1096.93 153.7 1102.4 139.645C1105.12 132.624 1108.69 126.218 1113.2 121.583C1117.76 116.89 1123.58 113.747 1130.47 114.233C1134.55 114.521 1138.08 115.755 1141.14 117.68C1138.62 113.621 1136.03 110.517 1133.68 108.302C1131.13 105.911 1129.2 104.866 1128.08 104.456ZM839.11 289.172C838.589 288.892 838.066 288.593 837.544 288.282C834.999 286.767 832.044 284.703 828.954 282.495C828.076 281.867 827.182 281.225 826.274 280.572C820.647 276.527 814.488 272.1 808.333 268.552C804.855 266.547 801.552 264.93 798.518 263.844C797.177 268.582 795.633 274.627 794.379 280.782C793.156 286.78 792.272 292.581 792.028 297.299L839.11 289.172ZM781.989 298.114C782.171 292.174 783.264 285.238 784.58 278.784C785.928 272.171 787.589 265.701 789.021 260.679C784.848 259.288 779.153 257.983 772.26 256.807C763 255.227 752.032 253.951 740.621 252.938C720.158 251.123 698.492 250.175 683.13 249.819C682.699 270.413 679.164 287.851 673.873 302.277C704.879 300.533 758.106 297.916 781.989 298.114ZM683.097 239.816C698.646 240.171 720.665 241.128 741.505 242.978C752.162 243.923 762.569 245.107 771.674 246.574C768.881 245.734 765.452 244.882 761.454 244.044C753.542 242.386 743.95 240.891 733.843 239.619C716.043 237.38 696.893 235.866 682.931 235.367C683.002 236.865 683.057 238.348 683.097 239.816ZM964.302 126.568C965.143 124.973 965.261 123.14 964.842 121.085C964.477 119.291 963.731 117.559 962.942 116.165H948.78C949.27 120.45 949.753 124.625 950.213 128.555L964.302 126.568ZM938.864 139.721C938.61 139.508 938.346 139.291 938.073 139.067L938.162 139.721H938.864ZM677.775 200.777C682.146 200.291 686.998 199.714 693.376 198.759C698.819 197.944 705.386 196.852 713.702 195.305C722.123 193.738 726.885 190.8 729.34 187.914C731.701 185.14 732.294 182.012 731.609 178.908C730.325 173.084 724.349 167.074 715.951 165.787C714.734 165.7 713.561 165.616 712.437 165.535H661.247C667.944 174.707 673.815 186.333 677.775 200.777ZM689.764 101.753C689.761 101.753 689.746 101.733 689.726 101.691C689.757 101.732 689.767 101.753 689.764 101.753ZM500.266 159.42C485.644 160.353 469.312 163.824 453.861 168.223C450.428 169.201 447.052 170.22 443.762 171.262L452.646 178.933C457.428 177.343 464.411 175.228 471.679 173.429C478.649 171.705 486.222 170.184 492.428 169.809C494.973 166.013 497.605 162.552 500.266 159.42ZM485.942 180.637C482.238 181.248 478.175 182.124 474.081 183.137C472.579 183.508 471.089 183.894 469.629 184.286C471.367 184.462 473.033 184.62 474.607 184.756C478.298 185.074 481.331 185.257 483.573 185.295C484.345 183.701 485.135 182.149 485.942 180.637ZM427.622 179.036C427.635 178.298 427.671 177.519 427.756 176.721C426.177 177.298 424.638 177.871 423.146 178.439C424.579 178.629 426.075 178.828 427.622 179.036ZM399.981 184.349C399.06 183.719 398.349 182.994 397.778 182.214C397.764 182.196 397.751 182.178 397.738 182.16C396.714 182.233 395.004 182.488 392.185 183.105C390.843 183.399 389.871 183.711 389.186 183.998C389.194 184.006 389.201 184.014 389.209 184.022C389.534 184.349 389.913 184.677 390.319 184.991C392.721 184.687 396.077 184.409 399.981 184.349ZM409.744 194.723C400.935 193.869 392.969 194.626 389.974 195.147L388.125 195.468L386.522 194.494C386.415 194.43 386.307 194.363 386.198 194.295C385.939 194.366 385.526 194.49 384.925 194.7C383.799 195.092 382.346 195.664 380.611 196.394C377.149 197.852 372.784 199.852 368.09 202.085C364.775 203.662 361.32 205.343 357.938 207.014L380.989 208.216C380.789 207.541 380.694 206.812 380.734 206.046C380.807 204.655 381.309 203.479 381.877 202.571C383.739 199.591 386.607 198.128 388.908 197.426C391.209 196.724 393.477 196.608 395.032 196.738L396.136 196.83L397.097 197.379C397.094 197.377 397.144 197.405 397.255 197.457C397.365 197.507 397.517 197.572 397.709 197.646C398.095 197.794 398.611 197.965 399.243 198.126C400.215 198.375 401.422 198.592 402.809 198.679C404.765 197.523 407.19 196.128 409.744 194.723ZM366.013 217.448L342.176 216.205L341.997 216.182C341.312 216.097 340.21 215.991 338.823 215.909C335.641 215.722 331.27 215.678 327.237 216.182C326.727 216.246 326.441 216.358 326.293 216.438L365.796 218.126C365.858 217.893 365.931 217.667 366.013 217.448ZM347.64 227.359L321.9 226.259C317.294 228.054 307.592 233.254 294.688 240.645C281.165 248.392 264.658 258.227 247.997 268.199C245.184 269.882 242.367 271.57 239.559 273.251C225.757 281.518 212.189 289.644 200.528 296.48C188.339 303.624 177.995 309.502 171.623 312.627C173.516 312.38 175.496 312.113 177.53 311.831C186.286 310.616 195.631 309.18 202.252 308.119C202.065 307.532 201.942 306.873 201.934 306.151C201.917 304.642 202.412 303.259 203.224 302.112C204.678 300.06 207.069 298.847 209.453 298.006C215.574 295.846 227.744 292.841 235.244 291.094C234.92 290.214 234.753 289.175 234.916 288.04C235.113 286.668 235.736 285.559 236.434 284.73C237.704 283.223 239.536 282.268 241.26 281.579C247.331 279.15 260.837 274.215 266.852 272.042C269.741 270.906 272.964 269.687 276.46 268.415C290.4 260.075 311.376 247.715 329.538 237.417C336.071 233.713 342.261 230.263 347.64 227.359ZM318.977 254.998C326.085 253.087 333.367 251.306 340.614 249.769C363.339 244.947 386.583 242.322 402.929 246.272L468.214 251.789C468.539 241.502 469.62 231.944 471.296 223.097C470.198 223.012 468.98 222.909 467.664 222.791C461.908 222.275 453.992 221.446 445.24 220.491C438.316 219.736 430.869 218.903 423.52 218.082C415.881 217.227 408.347 216.385 401.619 215.654L402.219 218.758L380.617 228.768L368.41 228.247C368.365 228.261 368.313 228.279 368.254 228.299C367.765 228.467 367.044 228.756 366.071 229.19C364.138 230.052 361.518 231.347 358.329 233.005C351.968 236.313 343.602 240.938 334.47 246.116C329.454 248.96 324.219 251.964 318.977 254.998ZM368.667 228.173C368.667 228.173 368.658 228.175 368.637 228.18C368.657 228.175 368.667 228.173 368.667 228.173ZM458.789 201.216C448.563 200.058 437.004 198.518 427.718 197.223C427.597 197.256 427.443 197.301 427.253 197.363C426.68 197.549 425.952 197.826 425.079 198.196C423.82 198.731 422.37 199.413 420.815 200.189C422.845 200.394 424.99 200.612 427.214 200.839C432.415 201.369 438.05 201.943 443.658 202.495C450.551 203.172 457.345 203.808 463.149 204.276L458.789 201.216ZM458.945 268.089C459.355 268.365 459.746 268.635 460.118 268.898C460.254 268.634 460.391 268.371 460.529 268.11L458.945 268.089ZM475.566 262.446C474.81 263.561 474.067 264.702 473.339 265.869C470.852 269.853 468.537 274.141 466.447 278.776C462.091 288.439 458.689 299.673 456.776 312.893C470.361 311.339 482.927 304.419 493.553 295.62C505.059 286.092 513.844 274.721 518.617 266.848V222.304C505.196 231.642 490.21 242.449 478.105 258.856L478.084 262.658L475.566 262.446ZM478.764 242.41C490.717 229.454 503.98 220.266 515.08 212.578C517.037 211.222 518.927 209.913 520.731 208.638L528.617 203.063V263.221H546.46L541.901 270.798C538.777 275.991 536.016 280.34 530.774 286.422L534.117 327.015V327.221C534.117 333.45 531.507 338.059 527.442 341.011C526.78 341.491 526.091 341.92 525.385 342.301C527.956 343.672 531.49 345.276 536.315 347.018L536.439 347.063L536.56 347.114C548.242 352.042 565.265 352.996 582.4 351.906C588.916 351.492 595.335 350.791 601.322 349.946C594.863 347.029 588.353 342.652 582.244 336.229C567.806 321.049 556.196 295.047 552.138 251.687L552.117 251.454V251.221C552.117 208.766 561.649 181.074 575.082 163.497C580.425 156.506 586.328 151.192 592.374 147.221H531.499C528.253 148.469 524.043 150.865 519.364 154.62C518.101 155.634 516.81 156.742 515.501 157.945C510.177 162.842 504.588 169.299 499.401 177.413C496.552 181.871 493.826 186.826 491.332 192.295C490.271 194.622 489.251 197.043 488.283 199.557C487.216 202.325 486.211 205.207 485.279 208.206C484.982 209.16 484.692 210.127 484.41 211.105C483.645 213.759 482.937 216.5 482.293 219.33C480.672 226.454 479.456 234.142 478.764 242.41ZM619.975 147.278C608.529 148.793 594.429 154.65 583.027 169.57C571.357 184.839 562.152 210.08 562.117 250.987C566.079 292.981 577.201 316.417 589.49 329.338C601.428 341.89 615.016 345.088 625.917 345.217C635.542 342.235 651.047 329.951 661.718 305.706C662.093 304.853 662.462 303.986 662.825 303.105C661.256 306.15 659.572 308.89 657.787 311.347C647.646 325.309 634.625 329.671 622.82 329.721C611.766 330.553 598.987 324.645 588.983 311.455C578.882 298.136 571.438 277.279 570.619 247.358L570.613 247.167L570.623 246.975C572.154 215.834 579.547 196.544 588.997 184.508C598.521 172.378 609.689 168.185 617.471 166.354C626.749 164.171 640.664 168.47 652.288 179.759C658.492 185.785 664.15 193.866 668.362 204.278C663.509 186.047 655.473 172.974 646.979 163.965C644.359 161.186 641.691 158.789 639.053 156.743C631.846 151.155 624.962 148.263 619.975 147.278ZM511.617 335.196C512.47 335.215 513.355 335.197 514.245 335.131C517.295 334.903 519.873 334.148 521.566 332.919C522.964 331.904 524.07 330.371 524.115 327.41L521.617 297.068C505.543 314.346 484.746 327.57 455.567 323.98C455.121 329.923 454.956 336.227 455.111 342.922C455.376 345.77 455.181 348.397 454.526 350.76C457.628 350.362 460.337 349.927 462.703 349.43C467.839 348.35 470.849 347.072 472.672 345.661C475.689 343.325 476.915 339.432 475.646 327.761L485.588 326.681C486.218 332.478 486.472 337.796 485.523 342.419C488.561 342.343 491.827 342.11 494.764 341.62C497.587 341.15 499.689 340.507 500.952 339.808C501.292 339.62 501.498 339.474 501.617 339.376V321.721H511.617V335.196ZM501.76 339.226C501.765 339.226 501.752 339.248 501.711 339.29C501.736 339.246 501.756 339.225 501.76 339.226ZM445.091 334.105C445.182 329.3 445.437 324.684 445.844 320.247C439.008 314.555 428.009 309.96 413.638 306.479C398.134 302.723 379.395 300.42 359.295 299.148C319.269 296.616 274.458 298.203 240.317 300.189C236.199 301.12 229.439 302.726 223.31 304.345C258.74 304.98 306.085 308.032 348.718 313.195C372.807 316.112 395.505 319.716 413.752 323.969C422.872 326.094 430.976 328.404 437.628 330.908C440.297 331.912 442.806 332.974 445.091 334.105ZM444.203 349.689C435.408 345.077 421.975 340.799 405.229 336.993C386.407 332.714 363.925 329.14 340.254 326.279C293.087 320.577 241.546 317.742 205.519 317.721C198.811 318.808 188.517 320.402 178.904 321.736C178.244 321.828 177.585 321.918 176.929 322.008C213.076 322.75 254.506 324.943 293.531 328.681C342.4 333.362 388.073 340.514 414.774 350.502C421.051 352.557 429.91 354.283 436.647 353.389C440.004 352.944 442.2 351.932 443.455 350.648C443.716 350.381 443.971 350.067 444.203 349.689ZM111.348 312.981C111.76 311.809 112.325 310.724 112.883 309.782C114.031 307.847 115.662 305.691 117.692 303.357C114.069 302.718 109.959 302.348 105.506 302.203C97.6424 301.946 89.0988 302.398 80.9658 303.078C79.1872 303.227 77.4385 303.386 75.7282 303.55C75.8162 303.571 75.9042 303.593 75.992 303.614C80.773 304.783 85.426 306.215 89.8952 307.59C92.2097 308.302 94.475 308.998 96.6832 309.636C101.394 310.996 106.16 312.19 111.348 312.981ZM128.341 292.539C128.978 291.92 129.58 291.33 130.16 290.762C131.527 289.424 132.775 288.202 134.078 286.971C129.069 287.691 123.406 288.725 117.487 289.864C118.376 289.981 119.238 290.11 120.07 290.253C122.997 290.754 125.86 291.464 128.341 292.539ZM151.767 272.476C162.571 264.357 182.74 249.73 195.725 240.727C195.623 240.505 195.517 240.355 195.429 240.25C195.125 239.885 194.458 239.365 192.846 238.942C190.918 238.435 188.253 238.224 184.683 238.221C180.201 238.344 175.718 238.981 171.266 240.032C151.031 244.81 132.056 257.959 117.627 268.837C115.854 270.174 114.126 271.495 112.463 272.766C109.761 274.832 107.23 276.768 104.952 278.428C105.865 278.229 106.784 278.027 107.709 277.824C110.251 277.266 112.836 276.698 115.454 276.142C127.739 273.534 140.84 271.175 151.767 272.476ZM84.7149 272.009L80.4745 270.864L74.1329 286.717C74.0133 286.719 73.8948 286.72 73.7776 286.721C73.7019 286.677 73.5629 286.584 73.3576 286.397C72.7906 285.881 72.0883 284.975 71.3335 283.638C69.8314 280.977 68.6397 277.546 67.9503 274.941L58.2331 275.149L53.7115 295.747C52.6809 295.831 51.7614 295.894 50.9583 295.931C50.0423 295.974 49.3665 295.978 48.8986 295.957C48.8775 295.956 48.8573 295.955 48.838 295.954C48.7061 295.822 48.4865 295.577 48.1936 295.151C47.5587 294.228 46.8876 292.901 46.2357 291.268C44.9367 288.013 43.9891 284.242 43.5312 281.799L33.6416 282.223L31.6589 302.051C26.6399 302.823 21.2448 303.91 15.4041 305.37L14.7248 305.54L14.1182 305.89C13.4441 306.279 12.6763 306.573 12.0101 306.683C11.3424 306.793 11.0994 306.673 11.0932 306.67C11.0868 306.666 11.078 306.661 11.064 306.65C11.0499 306.638 11.0185 306.61 10.9733 306.554C10.8842 306.444 10.7073 306.182 10.526 305.655C10.1462 304.551 9.8317 302.529 10.1013 299.114C10.5598 293.306 12.5634 284.703 15.6294 275.266C18.6385 266.003 22.5701 256.245 26.7707 248.002C31.0727 239.561 35.325 233.384 38.7585 230.611C45.0058 225.565 59.6526 215.704 73.6014 206.885C80.5362 202.5 87.2073 198.43 92.4621 195.406C92.8197 195.201 93.1699 195 93.5125 194.805C91.0515 206.592 88.3167 221.477 86.4827 235.733C85.2743 245.126 84.443 254.352 84.3577 262.289C84.3214 265.668 84.4158 268.96 84.7149 272.009ZM73.8461 286.754C73.8461 286.754 73.8403 286.753 73.8285 286.747C73.8401 286.751 73.8461 286.754 73.8461 286.754ZM204.003 235.066C211.99 229.659 220.303 224.176 228.859 218.682H209.898L208.816 218.121C206.957 217.157 204.368 215.541 202.127 213.499C200.756 219.735 199.878 225.711 199.394 230.826C200.761 231.574 202.037 232.557 203.117 233.854C203.441 234.244 203.736 234.648 204.003 235.066ZM189.589 228.378C190.839 216.547 193.986 200.837 200.179 187.009C206.704 172.438 217.239 158.694 233.617 155.375V141.283L233.693 140.852C234.023 138.981 234.098 137.274 233.957 135.707C230.347 136.528 225.798 138.416 220.698 141.6C213.678 145.983 206.056 152.549 199.08 161.15C186.028 177.244 175.381 200.278 175.04 229.102C178.151 228.611 181.303 228.306 184.485 228.223L184.551 228.221H184.617C186.296 228.221 187.967 228.26 189.589 228.378ZM165.034 231.325C164.836 198.936 176.64 172.945 191.314 154.851C198.94 145.447 207.384 138.123 215.403 133.117C217.852 131.588 220.307 130.248 222.725 129.126C219.37 128.544 215.636 128.125 211.877 127.83C206.448 127.405 201.154 127.251 197.202 127.205C195.231 127.182 193.604 127.186 192.474 127.195C191.909 127.2 191.469 127.206 191.173 127.211C191.025 127.214 190.913 127.216 190.839 127.217L190.79 127.218C170.645 128.179 155.409 134.935 143.989 144.894C132.495 154.916 124.617 168.404 119.668 183.112C110.781 209.528 111.653 238.893 117.037 256.82C130.03 247.343 146.769 236.524 165.034 231.325ZM243.95 135.221C244.112 137.415 244.01 139.722 243.617 142.141V169.721H267.36C268.112 158.763 267.914 149.322 267.021 142.357C266.103 135.197 264.2 130.248 261.363 126.654C258.556 123.098 254.464 120.402 248.289 118.418C243.789 116.972 238.398 115.962 231.948 115.26C234.643 117.176 237.064 119.422 239.026 122.055C240.409 123.911 241.534 125.92 242.364 128.077L246.499 135.221H243.95ZM277.383 169.721H287.392C285.02 163.594 281.4 158.283 277.802 154.1C277.881 158.908 277.747 164.155 277.383 169.721ZM233.617 170.383V165.673C222.934 168.752 215.015 178.346 209.305 191.096C209.116 191.519 208.929 191.944 208.746 192.371C208.754 192.368 208.762 192.366 208.77 192.363C212.636 190.98 216.759 190.136 219.434 189.767L219.896 189.704L271.872 192.265C273.895 191.078 275.924 189.897 277.958 188.721H231.398L230.315 188.159C228.937 187.445 227.333 186.435 226.009 185.171C224.898 184.11 222.885 181.828 223.09 178.626C223.325 174.947 226.175 172.916 228.423 171.91C229.844 171.274 231.576 170.773 233.617 170.383ZM256.366 201.513L220.354 199.738C218.188 200.067 215.011 200.751 212.139 201.778C210.602 202.328 209.299 202.925 208.329 203.529C207.853 203.826 207.514 204.089 207.287 204.302C207.442 204.565 207.714 204.945 208.17 205.429C209.319 206.649 210.965 207.83 212.408 208.682H244.688C248.546 206.285 252.441 203.893 256.366 201.513ZM502.097 301.484C509.302 295.982 515.734 289.113 521.704 281.608L521.789 281.501L521.881 281.398C524.669 278.263 526.717 275.679 528.463 273.221H526.435C521.357 281.318 512.947 292.05 502.097 301.484ZM447.922 305.15C449.783 295.172 452.484 286.222 455.826 278.148C452.582 275.672 446.587 271.814 436.175 267.425C427.669 263.839 416.214 259.899 400.904 256.072C386.957 252.585 365.515 254.708 342.689 259.551C320.108 264.342 297.04 271.594 280.32 277.653C276.7 278.965 273.386 280.218 270.447 281.374L270.382 281.4L270.315 281.424C267.589 282.408 263.345 283.953 258.969 285.568C285.699 283.893 320.647 282.88 354.174 284.792C374.6 285.956 394.626 288.214 412.002 292.116C425.776 295.209 438.226 299.408 447.922 305.15ZM357.751 153.632C358.951 153.062 360.177 152.494 361.421 151.935C360.213 150.809 359.252 149.519 358.485 148.13C358.275 150.169 358.03 151.995 357.751 153.632ZM485.117 107.721V100.221H461.587C461.275 100.499 461.152 100.735 461.088 100.893C460.944 101.24 460.836 101.857 461.01 102.89C461.263 104.393 461.994 106.1 462.898 107.721H485.117ZM723.691 7.74854C723.691 7.74854 723.674 7.76308 723.628 7.78962C723.667 7.76138 723.691 7.74854 723.691 7.74854ZM1111.72 143.267C1106.8 155.906 1104.4 172.297 1105.11 185.96C1105.74 198.098 1107.34 211.6 1111.16 221.926C1115.04 232.429 1120.39 237.721 1127.62 237.721C1134.77 237.721 1139.88 232.511 1143.59 221.956C1147.24 211.574 1148.71 198.057 1149.63 185.846C1150.65 172.282 1150.01 156.551 1146.58 144.223C1143.04 131.49 1137.32 124.741 1129.76 124.208C1126.65 123.989 1123.54 125.289 1120.37 128.553C1117.14 131.876 1114.17 136.939 1111.72 143.267ZM1117.11 171.655C1115.77 174.67 1115.12 178.984 1115.12 182.721C1115.12 184.629 1115.93 187.32 1117.33 189.309C1118.79 191.376 1119.81 191.382 1120.15 191.315C1121.12 191.124 1122.16 190.429 1123.17 188.692C1124.19 186.93 1124.88 184.549 1125.15 182.16C1125.52 178.882 1125.2 175.282 1124.16 172.577C1123.13 169.915 1121.78 168.889 1120.33 168.658C1119.66 168.552 1119.32 168.688 1118.96 168.958C1118.46 169.341 1117.78 170.16 1117.11 171.655ZM1112.92 160.987C1115.4 159.114 1118.48 158.237 1121.9 158.783C1128.13 159.774 1131.72 164.383 1133.49 168.982C1135.25 173.538 1135.59 178.827 1135.09 183.281C1134.71 186.625 1133.72 190.435 1131.82 193.711C1129.91 197.011 1126.78 200.199 1122.09 201.126C1116.1 202.308 1111.62 198.565 1109.16 195.069C1106.64 191.496 1105.12 186.812 1105.12 182.721C1105.12 178.162 1105.87 172.323 1107.98 167.587C1109.04 165.206 1110.6 162.749 1112.92 160.987ZM645.321 186.933C635.237 177.139 624.651 174.938 619.762 176.088C613.378 177.59 604.546 180.897 596.862 190.684C589.12 200.544 582.109 217.535 580.62 247.275C581.427 275.646 588.471 294.231 596.951 305.412C605.483 316.662 615.304 320.313 622.201 319.738L622.409 319.721H622.617C631.758 319.721 641.646 316.553 649.696 305.47C657.949 294.109 664.605 273.972 665.613 239.287C664.135 212.97 655.118 196.448 645.321 186.933ZM623.74 244.324C622.284 237.888 618.185 234.667 614.264 235.179C612.127 235.458 610.523 236.632 609.349 238.654C608.11 240.788 607.448 243.778 607.61 246.966C607.783 250.361 608.811 253.693 610.365 255.866C611.782 257.848 613.336 258.587 615.363 258.278C621.468 257.347 625.277 251.118 623.74 244.324ZM612.97 225.263C624.422 223.769 631.529 233.433 633.494 242.118C636.021 253.291 629.933 266.171 616.871 268.164C610.297 269.167 605.309 265.988 602.231 261.683C599.289 257.57 597.867 252.246 597.623 247.475C597.383 242.767 598.3 237.768 600.701 233.633C603.168 229.384 607.265 226.007 612.97 225.263Z" fill="white"/>
<path d="M53.9603 537L103.1 411H130.46L179.6 537H157.46L144.14 501.72H89.2403L75.9203 537H53.9603ZM96.0803 484.08H137.3L116.78 429.72L96.0803 484.08Z" fill="white"/>
<path d="M203.034 537V411H223.554V518.1H273.234V537H203.034Z" fill="white"/>
<path d="M298.835 537V411H337.535C363.995 411 380.195 425.04 380.195 447.36C380.195 469.68 363.995 483.72 337.535 483.72H319.355V537H298.835ZM338.435 428.46H319.355V466.26H338.435C351.215 466.26 358.775 459.06 358.775 447C358.775 435.66 351.215 428.46 338.435 428.46Z" fill="white"/>
<path d="M404.655 537V411H425.175V537H404.655Z" fill="white"/>
<path d="M464.069 537V411H490.709L555.509 510.54V411H576.209V537H549.389L484.589 437.46V537H464.069Z" fill="white"/>
<path d="M614.89 537V411H685.09V428.46H635.41V464.1H677.89V481.56H635.41V519.54H685.09V537H614.89Z" fill="white"/>
<path d="M766.413 537V411H836.613V428.46H786.933V464.1H829.413V481.56H786.933V537H766.413Z" fill="white"/>
<path d="M834.253 537L883.393 411H910.753L959.893 537H937.753L924.433 501.72H869.533L856.213 537H834.253ZM876.373 484.08H917.593L897.073 429.72L876.373 484.08Z" fill="white"/>
<path d="M983.327 537V411H1009.97L1074.77 510.54V411H1095.47V537H1068.65L1003.85 437.46V537H983.327Z" fill="white"/>
</svg>
