<svg width="85" height="40" viewBox="0 0 85 40" fill="none" xmlns="http://www.w3.org/2000/svg">
<path d="M8.17401 8.40341L6.63423 8.67614C6.56984 8.47917 6.46757 8.29167 6.32741 8.11364C6.19105 7.93561 6.00545 7.78977 5.7706 7.67614C5.53575 7.5625 5.24219 7.50568 4.88991 7.50568C4.40885 7.50568 4.00734 7.61364 3.68537 7.82955C3.3634 8.04167 3.20241 8.31629 3.20241 8.65341C3.20241 8.94508 3.31037 9.17992 3.52628 9.35795C3.74219 9.53598 4.09067 9.68182 4.57173 9.79545L5.9581 10.1136C6.76113 10.2992 7.35961 10.5852 7.75355 10.9716C8.14749 11.358 8.34446 11.8598 8.34446 12.4773C8.34446 13 8.19295 13.4659 7.88991 13.875C7.59067 14.2803 7.17211 14.5985 6.63423 14.8295C6.10014 15.0606 5.48082 15.1761 4.77628 15.1761C3.79901 15.1761 3.00166 14.9678 2.38423 14.5511C1.76681 14.1307 1.38802 13.5341 1.24787 12.7614L2.88991 12.5114C2.99219 12.9394 3.20241 13.2633 3.5206 13.483C3.83878 13.6989 4.25355 13.8068 4.76491 13.8068C5.32173 13.8068 5.76681 13.6913 6.10014 13.4602C6.43348 13.2254 6.60014 12.9394 6.60014 12.6023C6.60014 12.3295 6.49787 12.1004 6.29332 11.9148C6.09257 11.7292 5.78385 11.589 5.36719 11.4943L3.88991 11.1705C3.07552 10.9848 2.47325 10.6894 2.0831 10.2841C1.69673 9.87879 1.50355 9.36553 1.50355 8.74432C1.50355 8.22917 1.64749 7.77841 1.93537 7.39205C2.22325 7.00568 2.62098 6.70455 3.12855 6.48864C3.63613 6.26894 4.21757 6.15909 4.87287 6.15909C5.81605 6.15909 6.55848 6.36364 7.10014 6.77273C7.64181 7.17803 7.99976 7.72159 8.17401 8.40341ZM11.9112 9.81818V15H10.2124V3.36364H11.8885V7.69318H11.9964C12.201 7.22348 12.5135 6.85038 12.9339 6.57386C13.3544 6.29735 13.9036 6.15909 14.5817 6.15909C15.1802 6.15909 15.7029 6.2822 16.1499 6.52841C16.6006 6.77462 16.9491 7.14205 17.1953 7.63068C17.4453 8.11553 17.5703 8.72159 17.5703 9.44886V15H15.8714V9.65341C15.8714 9.01326 15.7067 8.51705 15.3771 8.16477C15.0476 7.80871 14.5893 7.63068 14.0021 7.63068C13.6006 7.63068 13.2408 7.71591 12.9226 7.88636C12.6082 8.05682 12.3601 8.30682 12.1783 8.63636C12.0002 8.96212 11.9112 9.35606 11.9112 9.81818ZM23.5135 15.1761C22.6953 15.1761 21.9813 14.9886 21.3714 14.6136C20.7616 14.2386 20.2881 13.714 19.951 13.0398C19.6139 12.3655 19.4453 11.5777 19.4453 10.6761C19.4453 9.77083 19.6139 8.97917 19.951 8.30114C20.2881 7.62311 20.7616 7.09659 21.3714 6.72159C21.9813 6.34659 22.6953 6.15909 23.5135 6.15909C24.3317 6.15909 25.0457 6.34659 25.6555 6.72159C26.2654 7.09659 26.7389 7.62311 27.076 8.30114C27.4131 8.97917 27.5817 9.77083 27.5817 10.6761C27.5817 11.5777 27.4131 12.3655 27.076 13.0398C26.7389 13.714 26.2654 14.2386 25.6555 14.6136C25.0457 14.9886 24.3317 15.1761 23.5135 15.1761ZM23.5192 13.75C24.0495 13.75 24.4889 13.6098 24.8374 13.3295C25.1858 13.0492 25.4434 12.6761 25.6101 12.2102C25.7805 11.7443 25.8658 11.2311 25.8658 10.6705C25.8658 10.1136 25.7805 9.60227 25.6101 9.13636C25.4434 8.66667 25.1858 8.28977 24.8374 8.00568C24.4889 7.72159 24.0495 7.57955 23.5192 7.57955C22.9851 7.57955 22.5419 7.72159 22.1896 8.00568C21.8411 8.28977 21.5817 8.66667 21.4112 9.13636C21.2446 9.60227 21.1612 10.1136 21.1612 10.6705C21.1612 11.2311 21.2446 11.7443 21.4112 12.2102C21.5817 12.6761 21.8411 13.0492 22.1896 13.3295C22.5419 13.6098 22.9851 13.75 23.5192 13.75ZM31.1044 15L28.5362 6.27273H30.2919L32.0021 12.6818H32.0874L33.8033 6.27273H35.5589L37.2635 12.6534H37.3487L39.0476 6.27273H40.8033L38.2408 15H36.5078L34.7351 8.69886H34.6044L32.8317 15H31.1044ZM46.6499 15V6.27273H48.2805V7.69318H48.3885C48.5703 7.21212 48.8677 6.83712 49.2805 6.56818C49.6934 6.29545 50.1877 6.15909 50.7635 6.15909C51.3468 6.15909 51.8355 6.29545 52.2294 6.56818C52.6271 6.84091 52.9207 7.21591 53.1101 7.69318H53.201C53.4093 7.22727 53.7408 6.85606 54.1953 6.57955C54.6499 6.29924 55.1915 6.15909 55.8203 6.15909C56.612 6.15909 57.2578 6.4072 57.7578 6.90341C58.2616 7.39962 58.5135 8.14773 58.5135 9.14773V15H56.8146V9.30682C56.8146 8.71591 56.6536 8.28788 56.3317 8.02273C56.0097 7.75758 55.6252 7.625 55.1783 7.625C54.6252 7.625 54.1953 7.79545 53.8885 8.13636C53.5817 8.47348 53.4283 8.9072 53.4283 9.4375V15H51.7351V9.19886C51.7351 8.72538 51.5874 8.3447 51.2919 8.05682C50.9964 7.76894 50.612 7.625 50.1385 7.625C49.8165 7.625 49.5192 7.71023 49.2464 7.88068C48.9775 8.04735 48.7597 8.2803 48.593 8.57955C48.4302 8.87879 48.3487 9.22538 48.3487 9.61932V15H46.6499ZM64.4666 15.1761C63.6484 15.1761 62.9344 14.9886 62.3246 14.6136C61.7147 14.2386 61.2412 13.714 60.9041 13.0398C60.567 12.3655 60.3984 11.5777 60.3984 10.6761C60.3984 9.77083 60.567 8.97917 60.9041 8.30114C61.2412 7.62311 61.7147 7.09659 62.3246 6.72159C62.9344 6.34659 63.6484 6.15909 64.4666 6.15909C65.2848 6.15909 65.9988 6.34659 66.6087 6.72159C67.2185 7.09659 67.692 7.62311 68.0291 8.30114C68.3662 8.97917 68.5348 9.77083 68.5348 10.6761C68.5348 11.5777 68.3662 12.3655 68.0291 13.0398C67.692 13.714 67.2185 14.2386 66.6087 14.6136C65.9988 14.9886 65.2848 15.1761 64.4666 15.1761ZM64.4723 13.75C65.0026 13.75 65.442 13.6098 65.7905 13.3295C66.139 13.0492 66.3965 12.6761 66.5632 12.2102C66.7337 11.7443 66.8189 11.2311 66.8189 10.6705C66.8189 10.1136 66.7337 9.60227 66.5632 9.13636C66.3965 8.66667 66.139 8.28977 65.7905 8.00568C65.442 7.72159 65.0026 7.57955 64.4723 7.57955C63.9382 7.57955 63.495 7.72159 63.1428 8.00568C62.7943 8.28977 62.5348 8.66667 62.3643 9.13636C62.1977 9.60227 62.1143 10.1136 62.1143 10.6705C62.1143 11.2311 62.1977 11.7443 62.3643 12.2102C62.5348 12.6761 62.7943 13.0492 63.1428 13.3295C63.495 13.6098 63.9382 13.75 64.4723 13.75ZM70.4311 15V6.27273H72.0732V7.65909H72.1641C72.3232 7.18939 72.6035 6.82008 73.005 6.55114C73.4103 6.27841 73.8686 6.14205 74.38 6.14205C74.486 6.14205 74.611 6.14583 74.755 6.15341C74.9027 6.16098 75.0182 6.17045 75.1016 6.18182V7.80682C75.0334 7.78788 74.9122 7.76705 74.7379 7.74432C74.5637 7.7178 74.3894 7.70455 74.2152 7.70455C73.8137 7.70455 73.4557 7.78977 73.1413 7.96023C72.8307 8.12689 72.5845 8.35985 72.4027 8.65909C72.2209 8.95455 72.13 9.29167 72.13 9.67045V15H70.4311ZM80.0206 15.1761C79.1607 15.1761 78.4202 14.9924 77.799 14.625C77.1816 14.2538 76.7043 13.733 76.3672 13.0625C76.0339 12.3883 75.8672 11.5985 75.8672 10.6932C75.8672 9.79924 76.0339 9.01136 76.3672 8.32955C76.7043 7.64773 77.174 7.11553 77.7763 6.73295C78.3823 6.35038 79.0907 6.15909 79.9013 6.15909C80.3937 6.15909 80.871 6.24053 81.3331 6.40341C81.7952 6.56629 82.21 6.82197 82.5774 7.17045C82.9448 7.51894 83.2346 7.97159 83.4467 8.52841C83.6589 9.08144 83.7649 9.75379 83.7649 10.5455V11.1477H76.8274V9.875H82.1001C82.1001 9.42803 82.0092 9.0322 81.8274 8.6875C81.6456 8.33902 81.3899 8.06439 81.0604 7.86364C80.7346 7.66288 80.352 7.5625 79.9126 7.5625C79.4354 7.5625 79.0187 7.67992 78.6626 7.91477C78.3104 8.14583 78.0376 8.44886 77.8445 8.82386C77.6551 9.19508 77.5604 9.59848 77.5604 10.0341V11.0284C77.5604 11.6117 77.6626 12.108 77.8672 12.517C78.0755 12.9261 78.3653 13.2386 78.7365 13.4545C79.1077 13.6667 79.5414 13.7727 80.0376 13.7727C80.3596 13.7727 80.6532 13.7273 80.9183 13.6364C81.1835 13.5417 81.4126 13.4015 81.6058 13.2159C81.799 13.0303 81.9467 12.8011 82.049 12.5284L83.657 12.8182C83.5282 13.2917 83.2971 13.7064 82.9638 14.0625C82.6342 14.4148 82.2195 14.6894 81.7195 14.8864C81.2232 15.0795 80.657 15.1761 80.0206 15.1761Z" fill="#2C3E50"/>
<path d="M35 24L42 31L49 24" stroke="#2C3E50" stroke-width="2.5" stroke-linecap="round" stroke-linejoin="round"/>
<path d="M35 31L42 38L49 31" stroke="#2C3E50" stroke-width="2.5" stroke-linecap="round" stroke-linejoin="round"/>
</svg>
