<svg width="721" height="180" viewBox="0 0 721 180" fill="none" xmlns="http://www.w3.org/2000/svg">
<rect width="721" height="180" rx="10" fill="#34495E"/>
<rect width="721" height="180" rx="10" fill="url(#paint0_linear_1477_173)"/>
<path d="M240.182 113H225.114V66.4545H240.659C245.22 66.4545 249.136 67.3864 252.409 69.25C255.682 71.0985 258.189 73.7576 259.932 77.2273C261.689 80.6818 262.568 84.8258 262.568 89.6591C262.568 94.5076 261.682 98.6742 259.909 102.159C258.152 105.644 255.606 108.326 252.273 110.205C248.939 112.068 244.909 113 240.182 113ZM232.136 106.864H239.795C243.341 106.864 246.288 106.197 248.636 104.864C250.985 103.515 252.742 101.568 253.909 99.0227C255.076 96.4621 255.659 93.3409 255.659 89.6591C255.659 86.0076 255.076 82.9091 253.909 80.3636C252.758 77.8182 251.038 75.8864 248.75 74.5682C246.462 73.25 243.621 72.5909 240.227 72.5909H232.136V106.864ZM285.46 113.705C282.188 113.705 279.331 112.955 276.892 111.455C274.453 109.955 272.559 107.856 271.21 105.159C269.862 102.462 269.188 99.3106 269.188 95.7045C269.188 92.0833 269.862 88.9167 271.21 86.2045C272.559 83.4924 274.453 81.3864 276.892 79.8864C279.331 78.3864 282.188 77.6364 285.46 77.6364C288.733 77.6364 291.589 78.3864 294.028 79.8864C296.468 81.3864 298.362 83.4924 299.71 86.2045C301.059 88.9167 301.733 92.0833 301.733 95.7045C301.733 99.3106 301.059 102.462 299.71 105.159C298.362 107.856 296.468 109.955 294.028 111.455C291.589 112.955 288.733 113.705 285.46 113.705ZM285.483 108C287.604 108 289.362 107.439 290.756 106.318C292.15 105.197 293.18 103.705 293.847 101.841C294.528 99.9773 294.869 97.9242 294.869 95.6818C294.869 93.4545 294.528 91.4091 293.847 89.5455C293.18 87.6667 292.15 86.1591 290.756 85.0227C289.362 83.8864 287.604 83.3182 285.483 83.3182C283.347 83.3182 281.574 83.8864 280.165 85.0227C278.771 86.1591 277.733 87.6667 277.051 89.5455C276.384 91.4091 276.051 93.4545 276.051 95.6818C276.051 97.9242 276.384 99.9773 277.051 101.841C277.733 103.705 278.771 105.197 280.165 106.318C281.574 107.439 283.347 108 285.483 108ZM324.023 113.705C320.644 113.705 317.735 112.939 315.295 111.409C312.871 109.864 311.008 107.735 309.705 105.023C308.402 102.311 307.75 99.2045 307.75 95.7045C307.75 92.1591 308.417 89.0303 309.75 86.3182C311.083 83.5909 312.962 81.4621 315.386 79.9318C317.811 78.4015 320.667 77.6364 323.955 77.6364C326.606 77.6364 328.97 78.1288 331.045 79.1136C333.121 80.0833 334.795 81.447 336.068 83.2045C337.356 84.9621 338.121 87.0152 338.364 89.3636H331.75C331.386 87.7273 330.553 86.3182 329.25 85.1364C327.962 83.9545 326.235 83.3636 324.068 83.3636C322.174 83.3636 320.515 83.8636 319.091 84.8636C317.682 85.8485 316.583 87.2576 315.795 89.0909C315.008 90.9091 314.614 93.0606 314.614 95.5455C314.614 98.0909 315 100.288 315.773 102.136C316.545 103.985 317.636 105.417 319.045 106.432C320.47 107.447 322.144 107.955 324.068 107.955C325.356 107.955 326.523 107.72 327.568 107.25C328.629 106.765 329.515 106.076 330.227 105.182C330.955 104.288 331.462 103.212 331.75 101.955H338.364C338.121 104.212 337.386 106.227 336.159 108C334.932 109.773 333.288 111.167 331.227 112.182C329.182 113.197 326.78 113.705 324.023 113.705ZM367.744 98.5227V78.0909H374.562V113H367.881V106.955H367.517C366.714 108.818 365.426 110.371 363.653 111.614C361.896 112.841 359.706 113.455 357.085 113.455C354.843 113.455 352.858 112.962 351.131 111.977C349.419 110.977 348.07 109.5 347.085 107.545C346.116 105.591 345.631 103.174 345.631 100.295V78.0909H352.426V99.4773C352.426 101.856 353.085 103.75 354.403 105.159C355.722 106.568 357.434 107.273 359.54 107.273C360.813 107.273 362.078 106.955 363.335 106.318C364.608 105.682 365.661 104.72 366.494 103.432C367.343 102.144 367.759 100.508 367.744 98.5227ZM383.693 113V78.0909H390.216V83.7727H390.648C391.375 81.8485 392.564 80.3485 394.216 79.2727C395.867 78.1818 397.845 77.6364 400.148 77.6364C402.481 77.6364 404.436 78.1818 406.011 79.2727C407.602 80.3636 408.777 81.8636 409.534 83.7727H409.898C410.731 81.9091 412.057 80.4242 413.875 79.3182C415.693 78.197 417.86 77.6364 420.375 77.6364C423.542 77.6364 426.125 78.6288 428.125 80.6136C430.14 82.5985 431.148 85.5909 431.148 89.5909V113H424.352V90.2273C424.352 87.8636 423.708 86.1515 422.42 85.0909C421.133 84.0303 419.595 83.5 417.807 83.5C415.595 83.5 413.875 84.1818 412.648 85.5455C411.42 86.8939 410.807 88.6288 410.807 90.75V113H404.034V89.7955C404.034 87.9015 403.443 86.3788 402.261 85.2273C401.08 84.0758 399.542 83.5 397.648 83.5C396.36 83.5 395.17 83.8409 394.08 84.5227C393.004 85.1894 392.133 86.1212 391.466 87.3182C390.814 88.5152 390.489 89.9015 390.489 91.4773V113H383.693ZM455.301 113.705C451.862 113.705 448.9 112.97 446.415 111.5C443.945 110.015 442.036 107.932 440.688 105.25C439.354 102.553 438.688 99.3939 438.688 95.7727C438.688 92.197 439.354 89.0455 440.688 86.3182C442.036 83.5909 443.915 81.4621 446.324 79.9318C448.748 78.4015 451.581 77.6364 454.824 77.6364C456.794 77.6364 458.703 77.9621 460.551 78.6136C462.4 79.2652 464.059 80.2879 465.528 81.6818C466.998 83.0758 468.157 84.8864 469.006 87.1136C469.854 89.3258 470.278 92.0152 470.278 95.1818V97.5909H442.528V92.5H463.619C463.619 90.7121 463.256 89.1288 462.528 87.75C461.801 86.3561 460.778 85.2576 459.46 84.4545C458.157 83.6515 456.627 83.25 454.869 83.25C452.96 83.25 451.294 83.7197 449.869 84.6591C448.46 85.5833 447.369 86.7955 446.597 88.2955C445.839 89.7803 445.46 91.3939 445.46 93.1364V97.1136C445.46 99.447 445.869 101.432 446.688 103.068C447.521 104.705 448.68 105.955 450.165 106.818C451.65 107.667 453.384 108.091 455.369 108.091C456.657 108.091 457.831 107.909 458.892 107.545C459.953 107.167 460.869 106.606 461.642 105.864C462.415 105.121 463.006 104.205 463.415 103.114L469.847 104.273C469.331 106.167 468.407 107.826 467.074 109.25C465.756 110.659 464.097 111.758 462.097 112.545C460.112 113.318 457.847 113.705 455.301 113.705ZM484.614 92.2727V113H477.818V78.0909H484.341V83.7727H484.773C485.576 81.9242 486.833 80.4394 488.545 79.3182C490.273 78.197 492.447 77.6364 495.068 77.6364C497.447 77.6364 499.53 78.1364 501.318 79.1364C503.106 80.1212 504.492 81.5909 505.477 83.5455C506.462 85.5 506.955 87.9167 506.955 90.7955V113H500.159V91.6136C500.159 89.0833 499.5 87.1061 498.182 85.6818C496.864 84.2424 495.053 83.5227 492.75 83.5227C491.174 83.5227 489.773 83.8636 488.545 84.5455C487.333 85.2273 486.371 86.2273 485.659 87.5455C484.962 88.8485 484.614 90.4242 484.614 92.2727ZM532.364 78.0909V83.5455H513.295V78.0909H532.364ZM518.409 69.7273H525.205V102.75C525.205 104.068 525.402 105.061 525.795 105.727C526.189 106.379 526.697 106.826 527.318 107.068C527.955 107.295 528.644 107.409 529.386 107.409C529.932 107.409 530.409 107.371 530.818 107.295C531.227 107.22 531.545 107.159 531.773 107.114L533 112.727C532.606 112.879 532.045 113.03 531.318 113.182C530.591 113.348 529.682 113.439 528.591 113.455C526.803 113.485 525.136 113.167 523.591 112.5C522.045 111.833 520.795 110.803 519.841 109.409C518.886 108.015 518.409 106.265 518.409 104.159V69.7273ZM550.04 113.773C547.828 113.773 545.828 113.364 544.04 112.545C542.252 111.712 540.835 110.508 539.79 108.932C538.759 107.356 538.244 105.424 538.244 103.136C538.244 101.167 538.623 99.5455 539.381 98.2727C540.138 97 541.161 95.9924 542.449 95.25C543.737 94.5076 545.176 93.947 546.767 93.5682C548.358 93.1894 549.979 92.9015 551.631 92.7045C553.722 92.4621 555.419 92.2652 556.722 92.1136C558.025 91.947 558.972 91.6818 559.562 91.3182C560.153 90.9545 560.449 90.3636 560.449 89.5455V89.3864C560.449 87.4015 559.888 85.8636 558.767 84.7727C557.661 83.6818 556.009 83.1364 553.812 83.1364C551.525 83.1364 549.722 83.6439 548.403 84.6591C547.1 85.6591 546.199 86.7727 545.699 88L539.312 86.5455C540.07 84.4242 541.176 82.7121 542.631 81.4091C544.1 80.0909 545.79 79.1364 547.699 78.5455C549.608 77.9394 551.616 77.6364 553.722 77.6364C555.116 77.6364 556.593 77.803 558.153 78.1364C559.729 78.4545 561.199 79.0455 562.562 79.9091C563.941 80.7727 565.07 82.0076 565.949 83.6136C566.828 85.2045 567.267 87.2727 567.267 89.8182V113H560.631V108.227H560.358C559.919 109.106 559.259 109.97 558.381 110.818C557.502 111.667 556.373 112.371 554.994 112.932C553.616 113.492 551.964 113.773 550.04 113.773ZM551.517 108.318C553.396 108.318 555.002 107.947 556.335 107.205C557.684 106.462 558.706 105.492 559.403 104.295C560.116 103.083 560.472 101.788 560.472 100.409V95.9091C560.229 96.1515 559.759 96.3788 559.062 96.5909C558.381 96.7879 557.6 96.9621 556.722 97.1136C555.843 97.25 554.987 97.3788 554.153 97.5C553.32 97.6061 552.623 97.697 552.062 97.7727C550.744 97.9394 549.54 98.2197 548.449 98.6136C547.373 99.0076 546.509 99.5758 545.858 100.318C545.222 101.045 544.903 102.015 544.903 103.227C544.903 104.909 545.525 106.182 546.767 107.045C548.009 107.894 549.593 108.318 551.517 108.318ZM592.614 78.0909V83.5455H573.545V78.0909H592.614ZM578.659 69.7273H585.455V102.75C585.455 104.068 585.652 105.061 586.045 105.727C586.439 106.379 586.947 106.826 587.568 107.068C588.205 107.295 588.894 107.409 589.636 107.409C590.182 107.409 590.659 107.371 591.068 107.295C591.477 107.22 591.795 107.159 592.023 107.114L593.25 112.727C592.856 112.879 592.295 113.03 591.568 113.182C590.841 113.348 589.932 113.439 588.841 113.455C587.053 113.485 585.386 113.167 583.841 112.5C582.295 111.833 581.045 110.803 580.091 109.409C579.136 108.015 578.659 106.265 578.659 104.159V69.7273ZM600.131 113V78.0909H606.926V113H600.131ZM603.562 72.7045C602.381 72.7045 601.366 72.3106 600.517 71.5227C599.684 70.7197 599.267 69.7651 599.267 68.6591C599.267 67.5379 599.684 66.5833 600.517 65.7955C601.366 64.9924 602.381 64.5909 603.562 64.5909C604.744 64.5909 605.752 64.9924 606.585 65.7955C607.434 66.5833 607.858 67.5379 607.858 68.6591C607.858 69.7651 607.434 70.7197 606.585 71.5227C605.752 72.3106 604.744 72.7045 603.562 72.7045ZM630.773 113.705C627.5 113.705 624.644 112.955 622.205 111.455C619.765 109.955 617.871 107.856 616.523 105.159C615.174 102.462 614.5 99.3106 614.5 95.7045C614.5 92.0833 615.174 88.9167 616.523 86.2045C617.871 83.4924 619.765 81.3864 622.205 79.8864C624.644 78.3864 627.5 77.6364 630.773 77.6364C634.045 77.6364 636.902 78.3864 639.341 79.8864C641.78 81.3864 643.674 83.4924 645.023 86.2045C646.371 88.9167 647.045 92.0833 647.045 95.7045C647.045 99.3106 646.371 102.462 645.023 105.159C643.674 107.856 641.78 109.955 639.341 111.455C636.902 112.955 634.045 113.705 630.773 113.705ZM630.795 108C632.917 108 634.674 107.439 636.068 106.318C637.462 105.197 638.492 103.705 639.159 101.841C639.841 99.9773 640.182 97.9242 640.182 95.6818C640.182 93.4545 639.841 91.4091 639.159 89.5455C638.492 87.6667 637.462 86.1591 636.068 85.0227C634.674 83.8864 632.917 83.3182 630.795 83.3182C628.659 83.3182 626.886 83.8864 625.477 85.0227C624.083 86.1591 623.045 87.6667 622.364 89.5455C621.697 91.4091 621.364 93.4545 621.364 95.6818C621.364 97.9242 621.697 99.9773 622.364 101.841C623.045 103.705 624.083 105.197 625.477 106.318C626.886 107.439 628.659 108 630.795 108ZM661.426 92.2727V113H654.631V78.0909H661.153V83.7727H661.585C662.388 81.9242 663.646 80.4394 665.358 79.3182C667.085 78.197 669.259 77.6364 671.881 77.6364C674.259 77.6364 676.343 78.1364 678.131 79.1364C679.919 80.1212 681.305 81.5909 682.29 83.5455C683.275 85.5 683.767 87.9167 683.767 90.7955V113H676.972V91.6136C676.972 89.0833 676.313 87.1061 674.994 85.6818C673.676 84.2424 671.866 83.5227 669.562 83.5227C667.987 83.5227 666.585 83.8636 665.358 84.5455C664.146 85.2273 663.184 86.2273 662.472 87.5455C661.775 88.8485 661.426 90.4242 661.426 92.2727Z" fill="white"/>
<path d="M65.25 20C50.7578 20 39 31.7578 39 46.25V133.75C39 148.242 50.7578 160 65.25 160H144H152.75C157.59 160 161.5 156.09 161.5 151.25C161.5 146.41 157.59 142.5 152.75 142.5V125C157.59 125 161.5 121.09 161.5 116.25V28.75C161.5 23.9102 157.59 20 152.75 20H144H65.25ZM65.25 125H135.25V142.5H65.25C60.4102 142.5 56.5 138.59 56.5 133.75C56.5 128.91 60.4102 125 65.25 125ZM74 59.375C74 56.9687 75.9687 55 78.375 55H130.875C133.281 55 135.25 56.9687 135.25 59.375C135.25 61.7813 133.281 63.75 130.875 63.75H78.375C75.9687 63.75 74 61.7813 74 59.375ZM78.375 72.5H130.875C133.281 72.5 135.25 74.4687 135.25 76.875C135.25 79.2813 133.281 81.25 130.875 81.25H78.375C75.9687 81.25 74 79.2813 74 76.875C74 74.4687 75.9687 72.5 78.375 72.5Z" stroke="white" stroke-width="5"/>
<defs>
<linearGradient id="paint0_linear_1477_173" x1="0" y1="0" x2="721" y2="180" gradientUnits="userSpaceOnUse">
<stop stop-color="#1ABC9C"/>
<stop offset="1" stop-color="#34495E"/>
</linearGradient>
</defs>
</svg>
