<svg width="721" height="180" viewBox="0 0 721 180" fill="none" xmlns="http://www.w3.org/2000/svg">
<rect width="721" height="180" rx="10" fill="#34495E"/>
<rect width="721" height="180" rx="10" fill="url(#paint0_linear_1477_169)"/>
<path d="M225.114 113V66.4545H254.295V72.5H232.136V86.6818H252.773V92.7045H232.136V106.955H254.568V113H225.114ZM268.494 78.0909L276.199 91.6818L283.972 78.0909H291.403L280.517 95.5455L291.494 113H284.062L276.199 99.9545L268.358 113H260.903L271.767 95.5455L261.04 78.0909H268.494ZM298.381 126.091V78.0909H305.017V83.75H305.585C305.979 83.0227 306.547 82.1818 307.29 81.2273C308.032 80.2727 309.063 79.4394 310.381 78.7273C311.699 78 313.441 77.6364 315.608 77.6364C318.426 77.6364 320.941 78.3485 323.153 79.7727C325.366 81.197 327.1 83.25 328.358 85.9318C329.631 88.6136 330.267 91.8409 330.267 95.6136C330.267 99.3864 329.638 102.621 328.381 105.318C327.123 108 325.396 110.068 323.199 111.523C321.002 112.962 318.494 113.682 315.676 113.682C313.555 113.682 311.82 113.326 310.472 112.614C309.138 111.902 308.093 111.068 307.335 110.114C306.578 109.159 305.994 108.311 305.585 107.568H305.176V126.091H298.381ZM305.04 95.5455C305.04 98 305.396 100.152 306.108 102C306.82 103.848 307.85 105.295 309.199 106.341C310.547 107.371 312.199 107.886 314.153 107.886C316.184 107.886 317.881 107.348 319.244 106.273C320.608 105.182 321.638 103.705 322.335 101.841C323.047 99.9773 323.403 97.8788 323.403 95.5455C323.403 93.2424 323.055 91.1742 322.358 89.3409C321.676 87.5076 320.646 86.0606 319.267 85C317.903 83.9394 316.199 83.4091 314.153 83.4091C312.184 83.4091 310.517 83.9167 309.153 84.9318C307.805 85.947 306.782 87.3636 306.085 89.1818C305.388 91 305.04 93.1212 305.04 95.5455ZM344.676 66.4545V113H337.881V66.4545H344.676ZM363.977 113.773C361.765 113.773 359.765 113.364 357.977 112.545C356.189 111.712 354.773 110.508 353.727 108.932C352.697 107.356 352.182 105.424 352.182 103.136C352.182 101.167 352.561 99.5455 353.318 98.2727C354.076 97 355.098 95.9924 356.386 95.25C357.674 94.5076 359.114 93.947 360.705 93.5682C362.295 93.1894 363.917 92.9015 365.568 92.7045C367.659 92.4621 369.356 92.2652 370.659 92.1136C371.962 91.947 372.909 91.6818 373.5 91.3182C374.091 90.9545 374.386 90.3636 374.386 89.5455V89.3864C374.386 87.4015 373.826 85.8636 372.705 84.7727C371.598 83.6818 369.947 83.1364 367.75 83.1364C365.462 83.1364 363.659 83.6439 362.341 84.6591C361.038 85.6591 360.136 86.7727 359.636 88L353.25 86.5455C354.008 84.4242 355.114 82.7121 356.568 81.4091C358.038 80.0909 359.727 79.1364 361.636 78.5455C363.545 77.9394 365.553 77.6364 367.659 77.6364C369.053 77.6364 370.53 77.803 372.091 78.1364C373.667 78.4545 375.136 79.0455 376.5 79.9091C377.879 80.7727 379.008 82.0076 379.886 83.6136C380.765 85.2045 381.205 87.2727 381.205 89.8182V113H374.568V108.227H374.295C373.856 109.106 373.197 109.97 372.318 110.818C371.439 111.667 370.311 112.371 368.932 112.932C367.553 113.492 365.902 113.773 363.977 113.773ZM365.455 108.318C367.333 108.318 368.939 107.947 370.273 107.205C371.621 106.462 372.644 105.492 373.341 104.295C374.053 103.083 374.409 101.788 374.409 100.409V95.9091C374.167 96.1515 373.697 96.3788 373 96.5909C372.318 96.7879 371.538 96.9621 370.659 97.1136C369.78 97.25 368.924 97.3788 368.091 97.5C367.258 97.6061 366.561 97.697 366 97.7727C364.682 97.9394 363.477 98.2197 362.386 98.6136C361.311 99.0076 360.447 99.5758 359.795 100.318C359.159 101.045 358.841 102.015 358.841 103.227C358.841 104.909 359.462 106.182 360.705 107.045C361.947 107.894 363.53 108.318 365.455 108.318ZM397.051 92.2727V113H390.256V78.0909H396.778V83.7727H397.21C398.013 81.9242 399.271 80.4394 400.983 79.3182C402.71 78.197 404.884 77.6364 407.506 77.6364C409.884 77.6364 411.968 78.1364 413.756 79.1364C415.544 80.1212 416.93 81.5909 417.915 83.5455C418.9 85.5 419.392 87.9167 419.392 90.7955V113H412.597V91.6136C412.597 89.0833 411.938 87.1061 410.619 85.6818C409.301 84.2424 407.491 83.5227 405.188 83.5227C403.612 83.5227 402.21 83.8636 400.983 84.5455C399.771 85.2273 398.809 86.2273 398.097 87.5455C397.4 88.8485 397.051 90.4242 397.051 92.2727ZM438.665 113.773C436.453 113.773 434.453 113.364 432.665 112.545C430.877 111.712 429.46 110.508 428.415 108.932C427.384 107.356 426.869 105.424 426.869 103.136C426.869 101.167 427.248 99.5455 428.006 98.2727C428.763 97 429.786 95.9924 431.074 95.25C432.362 94.5076 433.801 93.947 435.392 93.5682C436.983 93.1894 438.604 92.9015 440.256 92.7045C442.347 92.4621 444.044 92.2652 445.347 92.1136C446.65 91.947 447.597 91.6818 448.188 91.3182C448.778 90.9545 449.074 90.3636 449.074 89.5455V89.3864C449.074 87.4015 448.513 85.8636 447.392 84.7727C446.286 83.6818 444.634 83.1364 442.438 83.1364C440.15 83.1364 438.347 83.6439 437.028 84.6591C435.725 85.6591 434.824 86.7727 434.324 88L427.938 86.5455C428.695 84.4242 429.801 82.7121 431.256 81.4091C432.725 80.0909 434.415 79.1364 436.324 78.5455C438.233 77.9394 440.241 77.6364 442.347 77.6364C443.741 77.6364 445.218 77.803 446.778 78.1364C448.354 78.4545 449.824 79.0455 451.188 79.9091C452.566 80.7727 453.695 82.0076 454.574 83.6136C455.453 85.2045 455.892 87.2727 455.892 89.8182V113H449.256V108.227H448.983C448.544 109.106 447.884 109.97 447.006 110.818C446.127 111.667 444.998 112.371 443.619 112.932C442.241 113.492 440.589 113.773 438.665 113.773ZM440.142 108.318C442.021 108.318 443.627 107.947 444.96 107.205C446.309 106.462 447.331 105.492 448.028 104.295C448.741 103.083 449.097 101.788 449.097 100.409V95.9091C448.854 96.1515 448.384 96.3788 447.688 96.5909C447.006 96.7879 446.225 96.9621 445.347 97.1136C444.468 97.25 443.612 97.3788 442.778 97.5C441.945 97.6061 441.248 97.697 440.688 97.7727C439.369 97.9394 438.165 98.2197 437.074 98.6136C435.998 99.0076 435.134 99.5758 434.483 100.318C433.847 101.045 433.528 102.015 433.528 103.227C433.528 104.909 434.15 106.182 435.392 107.045C436.634 107.894 438.218 108.318 440.142 108.318ZM481.239 78.0909V83.5455H462.17V78.0909H481.239ZM467.284 69.7273H474.08V102.75C474.08 104.068 474.277 105.061 474.67 105.727C475.064 106.379 475.572 106.826 476.193 107.068C476.83 107.295 477.519 107.409 478.261 107.409C478.807 107.409 479.284 107.371 479.693 107.295C480.102 107.22 480.42 107.159 480.648 107.114L481.875 112.727C481.481 112.879 480.92 113.03 480.193 113.182C479.466 113.348 478.557 113.439 477.466 113.455C475.678 113.485 474.011 113.167 472.466 112.5C470.92 111.833 469.67 110.803 468.716 109.409C467.761 108.015 467.284 106.265 467.284 104.159V69.7273ZM488.756 113V78.0909H495.551V113H488.756ZM492.188 72.7045C491.006 72.7045 489.991 72.3106 489.142 71.5227C488.309 70.7197 487.892 69.7651 487.892 68.6591C487.892 67.5379 488.309 66.5833 489.142 65.7955C489.991 64.9924 491.006 64.5909 492.188 64.5909C493.369 64.5909 494.377 64.9924 495.21 65.7955C496.059 66.5833 496.483 67.5379 496.483 68.6591C496.483 69.7651 496.059 70.7197 495.21 71.5227C494.377 72.3106 493.369 72.7045 492.188 72.7045ZM519.398 113.705C516.125 113.705 513.269 112.955 510.83 111.455C508.39 109.955 506.496 107.856 505.148 105.159C503.799 102.462 503.125 99.3106 503.125 95.7045C503.125 92.0833 503.799 88.9167 505.148 86.2045C506.496 83.4924 508.39 81.3864 510.83 79.8864C513.269 78.3864 516.125 77.6364 519.398 77.6364C522.67 77.6364 525.527 78.3864 527.966 79.8864C530.405 81.3864 532.299 83.4924 533.648 86.2045C534.996 88.9167 535.67 92.0833 535.67 95.7045C535.67 99.3106 534.996 102.462 533.648 105.159C532.299 107.856 530.405 109.955 527.966 111.455C525.527 112.955 522.67 113.705 519.398 113.705ZM519.42 108C521.542 108 523.299 107.439 524.693 106.318C526.087 105.197 527.117 103.705 527.784 101.841C528.466 99.9773 528.807 97.9242 528.807 95.6818C528.807 93.4545 528.466 91.4091 527.784 89.5455C527.117 87.6667 526.087 86.1591 524.693 85.0227C523.299 83.8864 521.542 83.3182 519.42 83.3182C517.284 83.3182 515.511 83.8864 514.102 85.0227C512.708 86.1591 511.67 87.6667 510.989 89.5455C510.322 91.4091 509.989 93.4545 509.989 95.6818C509.989 97.9242 510.322 99.9773 510.989 101.841C511.67 103.705 512.708 105.197 514.102 106.318C515.511 107.439 517.284 108 519.42 108ZM550.051 92.2727V113H543.256V78.0909H549.778V83.7727H550.21C551.013 81.9242 552.271 80.4394 553.983 79.3182C555.71 78.197 557.884 77.6364 560.506 77.6364C562.884 77.6364 564.968 78.1364 566.756 79.1364C568.544 80.1212 569.93 81.5909 570.915 83.5455C571.9 85.5 572.392 87.9167 572.392 90.7955V113H565.597V91.6136C565.597 89.0833 564.938 87.1061 563.619 85.6818C562.301 84.2424 560.491 83.5227 558.188 83.5227C556.612 83.5227 555.21 83.8636 553.983 84.5455C552.771 85.2273 551.809 86.2273 551.097 87.5455C550.4 88.8485 550.051 90.4242 550.051 92.2727ZM607.665 86.6136L601.506 87.7045C601.248 86.9167 600.839 86.1667 600.278 85.4545C599.733 84.7424 598.991 84.1591 598.051 83.7045C597.112 83.25 595.938 83.0227 594.528 83.0227C592.604 83.0227 590.998 83.4545 589.71 84.3182C588.422 85.1667 587.778 86.2652 587.778 87.6136C587.778 88.7803 588.21 89.7197 589.074 90.4318C589.938 91.1439 591.331 91.7273 593.256 92.1818L598.801 93.4545C602.013 94.197 604.407 95.3409 605.983 96.8864C607.559 98.4318 608.347 100.439 608.347 102.909C608.347 105 607.741 106.864 606.528 108.5C605.331 110.121 603.657 111.394 601.506 112.318C599.369 113.242 596.892 113.705 594.074 113.705C590.165 113.705 586.975 112.871 584.506 111.205C582.036 109.523 580.521 107.136 579.96 104.045L586.528 103.045C586.938 104.758 587.778 106.053 589.051 106.932C590.324 107.795 591.983 108.227 594.028 108.227C596.256 108.227 598.036 107.765 599.369 106.841C600.703 105.902 601.369 104.758 601.369 103.409C601.369 102.318 600.96 101.402 600.142 100.659C599.339 99.9167 598.104 99.3561 596.438 98.9773L590.528 97.6818C587.271 96.9394 584.862 95.7576 583.301 94.1364C581.756 92.5152 580.983 90.4621 580.983 87.9773C580.983 85.9167 581.559 84.1136 582.71 82.5682C583.862 81.0227 585.453 79.8182 587.483 78.9545C589.513 78.0758 591.839 77.6364 594.46 77.6364C598.233 77.6364 601.203 78.4545 603.369 80.0909C605.536 81.7121 606.968 83.8864 607.665 86.6136Z" fill="white"/>
<path d="M48 33.125V153.355C48 157.02 50.9805 160 54.6445 160C56.0117 160 57.3516 159.59 58.4727 158.797L100.5 129.375L142.527 158.797C143.648 159.59 144.988 160 146.355 160C150.02 160 153 157.02 153 153.355V33.125C153 25.8789 147.121 20 139.875 20H61.125C53.8789 20 48 25.8789 48 33.125Z" stroke="white" stroke-width="5"/>
<defs>
<linearGradient id="paint0_linear_1477_169" x1="0" y1="0" x2="721" y2="180" gradientUnits="userSpaceOnUse">
<stop stop-color="#9B59B6"/>
<stop offset="1" stop-color="#34495E"/>
</linearGradient>
</defs>
</svg>
