<svg width="721" height="180" viewBox="0 0 721 180" fill="none" xmlns="http://www.w3.org/2000/svg">
<rect width="721" height="180" rx="10" fill="#34495E"/>
<rect width="721" height="180" rx="10" fill="url(#paint0_linear_1477_122)"/>
<path d="M225.114 113V66.4545H241.705C245.326 66.4545 248.326 67.1136 250.705 68.4318C253.083 69.75 254.864 71.553 256.045 73.8409C257.227 76.1136 257.818 78.6742 257.818 81.5227C257.818 84.3864 257.22 86.9621 256.023 89.25C254.841 91.5227 253.053 93.3258 250.659 94.6591C248.28 95.9773 245.288 96.6364 241.682 96.6364H230.273V90.6818H241.045C243.333 90.6818 245.189 90.2879 246.614 89.5C248.038 88.697 249.083 87.6061 249.75 86.2273C250.417 84.8485 250.75 83.2803 250.75 81.5227C250.75 79.7652 250.417 78.2045 249.75 76.8409C249.083 75.4773 248.03 74.4091 246.591 73.6364C245.167 72.8636 243.288 72.4773 240.955 72.4773H232.136V113H225.114ZM275.352 113.773C273.14 113.773 271.14 113.364 269.352 112.545C267.564 111.712 266.148 110.508 265.102 108.932C264.072 107.356 263.557 105.424 263.557 103.136C263.557 101.167 263.936 99.5455 264.693 98.2727C265.451 97 266.473 95.9924 267.761 95.25C269.049 94.5076 270.489 93.947 272.08 93.5682C273.67 93.1894 275.292 92.9015 276.943 92.7045C279.034 92.4621 280.731 92.2652 282.034 92.1136C283.337 91.947 284.284 91.6818 284.875 91.3182C285.466 90.9545 285.761 90.3636 285.761 89.5455V89.3864C285.761 87.4015 285.201 85.8636 284.08 84.7727C282.973 83.6818 281.322 83.1364 279.125 83.1364C276.837 83.1364 275.034 83.6439 273.716 84.6591C272.413 85.6591 271.511 86.7727 271.011 88L264.625 86.5455C265.383 84.4242 266.489 82.7121 267.943 81.4091C269.413 80.0909 271.102 79.1364 273.011 78.5455C274.92 77.9394 276.928 77.6364 279.034 77.6364C280.428 77.6364 281.905 77.803 283.466 78.1364C285.042 78.4545 286.511 79.0455 287.875 79.9091C289.254 80.7727 290.383 82.0076 291.261 83.6136C292.14 85.2045 292.58 87.2727 292.58 89.8182V113H285.943V108.227H285.67C285.231 109.106 284.572 109.97 283.693 110.818C282.814 111.667 281.686 112.371 280.307 112.932C278.928 113.492 277.277 113.773 275.352 113.773ZM276.83 108.318C278.708 108.318 280.314 107.947 281.648 107.205C282.996 106.462 284.019 105.492 284.716 104.295C285.428 103.083 285.784 101.788 285.784 100.409V95.9091C285.542 96.1515 285.072 96.3788 284.375 96.5909C283.693 96.7879 282.913 96.9621 282.034 97.1136C281.155 97.25 280.299 97.3788 279.466 97.5C278.633 97.6061 277.936 97.697 277.375 97.7727C276.057 97.9394 274.852 98.2197 273.761 98.6136C272.686 99.0076 271.822 99.5758 271.17 100.318C270.534 101.045 270.216 102.015 270.216 103.227C270.216 104.909 270.837 106.182 272.08 107.045C273.322 107.894 274.905 108.318 276.83 108.318ZM317.926 78.0909V83.5455H298.858V78.0909H317.926ZM303.972 69.7273H310.767V102.75C310.767 104.068 310.964 105.061 311.358 105.727C311.752 106.379 312.259 106.826 312.881 107.068C313.517 107.295 314.206 107.409 314.949 107.409C315.494 107.409 315.972 107.371 316.381 107.295C316.79 107.22 317.108 107.159 317.335 107.114L318.562 112.727C318.169 112.879 317.608 113.03 316.881 113.182C316.153 113.348 315.244 113.439 314.153 113.455C312.366 113.485 310.699 113.167 309.153 112.5C307.608 111.833 306.358 110.803 305.403 109.409C304.449 108.015 303.972 106.265 303.972 104.159V69.7273ZM339.773 113.705C336.394 113.705 333.485 112.939 331.045 111.409C328.621 109.864 326.758 107.735 325.455 105.023C324.152 102.311 323.5 99.2045 323.5 95.7045C323.5 92.1591 324.167 89.0303 325.5 86.3182C326.833 83.5909 328.712 81.4621 331.136 79.9318C333.561 78.4015 336.417 77.6364 339.705 77.6364C342.356 77.6364 344.72 78.1288 346.795 79.1136C348.871 80.0833 350.545 81.447 351.818 83.2045C353.106 84.9621 353.871 87.0152 354.114 89.3636H347.5C347.136 87.7273 346.303 86.3182 345 85.1364C343.712 83.9545 341.985 83.3636 339.818 83.3636C337.924 83.3636 336.265 83.8636 334.841 84.8636C333.432 85.8485 332.333 87.2576 331.545 89.0909C330.758 90.9091 330.364 93.0606 330.364 95.5455C330.364 98.0909 330.75 100.288 331.523 102.136C332.295 103.985 333.386 105.417 334.795 106.432C336.22 107.447 337.894 107.955 339.818 107.955C341.106 107.955 342.273 107.72 343.318 107.25C344.379 106.765 345.265 106.076 345.977 105.182C346.705 104.288 347.212 103.212 347.5 101.955H354.114C353.871 104.212 353.136 106.227 351.909 108C350.682 109.773 349.038 111.167 346.977 112.182C344.932 113.197 342.53 113.705 339.773 113.705ZM368.176 92.2727V113H361.381V66.4545H368.085V83.7727H368.517C369.335 81.8939 370.585 80.4015 372.267 79.2955C373.949 78.1894 376.146 77.6364 378.858 77.6364C381.252 77.6364 383.343 78.1288 385.131 79.1136C386.934 80.0985 388.328 81.5682 389.312 83.5227C390.312 85.4621 390.812 87.8864 390.812 90.7955V113H384.017V91.6136C384.017 89.053 383.358 87.0682 382.04 85.6591C380.722 84.2348 378.888 83.5227 376.54 83.5227C374.934 83.5227 373.494 83.8636 372.222 84.5455C370.964 85.2273 369.972 86.2273 369.244 87.5455C368.532 88.8485 368.176 90.4242 368.176 92.2727ZM420.449 90.3864V96.2727H399.812V90.3864H420.449ZM467.619 66.4545V113H461.165L437.506 78.8636H437.074V113H430.051V66.4545H436.551L460.233 100.636H460.665V66.4545H467.619ZM492.023 113.705C488.75 113.705 485.894 112.955 483.455 111.455C481.015 109.955 479.121 107.856 477.773 105.159C476.424 102.462 475.75 99.3106 475.75 95.7045C475.75 92.0833 476.424 88.9167 477.773 86.2045C479.121 83.4924 481.015 81.3864 483.455 79.8864C485.894 78.3864 488.75 77.6364 492.023 77.6364C495.295 77.6364 498.152 78.3864 500.591 79.8864C503.03 81.3864 504.924 83.4924 506.273 86.2045C507.621 88.9167 508.295 92.0833 508.295 95.7045C508.295 99.3106 507.621 102.462 506.273 105.159C504.924 107.856 503.03 109.955 500.591 111.455C498.152 112.955 495.295 113.705 492.023 113.705ZM492.045 108C494.167 108 495.924 107.439 497.318 106.318C498.712 105.197 499.742 103.705 500.409 101.841C501.091 99.9773 501.432 97.9242 501.432 95.6818C501.432 93.4545 501.091 91.4091 500.409 89.5455C499.742 87.6667 498.712 86.1591 497.318 85.0227C495.924 83.8864 494.167 83.3182 492.045 83.3182C489.909 83.3182 488.136 83.8864 486.727 85.0227C485.333 86.1591 484.295 87.6667 483.614 89.5455C482.947 91.4091 482.614 93.4545 482.614 95.6818C482.614 97.9242 482.947 99.9773 483.614 101.841C484.295 103.705 485.333 105.197 486.727 106.318C488.136 107.439 489.909 108 492.045 108ZM532.176 78.0909V83.5455H513.108V78.0909H532.176ZM518.222 69.7273H525.017V102.75C525.017 104.068 525.214 105.061 525.608 105.727C526.002 106.379 526.509 106.826 527.131 107.068C527.767 107.295 528.456 107.409 529.199 107.409C529.744 107.409 530.222 107.371 530.631 107.295C531.04 107.22 531.358 107.159 531.585 107.114L532.812 112.727C532.419 112.879 531.858 113.03 531.131 113.182C530.403 113.348 529.494 113.439 528.403 113.455C526.616 113.485 524.949 113.167 523.403 112.5C521.858 111.833 520.608 110.803 519.653 109.409C518.699 108.015 518.222 106.265 518.222 104.159V69.7273ZM554.364 113.705C550.924 113.705 547.962 112.97 545.477 111.5C543.008 110.015 541.098 107.932 539.75 105.25C538.417 102.553 537.75 99.3939 537.75 95.7727C537.75 92.197 538.417 89.0455 539.75 86.3182C541.098 83.5909 542.977 81.4621 545.386 79.9318C547.811 78.4015 550.644 77.6364 553.886 77.6364C555.856 77.6364 557.765 77.9621 559.614 78.6136C561.462 79.2652 563.121 80.2879 564.591 81.6818C566.061 83.0758 567.22 84.8864 568.068 87.1136C568.917 89.3258 569.341 92.0152 569.341 95.1818V97.5909H541.591V92.5H562.682C562.682 90.7121 562.318 89.1288 561.591 87.75C560.864 86.3561 559.841 85.2576 558.523 84.4545C557.22 83.6515 555.689 83.25 553.932 83.25C552.023 83.25 550.356 83.7197 548.932 84.6591C547.523 85.5833 546.432 86.7955 545.659 88.2955C544.902 89.7803 544.523 91.3939 544.523 93.1364V97.1136C544.523 99.447 544.932 101.432 545.75 103.068C546.583 104.705 547.742 105.955 549.227 106.818C550.712 107.667 552.447 108.091 554.432 108.091C555.72 108.091 556.894 107.909 557.955 107.545C559.015 107.167 559.932 106.606 560.705 105.864C561.477 105.121 562.068 104.205 562.477 103.114L568.909 104.273C568.394 106.167 567.47 107.826 566.136 109.25C564.818 110.659 563.159 111.758 561.159 112.545C559.174 113.318 556.909 113.705 554.364 113.705ZM603.04 86.6136L596.881 87.7045C596.623 86.9167 596.214 86.1667 595.653 85.4545C595.108 84.7424 594.366 84.1591 593.426 83.7045C592.487 83.25 591.313 83.0227 589.903 83.0227C587.979 83.0227 586.373 83.4545 585.085 84.3182C583.797 85.1667 583.153 86.2652 583.153 87.6136C583.153 88.7803 583.585 89.7197 584.449 90.4318C585.313 91.1439 586.706 91.7273 588.631 92.1818L594.176 93.4545C597.388 94.197 599.782 95.3409 601.358 96.8864C602.934 98.4318 603.722 100.439 603.722 102.909C603.722 105 603.116 106.864 601.903 108.5C600.706 110.121 599.032 111.394 596.881 112.318C594.744 113.242 592.267 113.705 589.449 113.705C585.54 113.705 582.35 112.871 579.881 111.205C577.411 109.523 575.896 107.136 575.335 104.045L581.903 103.045C582.313 104.758 583.153 106.053 584.426 106.932C585.699 107.795 587.358 108.227 589.403 108.227C591.631 108.227 593.411 107.765 594.744 106.841C596.078 105.902 596.744 104.758 596.744 103.409C596.744 102.318 596.335 101.402 595.517 100.659C594.714 99.9167 593.479 99.3561 591.812 98.9773L585.903 97.6818C582.646 96.9394 580.237 95.7576 578.676 94.1364C577.131 92.5152 576.358 90.4621 576.358 87.9773C576.358 85.9167 576.934 84.1136 578.085 82.5682C579.237 81.0227 580.828 79.8182 582.858 78.9545C584.888 78.0758 587.214 77.6364 589.835 77.6364C593.608 77.6364 596.578 78.4545 598.744 80.0909C600.911 81.7121 602.343 83.8864 603.04 86.6136Z" fill="white"/>
<path d="M51.4987 21.3671C48.9012 19.3436 45.21 19.5897 42.8586 21.9139L31.9217 32.8514C29.5976 35.1757 29.3515 38.8671 31.3475 41.4921L53.2213 69.9296C54.4517 71.5428 56.393 72.4999 58.4163 72.4999H73.2085L103.012 102.305C98.9922 110.234 100.277 120.187 106.921 126.805L137.545 157.43C140.963 160.848 146.513 160.848 149.931 157.43L167.43 139.93C170.848 136.512 170.848 130.961 167.43 127.543L136.807 96.9178C130.19 90.3007 120.237 88.9882 112.308 93.0077L82.5048 63.203V48.4374C82.5048 46.3866 81.5479 44.4725 79.9347 43.2421L51.4987 21.3671ZM35.4489 128.308C31.9764 131.781 30.0077 136.512 30.0077 141.433C30.0077 151.687 38.3198 160 48.5731 160C53.4947 160 58.2249 158.031 61.6974 154.558L93.9066 122.348C91.7739 116.633 91.4458 110.426 92.9222 104.547L76.0521 87.6757L35.4489 128.308ZM170 59.3749C170 56.5038 169.699 53.7147 169.125 51.035C168.469 47.9725 164.723 47.1796 162.508 49.3944L145.037 66.8671C144.216 67.6874 143.095 68.1522 141.947 68.1522H126.252C123.846 68.1522 121.878 66.1835 121.878 63.7772V48.0546C121.878 46.9061 122.342 45.785 123.163 44.9647L140.634 27.4921C142.849 25.2772 142.056 21.5311 138.994 20.8749C136.287 20.3007 133.498 19.9999 130.627 19.9999C108.89 19.9999 91.2544 37.6366 91.2544 59.3749V59.5936L114.577 82.9178C124.42 80.4296 135.303 83.0546 143.013 90.7655L147.306 95.0585C160.704 88.7694 170 75.1522 170 59.3749ZM45.3194 138.125C45.3194 136.384 46.0108 134.715 47.2414 133.484C48.472 132.254 50.1412 131.562 51.8815 131.562C53.6219 131.562 55.291 132.254 56.5217 133.484C57.7523 134.715 58.4437 136.384 58.4437 138.125C58.4437 139.865 57.7523 141.535 56.5217 142.765C55.291 143.996 53.6219 144.687 51.8815 144.687C50.1412 144.687 48.472 143.996 47.2414 142.765C46.0108 141.535 45.3194 139.865 45.3194 138.125Z" stroke="white" stroke-width="5"/>
<defs>
<linearGradient id="paint0_linear_1477_122" x1="0" y1="0" x2="721" y2="180" gradientUnits="userSpaceOnUse">
<stop stop-color="#85E9FF"/>
<stop offset="1" stop-color="#34495E"/>
</linearGradient>
</defs>
</svg>
