<svg width="721" height="180" viewBox="0 0 721 180" fill="none" xmlns="http://www.w3.org/2000/svg">
<rect width="721" height="180" rx="10" fill="#34495E"/>
<rect width="721" height="180" rx="10" fill="url(#paint0_linear_1477_163)"/>
<path d="M225.114 113V66.4545H241.705C245.311 66.4545 248.303 67.0758 250.682 68.3182C253.076 69.5606 254.864 71.2803 256.045 73.4773C257.227 75.6591 257.818 78.1818 257.818 81.0455C257.818 83.8939 257.22 86.4015 256.023 88.5682C254.841 90.7197 253.053 92.3939 250.659 93.5909C248.28 94.7879 245.288 95.3864 241.682 95.3864H229.114V89.3409H241.045C243.318 89.3409 245.167 89.0152 246.591 88.3636C248.03 87.7121 249.083 86.7652 249.75 85.5227C250.417 84.2803 250.75 82.7879 250.75 81.0455C250.75 79.2879 250.409 77.7651 249.727 76.4773C249.061 75.1894 248.008 74.2045 246.568 73.5227C245.144 72.8258 243.273 72.4773 240.955 72.4773H232.136V113H225.114ZM248.091 92L259.591 113H251.591L240.318 92H248.091ZM280.426 113.705C276.987 113.705 274.025 112.97 271.54 111.5C269.07 110.015 267.161 107.932 265.812 105.25C264.479 102.553 263.812 99.3939 263.812 95.7727C263.812 92.197 264.479 89.0455 265.812 86.3182C267.161 83.5909 269.04 81.4621 271.449 79.9318C273.873 78.4015 276.706 77.6364 279.949 77.6364C281.919 77.6364 283.828 77.9621 285.676 78.6136C287.525 79.2652 289.184 80.2879 290.653 81.6818C292.123 83.0758 293.282 84.8864 294.131 87.1136C294.979 89.3258 295.403 92.0152 295.403 95.1818V97.5909H267.653V92.5H288.744C288.744 90.7121 288.381 89.1288 287.653 87.75C286.926 86.3561 285.903 85.2576 284.585 84.4545C283.282 83.6515 281.752 83.25 279.994 83.25C278.085 83.25 276.419 83.7197 274.994 84.6591C273.585 85.5833 272.494 86.7955 271.722 88.2955C270.964 89.7803 270.585 91.3939 270.585 93.1364V97.1136C270.585 99.447 270.994 101.432 271.812 103.068C272.646 104.705 273.805 105.955 275.29 106.818C276.775 107.667 278.509 108.091 280.494 108.091C281.782 108.091 282.956 107.909 284.017 107.545C285.078 107.167 285.994 106.606 286.767 105.864C287.54 105.121 288.131 104.205 288.54 103.114L294.972 104.273C294.456 106.167 293.532 107.826 292.199 109.25C290.881 110.659 289.222 111.758 287.222 112.545C285.237 113.318 282.972 113.705 280.426 113.705ZM313.102 113.773C310.89 113.773 308.89 113.364 307.102 112.545C305.314 111.712 303.898 110.508 302.852 108.932C301.822 107.356 301.307 105.424 301.307 103.136C301.307 101.167 301.686 99.5455 302.443 98.2727C303.201 97 304.223 95.9924 305.511 95.25C306.799 94.5076 308.239 93.947 309.83 93.5682C311.42 93.1894 313.042 92.9015 314.693 92.7045C316.784 92.4621 318.481 92.2652 319.784 92.1136C321.087 91.947 322.034 91.6818 322.625 91.3182C323.216 90.9545 323.511 90.3636 323.511 89.5455V89.3864C323.511 87.4015 322.951 85.8636 321.83 84.7727C320.723 83.6818 319.072 83.1364 316.875 83.1364C314.587 83.1364 312.784 83.6439 311.466 84.6591C310.163 85.6591 309.261 86.7727 308.761 88L302.375 86.5455C303.133 84.4242 304.239 82.7121 305.693 81.4091C307.163 80.0909 308.852 79.1364 310.761 78.5455C312.67 77.9394 314.678 77.6364 316.784 77.6364C318.178 77.6364 319.655 77.803 321.216 78.1364C322.792 78.4545 324.261 79.0455 325.625 79.9091C327.004 80.7727 328.133 82.0076 329.011 83.6136C329.89 85.2045 330.33 87.2727 330.33 89.8182V113H323.693V108.227H323.42C322.981 109.106 322.322 109.97 321.443 110.818C320.564 111.667 319.436 112.371 318.057 112.932C316.678 113.492 315.027 113.773 313.102 113.773ZM314.58 108.318C316.458 108.318 318.064 107.947 319.398 107.205C320.746 106.462 321.769 105.492 322.466 104.295C323.178 103.083 323.534 101.788 323.534 100.409V95.9091C323.292 96.1515 322.822 96.3788 322.125 96.5909C321.443 96.7879 320.663 96.9621 319.784 97.1136C318.905 97.25 318.049 97.3788 317.216 97.5C316.383 97.6061 315.686 97.697 315.125 97.7727C313.807 97.9394 312.602 98.2197 311.511 98.6136C310.436 99.0076 309.572 99.5758 308.92 100.318C308.284 101.045 307.966 102.015 307.966 103.227C307.966 104.909 308.587 106.182 309.83 107.045C311.072 107.894 312.655 108.318 314.58 108.318ZM352.449 113.682C349.631 113.682 347.116 112.962 344.903 111.523C342.706 110.068 340.979 108 339.722 105.318C338.479 102.621 337.858 99.3864 337.858 95.6136C337.858 91.8409 338.487 88.6136 339.744 85.9318C341.017 83.25 342.759 81.197 344.972 79.7727C347.184 78.3485 349.691 77.6364 352.494 77.6364C354.661 77.6364 356.403 78 357.722 78.7273C359.055 79.4394 360.085 80.2727 360.812 81.2273C361.555 82.1818 362.131 83.0227 362.54 83.75H362.949V66.4545H369.744V113H363.108V107.568H362.54C362.131 108.311 361.54 109.159 360.767 110.114C360.009 111.068 358.964 111.902 357.631 112.614C356.297 113.326 354.57 113.682 352.449 113.682ZM353.949 107.886C355.903 107.886 357.555 107.371 358.903 106.341C360.267 105.295 361.297 103.848 361.994 102C362.706 100.152 363.062 98 363.062 95.5455C363.062 93.1212 362.714 91 362.017 89.1818C361.32 87.3636 360.297 85.947 358.949 84.9318C357.6 83.9167 355.934 83.4091 353.949 83.4091C351.903 83.4091 350.199 83.9394 348.835 85C347.472 86.0606 346.441 87.5076 345.744 89.3409C345.063 91.1742 344.722 93.2424 344.722 95.5455C344.722 97.8788 345.07 99.9773 345.767 101.841C346.464 103.705 347.494 105.182 348.858 106.273C350.237 107.348 351.934 107.886 353.949 107.886ZM400.011 90.3864V96.2727H379.375V90.3864H400.011ZM409.614 66.4545H418.136L432.955 102.636H433.5L448.318 66.4545H456.841V113H450.159V79.3182H449.727L436 112.932H430.455L416.727 79.2955H416.295V113H409.614V66.4545ZM481.551 113.705C478.112 113.705 475.15 112.97 472.665 111.5C470.195 110.015 468.286 107.932 466.938 105.25C465.604 102.553 464.938 99.3939 464.938 95.7727C464.938 92.197 465.604 89.0455 466.938 86.3182C468.286 83.5909 470.165 81.4621 472.574 79.9318C474.998 78.4015 477.831 77.6364 481.074 77.6364C483.044 77.6364 484.953 77.9621 486.801 78.6136C488.65 79.2652 490.309 80.2879 491.778 81.6818C493.248 83.0758 494.407 84.8864 495.256 87.1136C496.104 89.3258 496.528 92.0152 496.528 95.1818V97.5909H468.778V92.5H489.869C489.869 90.7121 489.506 89.1288 488.778 87.75C488.051 86.3561 487.028 85.2576 485.71 84.4545C484.407 83.6515 482.877 83.25 481.119 83.25C479.21 83.25 477.544 83.7197 476.119 84.6591C474.71 85.5833 473.619 86.7955 472.847 88.2955C472.089 89.7803 471.71 91.3939 471.71 93.1364V97.1136C471.71 99.447 472.119 101.432 472.938 103.068C473.771 104.705 474.93 105.955 476.415 106.818C477.9 107.667 479.634 108.091 481.619 108.091C482.907 108.091 484.081 107.909 485.142 107.545C486.203 107.167 487.119 106.606 487.892 105.864C488.665 105.121 489.256 104.205 489.665 103.114L496.097 104.273C495.581 106.167 494.657 107.826 493.324 109.25C492.006 110.659 490.347 111.758 488.347 112.545C486.362 113.318 484.097 113.705 481.551 113.705Z" fill="white"/>
<path d="M158.406 39H124.427C112.736 39 102.576 47.1436 100.024 58.6376C97.4479 47.1436 87.3125 39 75.6215 39H41.6667C35.2257 39 30 44.2579 30 50.7386V110.85C30 117.33 35.2257 122.588 41.6667 122.588H63.4688C88.309 122.588 95.7222 128.555 99.2708 140.93C99.441 141.615 100.535 141.615 100.729 140.93C104.302 128.555 111.715 122.588 136.531 122.588H158.333C164.774 122.588 170 117.33 170 110.85V50.763C170 44.3068 164.823 39.0489 158.406 39ZM88.8194 103.904C88.8194 104.369 88.4549 104.76 87.9688 104.76H49.0069C48.5451 104.76 48.1562 104.394 48.1562 103.904V98.3042C48.1562 97.8395 48.5208 97.4482 49.0069 97.4482H87.9931C88.4549 97.4482 88.8438 97.8151 88.8438 98.3042V103.904H88.8194ZM88.8194 89.0111C88.8194 89.4758 88.4549 89.8671 87.9688 89.8671H49.0069C48.5451 89.8671 48.1562 89.5002 48.1562 89.0111V83.4109C48.1562 82.9462 48.5208 82.5549 49.0069 82.5549H87.9931C88.4549 82.5549 88.8438 82.9218 88.8438 83.4109V89.0111H88.8194ZM88.8194 74.1179C88.8194 74.5825 88.4549 74.9738 87.9688 74.9738H49.0069C48.5451 74.9738 48.1562 74.607 48.1562 74.1179V68.5176C48.1562 68.0529 48.5208 67.6616 49.0069 67.6616H87.9931C88.4549 67.6616 88.8438 68.0285 88.8438 68.5176V74.1179H88.8194ZM151.844 103.88C151.844 104.345 151.479 104.736 150.993 104.736H112.031C111.569 104.736 111.181 104.369 111.181 103.88V98.2797C111.181 97.8151 111.545 97.4238 112.031 97.4238H151.017C151.479 97.4238 151.868 97.7906 151.868 98.2797V103.88H151.844ZM151.844 88.9867C151.844 89.4513 151.479 89.8426 150.993 89.8426H112.031C111.569 89.8426 111.181 89.4758 111.181 88.9867V83.3864C111.181 82.9218 111.545 82.5305 112.031 82.5305H151.017C151.479 82.5305 151.868 82.8973 151.868 83.3864V88.9867H151.844ZM151.844 74.0934C151.844 74.558 151.479 74.9493 150.993 74.9493H112.031C111.569 74.9493 111.181 74.5825 111.181 74.0934V68.5176C111.181 68.0529 111.545 67.6616 112.031 67.6616H151.017C151.479 67.6616 151.868 68.0285 151.868 68.5176V74.0934H151.844Z" stroke="white" stroke-width="5" stroke-linejoin="round"/>
<defs>
<linearGradient id="paint0_linear_1477_163" x1="0" y1="0" x2="721" y2="180" gradientUnits="userSpaceOnUse">
<stop stop-color="#2ECC71"/>
<stop offset="1" stop-color="#34495E"/>
</linearGradient>
</defs>
</svg>
