<svg width="1920" height="452" viewBox="0 0 1920 452" fill="none" xmlns="http://www.w3.org/2000/svg">
<g clip-path="url(#clip0_1478_193)">
<rect width="1920" height="452" fill="url(#paint0_linear_1478_193)"/>
<g filter="url(#filter0_i_1478_193)">
<path fill-rule="evenodd" clip-rule="evenodd" d="M3135.05 -1076.37L3184.4 -1070.88H3283.59C3283.25 -1072.61 3283.02 -1074.37 3282.92 -1076.15C3230.86 -1076.52 3172.43 -1076.73 3135.05 -1076.37ZM3333.47 -1075.22C3333.94 -1075.39 3334.43 -1075.56 3334.96 -1075.73C3341.48 -1075.66 3347.63 -1075.6 3353.3 -1075.54C3354.83 -1075.34 3356.5 -1075.1 3358.27 -1074.82C3351.1 -1073.63 3344.01 -1072.6 3337.55 -1071.77C3336.11 -1072.88 3334.73 -1074.04 3333.47 -1075.22ZM3264.37 -1024.43H3204.21C3204.08 -1023.3 3203.95 -1022.16 3203.8 -1021.04C3203.14 -1016.19 3201.89 -1009.05 3198.67 -1002.58C3197.59 -1000.4 3196.01 -997.843 3193.88 -995.363C3196.06 -994.756 3198.2 -994.103 3200.3 -993.406L3264.37 -997.463V-1024.43ZM3310.8 -1000.82C3470.15 -1009.85 3615.69 -948.8 3749.6 -874.869C3760.17 -888.021 3773.62 -895.247 3782.02 -897.926L3787.68 -899.732L3793.52 -898.593C3795.23 -898.259 3796.93 -897.998 3798.63 -897.806C3818.36 -895.582 3839.62 -902.567 3862.54 -917.834C3885.42 -933.073 3907.83 -955.174 3928.95 -979.338C3943.66 -996.165 3957.35 -1013.53 3969.89 -1029.66C3971.73 -1032.03 3973.56 -1034.38 3975.37 -1036.72C3985.64 -1049.96 3995.3 -1062.41 4003.65 -1072.11L4010.64 -1080.22L5135.29 -1075.53C5148.83 -1075.94 5169.49 -1072.7 5185.45 -1058.65C5203.73 -1042.57 5210.35 -1017.43 5202.23 -986.091C5193.92 -954.04 5183.38 -920.512 5170.38 -890.687C5157.56 -861.285 5141.5 -833.461 5121.26 -814.654C5119.42 -812.948 5117.31 -810.974 5114.94 -808.766C5096.67 -791.702 5063.44 -760.674 5027.87 -731.577C5018.62 -724.01 5009.13 -716.502 4999.62 -709.348C5040.85 -710.439 5083.5 -710.709 5123.13 -709.548C5159.39 -708.486 5193.61 -706.213 5222.13 -702.162C5246.71 -698.672 5270.03 -693.505 5286.59 -684.869C5305.23 -682.298 5324.71 -669.91 5341.85 -653.804C5362.25 -634.62 5383.26 -606.547 5401.41 -569.617C5437.81 -495.569 5463.24 -384.913 5448.96 -234.932C5437.57 -115.277 5408.52 -33.8114 5375.41 19.648C5342.71 72.453 5304.84 99.5919 5275.25 106.05L5274.16 106.289L5273.05 106.421C5204.54 114.587 5098.95 124.627 5004.65 128.191C4957.56 129.971 4912.72 130.16 4876.52 127.583C4858.45 126.297 4841.96 124.285 4828.15 121.253C4819.17 119.282 4809.91 116.595 4801.78 112.563L4622.25 149.876L3702.41 308.709L3699.99 308.619C3604.13 305.068 3306.14 319.98 3155.15 328.685C3100.96 443.811 3021.68 509.625 2961.74 526.113L2961.48 526.185L2961.22 526.25C2913.59 538.161 2835.12 552.692 2753.22 557.901C2672.36 563.044 2584.52 559.38 2519.95 532.326C2477.08 516.794 2451.72 502.412 2436.58 490.91C2431.6 487.126 2427.66 483.609 2424.55 480.412C2420.72 480.411 2416.97 480.285 2413.34 480.058C2408.1 487.154 2401.11 492.374 2394.56 495.997C2381.85 503.031 2365.99 507.085 2350.98 509.588C2325.39 513.854 2296.58 514.485 2275.54 513.859C2273.55 515.721 2271.44 517.524 2269.19 519.266C2252.49 532.206 2230.38 539.959 2204.03 545.5C2178.16 550.94 2145.87 554.688 2106.45 558.105C2097.68 561.292 2088.54 563.294 2079.59 564.482C2038.09 569.988 1988.93 559.527 1956.97 549.004L1956.52 548.856L1956.08 548.689C1838.54 504.598 1631.8 471.685 1404.52 449.908C1178.05 428.208 933.853 417.79 743.028 417.79C688.609 417.79 652.151 415.56 626.839 408.897C613.738 405.448 602.662 400.589 593.279 393.55C587.619 389.303 583.003 384.584 579.101 379.581C542.851 375.95 511.493 368.34 482.038 359.835C470.113 356.391 458.842 352.917 447.782 349.507C427.971 343.399 408.833 337.5 387.81 332.357C325.531 317.123 251.677 310.123 131.631 339.746C125.247 343.061 117.581 345.957 109.298 347.322C99.6298 348.916 87.6214 348.631 76.1192 342.666C51.3098 329.8 43.6537 299.967 46.5962 262.683C49.0095 232.105 58.6054 191.092 72.0628 148.489V125.165H79.7597C93.5473 85.0792 110.599 43.7951 128.917 7.84042C149.221 -32.0118 172.633 -68.4789 196.775 -87.9849C228.131 -113.318 298.26 -160.414 362.924 -201.314C395.44 -221.88 427.005 -241.151 452.158 -255.629C464.71 -262.853 475.877 -269.007 484.871 -273.561C489.357 -275.832 493.527 -277.82 497.192 -279.373C500.43 -280.745 504.754 -282.428 509.028 -283.206L543.699 -289.511L535.809 -255.156C522.766 -198.364 504.587 -107.523 493.606 -22.1328C488.111 20.5925 484.484 61.4607 484.116 95.7879C483.899 115.991 484.845 132.795 486.769 145.952C499.628 137.898 516.511 124.99 537.832 108.687C541.797 105.656 545.915 102.508 550.189 99.2512C517.301 6.55241 511.181 -149.172 557.635 -287.287C582.542 -361.339 623.013 -431.756 684.057 -485.001C745.387 -538.496 826.332 -573.622 929.992 -578.502L930.261 -578.514L930.531 -578.521L931.084 -555.303C930.531 -578.521 930.538 -578.521 930.538 -578.521L930.549 -578.521L930.712 -578.525L931.172 -578.535C931.57 -578.543 932.147 -578.554 932.894 -578.566C934.387 -578.591 936.558 -578.621 939.315 -578.645C944.827 -578.691 952.697 -578.71 962.204 -578.599C981.179 -578.378 1006.86 -577.64 1033.43 -575.554C1037.35 -575.247 1041.29 -574.91 1045.26 -574.538C1004.02 -588.477 956.082 -594.101 918.156 -594.774C913.241 -594.782 908.263 -594.785 903.223 -594.785L902.836 -641.23C907.799 -641.313 913.013 -641.314 918.436 -641.224C1051.62 -641.043 1147.79 -638.175 1213.08 -617.19C1247.92 -605.99 1275.79 -589.144 1296.03 -563.494C1314.43 -540.173 1325.09 -511.404 1330.53 -477.281C1360.08 -453.221 1408.74 -402.747 1429.56 -334.676H1495.58C1544.72 -360.62 1603.9 -388.635 1653.45 -412.092C1656.03 -413.314 1658.59 -414.524 1661.12 -415.721C1666.66 -447.143 1669.68 -500.312 1667.06 -591.801C1666.53 -610.412 1679.87 -625.74 1696.61 -628.645C1705.77 -630.234 1715.91 -628.018 1723.96 -620.839C1731.63 -613.997 1735.2 -604.663 1736.47 -595.748C1739.08 -577.459 1739.99 -559.08 1740.57 -542.12C1740.71 -538.18 1740.83 -534.348 1740.94 -530.614C1741.34 -517.846 1741.69 -506.213 1742.6 -495.288C1744.38 -473.825 1747.97 -461.608 1753 -454.613C1855.43 -490.907 2080.47 -554.613 2264.76 -553.099L2252.23 -576.207H2170.16L2163.26 -586.391C2155.38 -598.003 2144.25 -617.053 2140.83 -637.379C2139.06 -647.869 2139.11 -660.097 2144.05 -672.08C2149.16 -684.48 2158.61 -694.397 2171.65 -701.267L2176.73 -703.94H2344.99V-627.818C2373.85 -656.252 2404.23 -685.727 2432.61 -712.475C2468.95 -746.73 2503.11 -777.578 2526.62 -795.705C2525.71 -813.52 2531.46 -828.537 2543.01 -839.347C2556.02 -851.517 2572.78 -854.839 2583.82 -854.897C2696.72 -857.42 2874.43 -853.369 3056.55 -833.939C3053.69 -839.978 3051 -846.217 3048.56 -852.574H2977.15L2975.52 -852.808C2958.9 -855.183 2943.65 -867.709 2941.04 -885.3C2939.59 -895.018 2942.41 -905.567 2950.5 -913.476C2958.02 -920.821 2967.83 -923.735 2976.88 -924.489C2996.08 -926.09 3019.29 -926.624 3037.37 -926.803C3039.29 -939.697 3043.89 -952.444 3052.53 -963.833C3066.94 -982.836 3089.73 -994.327 3119.41 -998.645C3126.74 -999.712 3133.82 -1000.4 3140.65 -1000.74C3141.06 -1005.25 3142.2 -1010.93 3145.34 -1016.37C3147.94 -1020.89 3151.62 -1024.66 3156.1 -1027.29L3062.74 -1037.67L3057.37 -1049.96C3053.61 -1058.55 3049.36 -1073.73 3053.5 -1089.02C3055.75 -1097.36 3060.57 -1105.79 3069.07 -1112.15C3077.37 -1118.35 3087.43 -1121.26 3098.08 -1121.93C3126 -1123.68 3254.56 -1122.92 3331.91 -1122.2C3340.29 -1122.13 3348.1 -1122.05 3355.16 -1121.97L3356.48 -1121.96L3357.79 -1121.8C3367.98 -1120.52 3383.75 -1117.76 3398.56 -1113.44C3405.94 -1111.29 3413.72 -1108.57 3420.66 -1105.16C3427.02 -1102.03 3435.43 -1097.02 3441.14 -1089.03C3443.88 -1085.19 3446.18 -1079.98 3446.34 -1073.7C3446.5 -1067.44 3444.47 -1062.21 3442.07 -1058.39C3437.83 -1051.64 3431.51 -1047.79 3427.85 -1045.81C3419.72 -1041.4 3408.89 -1038.13 3398.82 -1035.63C3377.89 -1030.42 3351.82 -1026.57 3334.32 -1024.58L3333.01 -1024.43H3310.8V-1000.82ZM2979.54 -878.03C2979.54 -878.03 2979.58 -878.041 2979.64 -878.056C2979.58 -878.036 2979.54 -878.03 2979.54 -878.03ZM2664 -809.081C2635 -809.224 2608.35 -808.987 2584.64 -808.455L2584.38 -808.449H2584.12C2582.72 -808.449 2580.7 -808.204 2578.71 -807.555C2576.74 -806.913 2575.45 -806.1 2574.73 -805.42C2574.18 -804.908 2573.64 -804.223 2573.28 -802.737C2572.88 -801.057 2572.51 -797.39 2574.14 -790.858L2578.07 -775.117L2564.65 -766.007C2554.58 -759.171 2539.52 -746.807 2521.16 -730.63C2544.85 -747.918 2568.93 -763.793 2592.68 -777.138C2616.46 -790.507 2640.53 -801.69 2664 -809.081ZM2279.31 -502.836L2272.56 -509.442L2272.51 -506.539C2129.05 -509.352 1955.07 -468.757 1839.78 -434.023L1845.78 -410.05C1833.59 -406.237 1822.07 -403.253 1811.24 -401.203C1762.06 -385.914 1703.85 -357.583 1669.51 -336.944C1668.68 -336.423 1667.86 -335.927 1667.03 -335.452L1652.39 -360.193C1605.99 -338.182 1554.81 -313.619 1512.27 -290.953C1486.8 -277.386 1461.31 -263.497 1435.89 -249.352C1399.02 -228.839 1362.28 -207.789 1325.93 -186.405C1283.65 -161.537 1241.9 -136.219 1201.07 -110.77C1127.99 -65.231 1057.88 -19.2869 992.968 25.231C931.481 67.4019 821.245 147.392 770.976 185.482C721.091 223.281 706.585 237.487 682.977 260.608C676.742 266.714 669.872 273.441 661.548 281.39C636.464 305.342 619.971 324.081 611.661 337.022C665.13 344.181 726.165 337.261 811.192 292.709L811.853 292.362L812.535 292.059C837.206 281.091 888.197 252.392 953.624 214.029C1007.56 182.404 1070.32 144.801 1134.41 106.406C1147.46 98.5834 1160.57 90.7283 1173.67 82.8843C1251 36.5928 1328.01 -9.31222 1391.24 -45.5448C1441.21 -74.1781 1484.23 -97.7589 1512 -110.3C1512.08 -116.576 1512.99 -123.288 1515.2 -129.905C1517.88 -137.89 1522.64 -146.157 1530.57 -152.822C1538.55 -159.539 1548.47 -163.554 1559.7 -164.958C1579.44 -167.426 1599.8 -167.496 1615.54 -166.829C1647.4 -183.238 1693.56 -206.478 1735.21 -226.292C1757.25 -236.782 1778.25 -246.416 1795.27 -253.587C1798.87 -255.103 1802.33 -256.527 1805.63 -257.839C1805.14 -259.277 1804.71 -260.76 1804.37 -262.284C1801.26 -276.104 1805.61 -289.901 1816.99 -300.126C1826.77 -308.919 1840.81 -314.314 1857.12 -317.882C1872.91 -321.338 1884.74 -323.22 1893.78 -323.437C1902.85 -323.655 1913.07 -322.328 1921.59 -315.145C1923.64 -313.422 1925.25 -311.626 1926.48 -310.051C1977.25 -332.219 2055.31 -361.979 2140.7 -386.303C2230.4 -411.85 2330.09 -431.956 2415.35 -429.985C2417.06 -431.482 2418.76 -432.951 2420.46 -434.392C2422.1 -451.593 2427.05 -472.731 2437.44 -492.6H2270.26L2279.31 -502.836ZM2523.08 -506.925C2504.26 -502.664 2491.94 -491.927 2483.4 -479.195C2482.54 -477.924 2481.73 -476.63 2480.95 -475.316C2488.35 -478.999 2495.47 -482.018 2502.24 -484.358L2505.93 -485.631H2579.85C2582.15 -492.974 2585.18 -500.825 2589.06 -508.501C2571.94 -508.464 2556.68 -508.571 2544.11 -508.863C2540.47 -508.948 2537.02 -508.84 2533.72 -508.558L2523.08 -506.925ZM2654.17 -509.146C2647.96 -509.023 2641.02 -505.071 2633.84 -493.519C2632.28 -491.006 2630.85 -488.348 2629.56 -485.631H2927.34L2929.26 -485.309C2937.54 -483.915 2946.36 -481.74 2955.59 -478.748V-511.179H2925.4V-519.545L2907.22 -515.906L2905.34 -515.839C2847.39 -513.769 2741.82 -510.523 2654.17 -509.146ZM2952.1 -557.628H3052.06C3053.47 -560.444 3054.43 -563.319 3054.95 -566.25C3047.3 -580.554 3039.36 -600.896 3039.87 -620.532C3040.19 -632.768 3043.91 -646.766 3055.25 -657.709C3066.43 -668.504 3081.76 -673.149 3098.73 -673.735C3121.15 -674.508 3155.24 -674.778 3191.38 -674.775C3171.44 -679.809 3150.7 -683.399 3134.94 -685.397C3072.4 -686.852 3039.03 -667.705 3032.17 -661.759C3024.18 -653.447 3010.93 -642.716 2994.79 -635.058C2978.38 -627.269 2956.4 -621.487 2933.33 -628.086C2933.06 -628.084 2931.61 -628.125 2928.52 -627.504C2924.2 -626.636 2918.43 -624.84 2911.23 -621.948C2896.86 -616.177 2879.21 -607.032 2860.22 -595.993C2846.17 -587.825 2831.72 -578.822 2817.79 -569.752L2950.63 -571.56L2952.1 -557.628ZM2734.25 -568.615C2761.06 -588.131 2800.01 -614.716 2836.89 -636.154C2856.71 -647.673 2876.56 -658.076 2893.93 -665.052C2902.6 -668.534 2911.26 -671.411 2919.38 -673.043C2927.03 -674.581 2936.62 -675.53 2945.89 -672.805C2953.8 -670.477 2963.18 -671.769 2973.37 -676.324C2960.73 -681.99 2944.99 -688.405 2927.77 -695.066C2888.77 -710.151 2843.49 -725.978 2812.39 -736.379C2807.43 -736.429 2802.54 -736.454 2797.71 -736.454H2796.66L2795.61 -736.549C2771.96 -738.7 2749.29 -735.293 2727.69 -727.612C2730.79 -725.574 2733.88 -723.443 2736.94 -721.225C2754.36 -708.58 2774.43 -690.31 2782.46 -667.544C2789.82 -646.694 2780.67 -625.814 2769.18 -610.453C2758 -595.499 2741.38 -581.086 2721 -568.435L2734.25 -568.615ZM2562.63 -567.639C2616.36 -571.472 2660.9 -586.927 2692.11 -605.238C2711.31 -616.506 2724.56 -628.324 2732 -638.269C2739.24 -647.959 2738.56 -652.251 2738.61 -652.26C2735.43 -661.053 2725.34 -672.252 2709.67 -683.631C2699.28 -691.172 2688.14 -697.576 2678.87 -702.233C2628.7 -667.797 2588.4 -613.834 2562.63 -567.639ZM2656.87 -743.41C2659.49 -745.146 2662.14 -746.839 2664.82 -748.487C2680.4 -758.075 2697 -766.193 2714.51 -772.204C2712.13 -771.974 2709.84 -771.726 2707.64 -771.459C2691.21 -769.466 2672.79 -763.947 2652.88 -755.366L2656.87 -743.41ZM2549.93 -694.131C2536.78 -684.575 2523.63 -674.471 2510.61 -664.007C2459.69 -623.069 2411.7 -577.323 2374.87 -539.048H2462.29C2477.73 -573.063 2500.47 -619.782 2528.1 -662.645C2535.01 -673.371 2542.3 -683.964 2549.93 -694.131ZM2968.5 -728.872C2979.96 -724.19 2990.52 -719.65 2999.49 -715.446C3005.67 -712.552 3011.41 -709.675 3016.32 -706.895C3025.36 -712.036 3036.94 -717.114 3050.94 -721.338C3023.74 -724.167 2996.04 -726.712 2968.5 -728.872ZM3275.88 -688.689C3280.43 -684.907 3285.09 -680.097 3288.63 -674.255C3302.03 -674.125 3314.28 -673.983 3324.69 -673.846C3324.59 -674.534 3324.41 -675.379 3324.1 -676.362C3313.81 -679.925 3297.56 -684.148 3275.88 -688.689ZM3315.93 -627.505C3302.89 -627.665 3287.59 -627.826 3271.14 -627.962C3211.87 -628.455 3138.28 -628.623 3100.33 -627.314C3090.37 -626.971 3087.69 -624.475 3087.49 -624.281C3087.44 -624.237 3086.4 -623.4 3086.29 -619.321C3086.11 -612.4 3088.89 -602.936 3093.03 -593.92C3102.54 -593.326 3113.01 -592.692 3124.1 -592.045C3162.63 -589.798 3208.56 -587.395 3247.85 -585.937C3283.79 -584.603 3312.01 -584.17 3324.79 -584.964C3324.96 -587.063 3324.96 -590.205 3324.43 -594.582C3323.21 -604.779 3319.8 -616.797 3315.93 -627.505ZM3004.34 -474.576C3003.56 -474.356 3002.79 -474.143 3002.02 -473.935V-458.134C3002.79 -457.701 3003.57 -457.262 3004.34 -456.818V-474.576ZM3050.78 -424.445C3059.52 -417.186 3068.25 -409.237 3076.86 -400.566H3354.92C3361.8 -400.566 3368.57 -400.089 3375.17 -399.173C3435.51 -394.865 3518.07 -389.127 3589.86 -384.476C3629.61 -381.901 3665.99 -379.664 3693.44 -378.187C3707.18 -377.448 3718.59 -376.905 3727.02 -376.605C3736.44 -376.269 3740.09 -376.339 3740.07 -376.337L3745.2 -330.173C3741 -329.706 3733.22 -329.906 3725.36 -330.186C3716.52 -330.501 3704.79 -331.062 3690.95 -331.806C3663.24 -333.296 3626.66 -335.546 3586.86 -338.125C3548.52 -340.609 3507.12 -343.401 3467.67 -346.121C3477.78 -332.792 3484.97 -317.784 3488.45 -302.003C3494.56 -274.283 3488.89 -244.699 3467.93 -220.064C3462.54 -213.732 3456.27 -207.871 3449.13 -202.517C3453.86 -202.107 3458.59 -201.652 3463.3 -201.151C3499.7 -197.277 3536.04 -190.528 3567.96 -179.454C3599.61 -168.471 3628.85 -152.567 3648.85 -129.124C3710.65 -56.712 3779.73 -28.036 3803.26 -22.9468L3793.45 22.4525C3759.71 15.1555 3681.76 -19.0286 3613.54 -98.9671C3601.04 -113.612 3580.46 -125.951 3552.74 -135.571C3525.28 -145.099 3492.7 -151.312 3458.39 -154.963C3389.94 -162.247 3317.62 -159.033 3272.06 -153.8C3244.54 -149.684 3222.91 -147.038 3203.8 -144.878C3208.05 -123.225 3211.42 -100.396 3213.78 -76.3476C3280.7 -74.1585 3373.43 -66.897 3459.27 -56.0931C3506.91 -50.0976 3552.8 -42.9659 3591.21 -34.9164C3628.74 -27.0501 3661.82 -17.792 3681.94 -6.61427C3711.6 9.8672 3751.92 19.4574 3791.93 25.2484C3821.28 29.4968 3848.53 31.4847 3870.04 33.0541C3877.82 33.6222 3884.86 34.1354 3890.97 34.6812L3886.84 80.9456C3881.74 80.4904 3875.43 80.0305 3868.19 79.5023C3850.71 78.2276 3827.76 76.5545 3803.18 73.5868C3808.17 76.1349 3813.12 78.8036 3818.01 81.5537C3857.6 84.8518 3913.74 87.7557 3969.27 78.399C4027.31 68.6211 4081.55 45.9996 4116.46 -0.299213L4117.93 -2.24142L4119.76 -3.83773C4156 -35.3585 4216.27 -83.2796 4279.89 -125.095C4311.72 -146.009 4344.72 -165.618 4376.21 -180.909C4383.89 -184.638 4391.57 -188.151 4399.19 -191.385L4348.69 -190.65L4346.18 -191.173C4340.46 -192.364 4333.7 -194.258 4327.43 -197.027C4322.3 -199.295 4312.75 -204.134 4307.2 -213.615C4303.9 -219.254 4302.05 -226.547 4303.69 -234.5C4305.22 -241.924 4309.29 -247.474 4313.11 -251.283C4320.28 -258.436 4330.89 -263.716 4342.76 -268.168L4346.7 -269.647H4399.23C4388.27 -326.662 4409.3 -367.493 4428.3 -384.496L4431.6 -387.45L4435.76 -388.981C4445.09 -392.422 4460.26 -396.072 4475.32 -394.392C4483.07 -393.527 4492.18 -391.09 4500.33 -385.111C4508.92 -378.806 4514.9 -369.681 4517.48 -358.476C4519.87 -348.117 4520.95 -338.539 4521.13 -330.03H4565.98C4565.1 -346.335 4566.24 -364.734 4571.39 -382.054C4572.89 -387.086 4574.77 -392.15 4577.1 -397.112C4538.94 -396.357 4498.91 -395.778 4463.01 -395.634C4433.2 -395.514 4406.03 -395.694 4385.05 -396.334C4374.58 -396.654 4365.41 -397.096 4358.11 -397.7C4351.93 -398.212 4344.05 -399.023 4338.34 -401.101C4322.73 -406.778 4310.25 -418.193 4308.8 -435.369C4308.01 -444.754 4310.89 -452.842 4314.35 -458.834C3921.85 -416.582 3472.54 -436.598 3285.53 -453.21L3289.64 -499.476C3482.98 -482.302 3959.03 -461.563 4357.8 -510.592C4324.86 -534.613 4286.71 -560.832 4259.3 -579.19C4255.55 -579.577 4251.8 -580.019 4248.05 -580.514C4218.66 -584.392 4189.4 -591.53 4160.26 -601.102C4156.24 -602.423 4152.22 -603.79 4148.2 -605.202C4082.62 -628.244 4016.67 -663.428 3950.39 -702.162C3922.22 -718.622 3894.37 -735.491 3866.38 -752.443C3827.4 -776.047 3788.16 -799.811 3747.45 -822.853C3700.39 -849.493 3652.81 -874.276 3604.46 -895.026C3606.98 -888.458 3606.58 -881.868 3604.92 -876.605C3603.14 -870.908 3599.92 -866.608 3597.53 -863.868C3592.69 -858.323 3586.23 -853.591 3580.68 -849.963C3569.09 -842.402 3554.8 -835.424 3545.26 -831.276L3540.83 -829.35H3378.43C3384.98 -821.487 3390.76 -813.119 3395.13 -804.35C3399.85 -794.9 3403.2 -784.381 3403.79 -773.337C3485.62 -751.431 3559.74 -723.837 3617.62 -689.005L3593.69 -649.203C3536.67 -683.512 3460.09 -711.334 3372.44 -733.503C3365.62 -735.228 3358.74 -736.917 3351.8 -738.571C3370.06 -731.967 3386.04 -724.845 3398.55 -717.133C3407.19 -711.808 3415.38 -705.482 3421.44 -697.829C3427.67 -689.96 3432.56 -679.439 3431.44 -667.011C3429.33 -643.678 3439.21 -617.017 3455.45 -591.308C3471.41 -566.041 3491.54 -544.817 3504.76 -533.394L3474.39 -498.254C3458.19 -512.26 3434.91 -536.878 3416.2 -566.495C3398.12 -595.117 3382.34 -631.525 3385.02 -669.022C3383.59 -670.806 3380.37 -673.778 3374.19 -677.588C3373.11 -678.257 3371.97 -678.93 3370.77 -679.607C3371.11 -676.984 3371.28 -674.284 3371.22 -671.532C3371.06 -663.706 3369.06 -654.871 3363.48 -646.706C3362.4 -645.129 3361.23 -643.639 3359.98 -642.233C3364.59 -629.311 3368.85 -614.231 3370.54 -600.1C3371.78 -589.712 3372.02 -576.988 3367.7 -565.527C3365.42 -559.458 3361.65 -553.199 3355.62 -548.162C3349.48 -543.038 3342.2 -540.181 3334.58 -539.228C3320 -537.405 3284.77 -538.086 3246.13 -539.52C3211.84 -540.793 3172.69 -542.77 3137.75 -544.738C3130.49 -530.027 3119.64 -513.301 3106.47 -498.407C3092.39 -482.481 3073.4 -466.111 3050.78 -458.014V-424.445ZM3268.64 -803.559C3297.05 -798.276 3324.99 -792.499 3352.22 -786.188C3347.35 -794.845 3339.32 -804.43 3328.64 -814.378C3314.92 -827.161 3298.38 -839.121 3282.62 -849.057C3281.12 -839.514 3278.9 -829.685 3275.74 -820.335C3273.94 -814.993 3271.61 -809.246 3268.64 -803.559ZM3282.92 -902.692C3291.34 -898.123 3300.58 -892.715 3310.08 -886.631C3317.3 -912.89 3347.73 -934.077 3387.98 -926.76C3411.85 -925.355 3450.32 -925.179 3485.11 -925.02C3499.67 -924.954 3513.58 -924.89 3525.51 -924.74C3449.52 -949.063 3371.34 -960.999 3289.98 -952.563L3289.52 -952.515L3260.43 -950.673C3272.39 -934.826 3279.45 -917.599 3282.92 -902.692ZM3533.33 -876.866C3534.16 -877.26 3535 -877.666 3535.86 -878.082C3535.7 -878.093 3535.55 -878.104 3535.4 -878.114C3535.33 -878.11 3535.24 -878.104 3535.14 -878.095C3534.77 -878.065 3534.26 -878.01 3533.63 -877.914C3532.86 -877.797 3531.98 -877.633 3530.99 -877.417C3531.77 -877.229 3532.55 -877.046 3533.33 -876.866ZM3565.77 -871.863C3565.77 -871.863 3565.67 -871.915 3565.51 -872.029C3565.7 -871.922 3565.77 -871.863 3565.77 -871.863ZM3562.51 -894.37C3562.6 -894.481 3562.62 -894.494 3562.55 -894.407C3562.53 -894.395 3562.52 -894.383 3562.51 -894.37ZM3238.86 -885.823C3236.47 -904.861 3222.99 -935.37 3188.88 -948.188C3181.86 -950.823 3173.76 -952.822 3164.39 -953.826C3153.5 -954.992 3140.81 -954.823 3126.09 -952.681C3104.51 -949.542 3094.46 -942.274 3089.52 -935.764C3084.42 -929.035 3081.85 -919.249 3082.94 -905.507C3083.51 -898.337 3085.06 -890.536 3087.47 -882.34C3093.13 -863.039 3103.01 -843.342 3113.01 -827.421C3147.41 -823.14 3181.78 -818.275 3215.7 -812.767C3220.34 -814.125 3226.4 -819.361 3231.75 -835.206C3237.3 -851.639 3239.1 -871.874 3238.86 -885.823ZM4342.49 -578.529C4358.5 -567.342 4374.81 -555.729 4389.9 -544.65C4397.25 -539.253 4404.37 -533.941 4411.06 -528.833C4408.29 -552.634 4405.36 -578.137 4402.43 -604.048C4393.94 -679.239 4385.48 -758.133 4381.13 -808.785C4379.78 -824.615 4378.8 -837.961 4378.35 -847.663C4378.14 -852.446 4378.03 -856.781 4378.12 -860.241C4378.16 -861.899 4378.26 -863.982 4378.56 -866.061C4378.71 -867.071 4378.99 -868.711 4379.57 -870.577L4379.57 -870.591C4379.94 -871.764 4381.38 -876.413 4385.58 -880.609C4388.05 -883.082 4392.35 -886.635 4398.64 -888.284C4405.67 -890.129 4412.33 -888.864 4417.59 -886.176C4422.21 -883.818 4425.38 -880.58 4427.29 -878.375C4429.31 -876.028 4431.02 -873.512 4432.42 -871.27C4435.55 -866.253 4439.54 -858.526 4444.22 -849.466C4446.83 -844.416 4449.65 -838.952 4452.66 -833.312C4453.48 -831.778 4454.18 -830.751 4454.7 -830.087C4454.92 -830.195 4455.15 -830.32 4455.4 -830.462C4455.33 -831.279 4455.24 -832.175 4455.13 -833.154C4454.36 -840.009 4452.66 -849.9 4449.21 -862.847C4447.03 -871.013 4439.43 -885.049 4427.64 -899.25C4415.89 -913.393 4402.83 -924.246 4392.27 -928.753C4388 -930.572 4385.3 -930.906 4383.69 -930.817C4383.36 -930.011 4382.98 -928.983 4382.57 -927.699C4380.62 -921.671 4378.73 -912.711 4377.07 -900.832C4373.78 -877.244 4371.85 -845.517 4370.94 -810.17C4369.11 -739.556 4371.41 -657.18 4374.1 -602.905L4375.31 -578.529H4342.49ZM4384.82 -933.167C4384.82 -933.167 4384.8 -933.119 4384.74 -933.037C4384.79 -933.128 4384.82 -933.167 4384.82 -933.167ZM4488.65 -797.377C4483.75 -793.18 4477.67 -789.123 4470.66 -786.414C4460.52 -782.496 4447.42 -781.233 4434.78 -787.547H4429.68C4433.8 -743.827 4439.9 -686.774 4446.26 -629.879H4541.03L4548 -620.925C4556.66 -609.802 4567.24 -591.189 4571.59 -569.848C4572.65 -564.624 4573.36 -559.106 4573.54 -553.42C4588.58 -567.393 4599.88 -581.509 4606.06 -595.106L4611.83 -607.805L4688.07 -612.571C4695.36 -623.428 4705.61 -636.163 4718.18 -647.783C4735.25 -663.56 4758.69 -679.187 4786.71 -682.843C4789.97 -683.268 4796.68 -686.222 4806.59 -695.75C4815.99 -704.777 4825.92 -717.436 4835.72 -732.222C4854.7 -760.838 4871.36 -794.594 4881.17 -817.639C4881.7 -821.089 4881.71 -826.124 4880.27 -830.489C4879.54 -832.678 4878.52 -834.661 4876.77 -836.339C4872.74 -835.089 4868.18 -833.94 4863.31 -832.87C4852.91 -830.583 4839.85 -828.382 4825.05 -826.267C4795.38 -822.027 4757.29 -817.936 4716.5 -814.178C4638.63 -807.004 4549.88 -800.952 4488.65 -797.377ZM4926.16 -838.524C4928.97 -825.924 4928.04 -813.83 4926.07 -805.452L4925.63 -803.571L4924.88 -801.79C4914.43 -776.852 4896.02 -739.127 4874.41 -706.546C4873.73 -705.507 4873.03 -704.47 4872.33 -703.436C4881.26 -704.03 4890.66 -704.614 4900.43 -705.174C4909.8 -707.313 4923.76 -713.945 4941.46 -725.273C4959.41 -736.758 4979.09 -751.672 4998.47 -767.532C5032.76 -795.583 5064.84 -825.526 5083.19 -842.659C5085.59 -844.9 5087.76 -846.922 5089.66 -848.691C5102.97 -861.053 5115.93 -881.999 5127.81 -909.252C5139.51 -936.083 5149.34 -967.094 5157.28 -997.748C5159.82 -1007.57 5159.45 -1013.67 5158.61 -1017.16C5157.83 -1020.4 5156.42 -1022.33 5154.78 -1023.78C5152.69 -1025.62 5149.69 -1027.03 5146.38 -1027.94C5081.45 -942.379 5025.79 -891.276 4980.71 -863.318C4961.4 -851.339 4943.02 -843.045 4926.16 -838.524ZM5088.48 -1029.27L4032.06 -1033.68C4026.17 -1026.44 4019.59 -1017.95 4012.21 -1008.44C4010.37 -1006.07 4008.48 -1003.64 4006.54 -1001.14C4002.62 -996.094 3998.52 -990.849 3994.27 -985.48L4183.87 -978.301C4187.21 -980.432 4191.01 -982.173 4195.29 -983.237C4204.48 -985.522 4213.38 -984.063 4221.11 -980.598C4223.07 -979.719 4225 -978.805 4226.91 -977.858L4367.67 -974.687C4380.99 -979.12 4394.35 -977.366 4405.75 -973.325L5037.39 -971.053C5053.36 -987.581 5070.41 -1006.86 5088.48 -1029.27ZM4987.12 -924.785L4465.21 -926.662C4478.38 -910.341 4489.68 -891.304 4494.08 -874.815C4497.22 -863.028 4499.23 -852.956 4500.46 -844.61C4560.33 -848.234 4640.98 -853.865 4712.24 -860.431C4752.75 -864.163 4789.95 -868.171 4818.48 -872.249C4832.78 -874.292 4844.56 -876.304 4853.34 -878.235C4857.74 -879.203 4861.08 -880.083 4863.45 -880.84C4864.89 -881.301 4865.62 -881.607 4865.85 -881.701L4874.73 -887.413L4885.28 -883.896C4887.25 -883.239 4889.14 -882.513 4890.95 -881.725C4898.95 -879.782 4919.79 -880.182 4956.25 -902.794C4965.76 -908.693 4976.06 -915.953 4987.12 -924.785ZM4334.9 -928.965L4286.68 -930.051C4306.93 -906.463 4320.26 -881.487 4326.92 -864.96C4327.97 -880.403 4329.33 -894.699 4331.09 -907.249C4332.16 -914.925 4333.41 -922.249 4334.9 -928.965ZM4325.28 -834.516C4325.05 -833.921 4324.81 -833.326 4324.56 -832.729C4324.78 -832.727 4325 -832.726 4325.21 -832.724C4325.24 -833.322 4325.26 -833.92 4325.28 -834.516ZM4324.04 -786.284C4314.82 -786.365 4304.32 -786.772 4293.66 -787.348C4281.31 -788.015 4268.48 -788.923 4256.78 -789.862C4260.95 -737.99 4267.25 -673.079 4272.2 -624.978H4326.63C4324.72 -671.421 4323.32 -730.773 4324.04 -786.284ZM4224.84 -631.61C4219.14 -687.773 4212.06 -762.084 4208.39 -813.769C4207.17 -830.982 4206.3 -845.984 4206 -857.071C4205.85 -862.544 4205.83 -867.528 4206.03 -871.512C4206.13 -873.436 4206.3 -875.762 4206.71 -878.047C4206.9 -879.171 4207.25 -880.876 4207.91 -882.78C4208.39 -884.147 4209.91 -888.354 4213.77 -892.221C4216.72 -895.167 4222.15 -899.412 4230.13 -900.314C4238.4 -901.248 4244.85 -898.103 4248.65 -895.442C4254.51 -891.337 4258.78 -884.933 4260.93 -881.696L4261.11 -881.424C4262.5 -879.336 4263.93 -877.115 4265.46 -874.738C4269.7 -868.147 4274.71 -860.358 4281.83 -850.91C4281.93 -851.164 4282.03 -851.418 4282.13 -851.674C4271.95 -874.747 4247.13 -914.133 4209.91 -934.352C4208.9 -934.902 4207.88 -935.437 4206.85 -935.957C4205.84 -934.12 4204.62 -931.515 4203.31 -927.932C4200.91 -921.37 4198.67 -912.846 4196.67 -902.434C4192.66 -881.609 4190 -855.179 4188.44 -825.794C4185.21 -765.055 4186.8 -694.387 4189.74 -640.55C4201.53 -637.061 4213.23 -634.067 4224.84 -631.61ZM4140.22 -753.251C4140.23 -769.899 4140.47 -786.6 4141 -802.925C4134.16 -803.112 4126.81 -803.521 4119.21 -804.066C4112.37 -804.557 4105.05 -805.183 4097.32 -805.925C4103.82 -797.029 4110.62 -788.037 4117.33 -779.618C4125.6 -769.25 4133.44 -760.143 4140.22 -753.251ZM4035.62 -813.078C3953.63 -823.807 3853.67 -840.656 3792.61 -851.746C3792.57 -851.751 3792.52 -851.757 3792.48 -851.762C3792.17 -851.565 3791.86 -851.354 3791.54 -851.131C3825.23 -831.644 3858.81 -811.321 3891.71 -791.407C3919.68 -774.475 3947.17 -757.84 3973.81 -742.268C4027.2 -711.067 4078.73 -683.194 4129.05 -662.294L4124.76 -705.276C4124.53 -705.438 4124.3 -705.597 4124.08 -705.755C4119.28 -709.172 4114.48 -713.422 4109.89 -717.914C4100.68 -726.924 4090.71 -738.529 4081.04 -750.645C4064.52 -771.352 4047.79 -794.966 4035.62 -813.078ZM3891.97 -881.683C3944.09 -873.057 4002.15 -864.115 4052.01 -857.798C4078.84 -854.4 4103.03 -851.794 4122.53 -850.396C4130.68 -849.811 4137.64 -849.47 4143.41 -849.331C4145.1 -871.867 4147.57 -893.003 4151.07 -911.203C4152.53 -918.797 4154.2 -926.078 4156.14 -932.869L3956.5 -940.428C3937.1 -918.971 3915.38 -897.914 3891.97 -881.683ZM4202.11 -938.217L4202.12 -938.213ZM4288.07 -843.365C4288.07 -843.365 4288.04 -843.38 4287.99 -843.42C4288.04 -843.387 4288.07 -843.365 4288.07 -843.365ZM4702.48 -566.933L4641.65 -563.13C4630.85 -544.945 4615.7 -528.593 4599.61 -514.38C4582.39 -499.175 4563.12 -485.579 4544.64 -474.02H4650.77C4655.29 -476.922 4660.6 -480.572 4665.32 -484.286C4668.71 -486.955 4671.35 -489.296 4673.07 -491.121C4673.36 -491.42 4673.59 -491.674 4673.77 -491.886C4681.28 -517.86 4690.71 -543.188 4702.48 -566.933ZM4649.63 -398.79C4639.02 -397.585 4632.27 -393.876 4627.59 -389.457C4622.54 -384.679 4618.57 -377.796 4615.9 -368.801C4612.29 -356.667 4611.6 -342.636 4612.5 -330.03H4647.81C4649.16 -352.799 4651.32 -375.91 4654.49 -398.92C4652.88 -398.876 4651.26 -398.833 4649.63 -398.79ZM4464.68 -330.03H4474.68C4474.52 -334.97 4473.86 -340.957 4472.28 -347.838C4471.84 -347.967 4471.16 -348.12 4470.17 -348.23C4467.74 -348.501 4464.56 -348.376 4460.97 -347.782C4459.39 -347.52 4457.87 -347.191 4456.46 -346.829C4448.81 -337.215 4435.94 -311.227 4446.81 -269.647H4461.4C4462.57 -272.481 4463.72 -275.502 4464.68 -278.189V-330.03ZM4575.61 -193.952L4468.78 -192.397L4472.42 -165.347C4451.84 -162.575 4425.89 -153.398 4396.49 -139.122C4367.37 -124.986 4336.17 -106.507 4305.39 -86.275C4244.83 -46.4766 4187.16 -0.755743 4152.01 29.6725C4107.06 87.8637 4040.22 113.548 3976.98 124.202C3948.53 128.996 3920.19 130.855 3893.93 131.133C3899.47 135.083 3904.86 138.959 3910.05 142.699C3914.2 145.681 3918.22 148.576 3922.11 151.353C3936.55 161.677 3948.81 170.193 3958.75 176.11C3963.7 179.06 3967.56 181.046 3970.43 182.239C3971.43 182.654 3972.15 182.906 3972.63 183.057C4156.54 162.049 4535.94 117.575 4613.58 104.238L4798.85 65.7324L4674.54 -8.95158L4667.22 -48.4994C4663.68 -61.724 4659.24 -85.6447 4655.34 -116.368H4532.32L4576.75 -156.776C4583.11 -162.557 4595.14 -175.872 4602.07 -188.967C4594.5 -191.758 4583.89 -193.439 4575.61 -193.952ZM4649.05 -180.524C4649.04 -180.492 4649.03 -180.459 4649.01 -180.427C4646.82 -174.387 4643.92 -168.46 4640.64 -162.816H4650.43C4649.94 -168.581 4649.48 -174.488 4649.05 -180.524ZM4917.55 82.8685C4943.42 83.3774 4972.41 82.9282 5002.89 81.776C5064.42 79.4506 5131.07 74.3034 5188.73 68.7446C5170.12 54.8282 5153.31 36.5998 5138.94 11.1844C5108.58 -42.5208 5090.44 -126.099 5082.28 -263.628C5070.58 -460.977 5155.06 -591.795 5228.27 -654.164C5224.33 -654.863 5220.11 -655.536 5215.6 -656.175C5189.49 -659.884 5157.19 -662.082 5121.77 -663.12C5051.01 -665.193 4969.74 -662.586 4904.79 -658.899C4885.91 -657.827 4868.46 -656.667 4853.09 -655.509C4783.66 -626.819 4741.56 -560.531 4717.8 -476.956C4714.89 -466.757 4712.28 -456.345 4709.94 -445.771C4707.98 -436.911 4706.21 -427.942 4704.61 -418.894C4698.06 -381.711 4694.53 -343.342 4693.13 -305.937C4692.73 -295.228 4692.5 -284.608 4692.43 -274.128C4692.36 -264.905 4692.42 -255.793 4692.57 -246.827C4692.74 -237.547 4693.01 -228.426 4693.37 -219.502C4694.53 -191.256 4696.61 -165.028 4699.08 -142.075C4703.45 -101.434 4708.91 -71.9731 4712.26 -59.8388L4712.53 -58.8731L4716.39 -37.9899L4917.55 82.8685ZM5284.06 -637.821C5221.05 -598.491 5116.22 -475.798 5128.64 -266.378C5136.73 -129.862 5154.58 -55.5152 5179.36 -11.6788C5201.58 27.6225 5230.31 44.1094 5270.96 58.9386C5281.83 54.7525 5298.54 44.0439 5316.78 22.0438C5306.25 25.641 5294.66 27.6225 5281.91 27.6225C5217.96 27.6225 5181.9 -22.1024 5161.95 -76.0797C5141.7 -130.876 5134.03 -199.376 5131.03 -256.823C5127.4 -326.342 5139.43 -409.086 5164.79 -474.374C5177.46 -506.981 5194.03 -536.739 5214.95 -558.265C5236.13 -580.063 5263.17 -594.662 5295.15 -592.406C5314.1 -591.069 5330.51 -585.338 5344.68 -576.396C5332.98 -595.25 5320.99 -609.669 5310.05 -619.956C5298.24 -631.059 5289.25 -635.912 5284.06 -637.821ZM3942.27 220.155C3939.85 218.855 3937.42 217.466 3935 216.023C3923.18 208.986 3909.46 199.402 3895.11 189.143C3891.03 186.229 3886.88 183.243 3882.66 180.212C3856.54 161.425 3827.94 140.86 3799.36 124.383C3783.21 115.07 3767.87 107.555 3753.78 102.511C3747.56 124.521 3740.39 152.598 3734.56 181.186C3728.89 209.045 3724.78 235.991 3723.65 257.905L3942.27 220.155ZM3677.03 261.693C3677.88 234.101 3682.96 201.885 3689.07 171.907C3695.33 141.191 3703.04 111.139 3709.69 87.8114C3690.31 81.3499 3663.87 75.2894 3631.86 69.8277C3588.86 62.4897 3537.93 56.5611 3484.95 51.8584C3389.93 43.4251 3289.33 39.0222 3218 37.3709C3216 133.024 3199.58 214.021 3175.01 281.03C3318.99 272.926 3566.14 260.773 3677.03 261.693ZM3217.84 -9.09324C3290.05 -7.44562 3392.28 -2.99718 3489.05 5.59162C3538.54 9.98357 3586.86 15.4816 3629.14 22.295C3616.17 18.3937 3600.25 14.4356 3581.68 10.545C3544.95 2.8458 3500.41 -4.10166 3453.47 -10.0081C3370.82 -20.4102 3281.9 -27.4427 3217.07 -29.7593C3217.4 -22.8024 3217.66 -15.9139 3217.84 -9.09324ZM4523.58 -535.111C4527.48 -542.519 4528.03 -551.034 4526.09 -560.578C4524.39 -568.914 4520.93 -576.958 4517.26 -583.43H4451.51C4453.78 -563.528 4456.02 -544.138 4458.16 -525.882L4523.58 -535.111ZM4405.46 -474.02C4404.28 -475.006 4403.06 -476.018 4401.79 -477.054L4402.2 -474.02H4405.46ZM3193.13 -190.422C3213.43 -192.68 3235.96 -195.36 3265.58 -199.796C3290.85 -203.581 3321.34 -208.654 3359.96 -215.84C3399.05 -223.117 3421.17 -236.767 3432.57 -250.169C3443.53 -263.054 3446.28 -277.582 3443.1 -292.003C3437.14 -319.054 3409.39 -346.969 3370.39 -352.948C3364.75 -353.351 3359.3 -353.742 3354.08 -354.118H3116.39C3147.49 -311.514 3174.75 -257.513 3193.13 -190.422ZM3248.8 -650.373C3248.79 -650.372 3248.72 -650.467 3248.63 -650.66C3248.77 -650.47 3248.81 -650.374 3248.8 -650.373ZM2368.89 -382.519C2301 -378.185 2225.17 -362.064 2153.42 -341.63C2137.48 -337.089 2121.8 -332.354 2106.53 -327.515L2147.78 -291.885C2169.98 -299.268 2202.41 -309.095 2236.15 -317.448C2268.52 -325.46 2303.68 -332.524 2332.5 -334.266C2344.32 -351.899 2356.54 -367.973 2368.89 -382.519ZM2302.38 -283.969C2285.18 -281.131 2266.32 -277.066 2247.31 -272.36C2240.33 -270.634 2233.41 -268.84 2226.64 -267.019C2234.71 -266.202 2242.44 -265.47 2249.75 -264.839C2266.89 -263.359 2280.97 -262.511 2291.38 -262.336C2294.97 -269.736 2298.64 -276.947 2302.38 -283.969ZM2031.58 -291.408C2031.64 -294.833 2031.81 -298.454 2032.21 -302.162C2024.87 -299.481 2017.73 -296.816 2010.8 -294.181C2017.45 -293.299 2024.4 -292.371 2031.58 -291.408ZM1903.23 -266.728C1898.96 -269.655 1895.66 -273.024 1893.01 -276.647C1892.94 -276.731 1892.88 -276.815 1892.82 -276.898C1888.06 -276.556 1880.13 -275.371 1867.04 -272.507C1860.81 -271.143 1856.29 -269.694 1853.11 -268.36C1853.15 -268.323 1853.18 -268.286 1853.22 -268.248C1854.73 -266.727 1856.49 -265.203 1858.37 -263.747C1869.52 -265.158 1885.11 -266.449 1903.23 -266.728ZM1948.57 -218.545C1907.67 -222.511 1870.68 -218.995 1856.77 -216.576L1848.19 -215.083L1840.74 -219.605C1840.24 -219.906 1839.74 -220.216 1839.24 -220.533C1838.04 -220.199 1836.12 -219.623 1833.32 -218.651C1828.1 -216.829 1821.35 -214.174 1813.29 -210.78C1797.22 -204.009 1776.95 -194.718 1755.15 -184.347C1739.76 -177.024 1723.72 -169.214 1708.02 -161.456L1815.05 -155.869C1814.12 -159.006 1813.68 -162.391 1813.87 -165.948C1814.21 -172.409 1816.53 -177.871 1819.17 -182.093C1827.82 -195.932 1841.14 -202.729 1851.82 -205.989C1862.5 -209.251 1873.04 -209.787 1880.26 -209.185L1885.38 -208.757L1889.85 -206.206C1889.83 -206.214 1890.06 -206.085 1890.58 -205.846C1891.09 -205.61 1891.79 -205.309 1892.69 -204.967C1894.48 -204.28 1896.88 -203.485 1899.81 -202.735C1904.32 -201.58 1909.93 -200.573 1916.37 -200.166C1925.45 -205.54 1936.71 -212.016 1948.57 -218.545ZM1745.51 -112.987L1634.83 -118.764L1633.99 -118.868C1630.81 -119.266 1625.7 -119.756 1619.26 -120.135C1604.48 -121.006 1584.18 -121.209 1565.46 -118.868C1563.09 -118.572 1561.77 -118.053 1561.07 -117.682L1744.5 -109.841C1744.79 -110.924 1745.13 -111.972 1745.51 -112.987ZM1660.2 -66.9543L1540.68 -72.0636C1519.29 -63.7265 1474.24 -39.5729 1414.32 -5.24062C1351.53 30.7394 1274.88 76.425 1197.52 122.74C1184.46 130.56 1171.38 138.398 1158.34 146.209C1094.25 184.605 1031.25 222.351 977.105 254.101C920.509 287.286 872.474 314.588 842.888 329.1C851.677 327.956 860.874 326.715 870.315 325.404C910.973 319.76 954.368 313.092 985.108 308.161C984.243 305.436 983.668 302.376 983.631 299.024C983.553 292.013 985.852 285.588 989.624 280.262C996.373 270.731 1007.47 265.098 1018.55 261.19C1046.97 251.155 1103.48 237.199 1138.31 229.084C1136.8 224.999 1136.02 220.17 1136.78 214.899C1137.7 208.526 1140.59 203.374 1143.83 199.525C1149.73 192.526 1158.23 188.091 1166.24 184.887C1194.43 173.607 1257.14 150.684 1285.07 140.593C1298.48 135.317 1313.45 129.651 1329.69 123.746C1394.41 85.0081 1491.81 27.5954 1576.14 -20.2368C1606.48 -37.4418 1635.22 -53.4638 1660.2 -66.9543ZM1527.1 61.4243C1560.11 52.5486 1593.92 44.2753 1627.57 37.1346C1733.1 14.7403 1841.02 2.54517 1916.92 20.8923L2220.07 46.5175C2221.57 -1.26267 2226.6 -45.6576 2234.38 -86.7509C2229.28 -87.1439 2223.63 -87.622 2217.51 -88.1704C2190.78 -90.5674 2154.03 -94.4205 2113.39 -98.8531C2081.24 -102.36 2046.66 -106.229 2012.54 -110.046C1977.06 -114.015 1942.08 -117.929 1910.84 -121.323L1913.63 -106.907L1813.32 -60.4084L1756.64 -62.8314C1756.43 -62.7632 1756.19 -62.6829 1755.92 -62.5888C1753.64 -61.8067 1750.3 -60.4641 1745.78 -58.4482C1736.81 -54.4444 1724.64 -48.4327 1709.83 -40.7287C1680.3 -25.362 1641.45 -3.88067 1599.05 20.1685C1575.75 33.3802 1551.45 47.3332 1527.1 61.4243ZM1757.84 -63.175C1757.84 -63.175 1757.79 -63.1621 1757.7 -63.1427C1757.79 -63.1657 1757.84 -63.175 1757.84 -63.175ZM2176.3 -188.385C2128.82 -193.765 2075.15 -200.916 2032.03 -206.93C2031.47 -206.778 2030.75 -206.568 2029.87 -206.281C2027.21 -205.419 2023.83 -204.132 2019.78 -202.41C2013.93 -199.925 2007.2 -196.758 1999.98 -193.156C2009.4 -192.203 2019.36 -191.188 2029.69 -190.135C2053.84 -187.673 2080.01 -185.005 2106.05 -182.446C2138.05 -179.299 2169.6 -176.343 2196.55 -174.17L2176.3 -188.385ZM2177.03 122.231C2178.93 123.514 2180.75 124.767 2182.47 125.986C2183.11 124.761 2183.74 123.541 2184.38 122.326L2177.03 122.231ZM2254.2 96.0172C2250.69 101.2 2247.24 106.499 2243.86 111.917C2232.31 130.423 2221.56 150.338 2211.86 171.868C2191.64 216.752 2175.84 268.93 2166.95 330.338C2230.04 323.118 2288.38 290.979 2337.72 250.107C2391.15 205.853 2431.94 153.037 2454.1 116.466V-90.4351C2391.78 -47.0596 2322.2 3.1365 2265.99 79.3426L2265.9 97.0058L2254.2 96.0172ZM2269.05 2.95331C2324.56 -57.2254 2386.14 -99.8987 2437.68 -135.61C2446.77 -141.907 2455.54 -147.988 2463.92 -153.91L2500.54 -179.804V99.6188H2583.39L2562.22 134.815C2547.72 158.935 2534.89 179.136 2510.55 207.383L2526.08 395.934V396.888C2526.08 425.821 2513.96 447.229 2495.08 460.939C2492.01 463.172 2488.81 465.162 2485.53 466.933C2497.47 473.302 2513.88 480.751 2536.28 488.843L2536.86 489.051L2537.42 489.289C2591.67 512.18 2670.71 516.607 2750.27 511.547C2780.53 509.622 2810.33 506.365 2838.13 502.443C2808.14 488.894 2777.91 468.564 2749.55 438.731C2682.5 368.221 2628.6 247.447 2609.76 46.0442L2609.66 44.9648V43.8806C2609.66 -153.317 2653.92 -281.941 2716.29 -363.581C2741.1 -396.055 2768.51 -420.74 2796.59 -439.182H2513.92C2498.85 -433.387 2479.3 -422.257 2457.57 -404.815C2451.71 -400.106 2445.71 -394.96 2439.64 -389.371C2414.92 -366.626 2388.96 -336.634 2364.88 -298.943C2351.65 -278.24 2338.99 -255.222 2327.41 -229.82C2322.48 -219.011 2317.75 -207.769 2313.25 -196.089C2308.3 -183.233 2303.63 -169.846 2299.3 -155.918C2297.92 -151.484 2296.58 -146.995 2295.27 -142.451C2291.72 -130.124 2288.43 -117.39 2285.44 -104.247C2277.91 -71.156 2272.27 -35.4486 2269.05 2.95331ZM2924.75 -438.92C2871.6 -431.881 2806.13 -404.675 2753.18 -335.377C2699 -264.453 2656.25 -147.211 2656.09 42.7961C2674.49 237.85 2726.13 346.705 2783.19 406.72C2838.63 465.022 2901.72 479.876 2952.34 480.476C2997.03 466.625 3069.02 409.569 3118.57 296.957C3120.32 292.995 3122.03 288.967 3123.71 284.872C3116.43 299.019 3108.61 311.742 3100.32 323.156C3053.23 388.006 2992.77 408.27 2937.95 408.499C2886.63 412.367 2827.29 384.925 2780.84 323.657C2733.94 261.793 2699.37 164.918 2695.57 25.9373L2695.54 25.0485L2695.59 24.1605C2702.7 -120.486 2737.02 -210.085 2780.9 -265.989C2825.13 -322.333 2876.99 -341.808 2913.12 -350.313C2956.2 -360.452 3020.81 -340.486 3074.79 -288.048C3103.6 -260.059 3129.87 -222.524 3149.43 -174.163C3126.89 -258.84 3089.57 -319.563 3050.13 -361.41C3037.97 -374.318 3025.58 -385.452 3013.33 -394.953C2979.87 -420.911 2947.9 -434.343 2924.75 -438.92ZM2421.6 433.929C2425.56 434.019 2429.67 433.936 2433.8 433.627C2447.97 432.571 2459.94 429.065 2467.8 423.356C2474.29 418.64 2479.43 411.519 2479.64 397.764L2468.03 256.834C2393.4 337.086 2296.83 398.511 2161.34 381.835C2159.27 409.437 2158.51 438.719 2159.22 469.818C2160.45 483.048 2159.55 495.247 2156.51 506.224C2170.91 504.375 2183.49 502.356 2194.48 500.045C2218.32 495.03 2232.3 489.095 2240.76 482.541C2254.77 471.688 2260.47 453.607 2254.58 399.398L2300.74 394.379C2303.66 421.305 2304.85 446.008 2300.44 467.482C2314.54 467.129 2329.71 466.045 2343.35 463.772C2356.46 461.586 2366.21 458.6 2372.08 455.353C2373.66 454.479 2374.62 453.803 2375.17 453.345V371.342H2421.6V433.929ZM2375.83 452.649C2375.85 452.651 2375.8 452.752 2375.61 452.946C2375.72 452.743 2375.81 452.647 2375.83 452.649ZM2112.7 428.863C2113.12 406.544 2114.3 385.103 2116.2 364.494C2084.45 338.056 2033.38 316.714 1966.65 300.545C1894.66 283.099 1807.65 272.404 1714.32 266.496C1528.46 254.731 1320.39 262.105 1161.86 271.327C1142.74 275.655 1111.35 283.112 1082.89 290.634C1247.4 293.582 1467.24 307.759 1665.2 331.739C1777.06 345.288 1882.45 362.028 1967.18 381.782C2009.53 391.655 2047.15 402.383 2078.04 414.013C2090.44 418.679 2102.09 423.612 2112.7 428.863ZM2108.57 501.249C2067.73 479.825 2005.36 459.958 1927.6 442.277C1840.21 422.403 1735.81 405.804 1625.9 392.512C1406.89 366.026 1167.57 352.86 1000.28 352.763C969.132 357.812 921.334 365.215 876.697 371.412C873.633 371.837 870.573 372.258 867.525 372.674C1035.37 376.123 1227.74 386.309 1408.95 403.671C1635.86 425.413 1847.95 458.634 1971.92 505.027C2001.07 514.569 2042.21 522.587 2073.49 518.437C2089.08 516.369 2099.28 511.667 2105.1 505.705C2106.31 504.464 2107.5 503.003 2108.57 501.249ZM563.011 330.746C564.923 325.301 567.548 320.263 570.14 315.889C575.467 306.902 583.04 296.887 592.467 286.043C575.643 283.076 556.561 281.357 535.882 280.682C499.37 279.491 459.699 281.59 421.935 284.751C413.676 285.442 405.556 286.179 397.615 286.94C398.024 287.039 398.432 287.138 398.84 287.238C421.04 292.669 442.645 299.318 463.397 305.704C474.144 309.011 484.663 312.248 494.916 315.208C516.789 321.524 538.921 327.074 563.011 330.746ZM641.916 235.797C644.871 232.92 647.666 230.182 650.361 227.543C656.707 221.327 662.504 215.65 668.554 209.936C645.295 213.278 618.998 218.083 591.514 223.371C595.644 223.914 599.646 224.515 603.511 225.178C617.099 227.506 630.395 230.803 641.916 235.797ZM750.69 142.608C800.859 104.893 894.507 36.9534 954.803 -4.86345C954.328 -5.89141 953.835 -6.58955 953.428 -7.0783C952.018 -8.77376 948.919 -11.1878 941.435 -13.1549C932.482 -15.5083 920.108 -16.4901 903.532 -16.502C882.718 -15.931 861.904 -12.9725 841.23 -8.08952C747.27 14.1025 659.165 75.1777 592.165 125.705C583.932 131.914 575.911 138.05 568.189 143.955C555.643 153.552 543.89 162.542 533.31 170.255C537.549 169.328 541.818 168.39 546.114 167.446C557.915 164.854 569.92 162.216 582.074 159.635C639.121 147.523 699.954 136.565 750.69 142.608ZM439.343 140.439L419.653 135.119L390.208 208.756C389.652 208.763 389.102 208.768 388.557 208.771C388.206 208.569 387.561 208.135 386.607 207.268C383.975 204.873 380.714 200.664 377.209 194.453C370.234 182.093 364.701 166.156 361.499 154.059L316.379 155.022L295.384 250.696C290.598 251.088 286.329 251.381 282.6 251.553C278.346 251.751 275.208 251.772 273.035 251.672C272.937 251.668 272.844 251.663 272.754 251.658C272.142 251.047 271.122 249.91 269.762 247.93C266.814 243.639 263.698 237.479 260.671 229.891C254.639 214.773 250.239 197.256 248.113 185.913L202.192 187.882L192.985 279.978C169.68 283.564 144.629 288.613 117.509 295.395L114.354 296.184L111.538 297.81C108.408 299.616 104.842 300.982 101.749 301.492C98.6487 302.003 97.5202 301.445 97.4914 301.43C97.4617 301.415 97.4211 301.391 97.356 301.338C97.2903 301.284 97.1448 301.155 96.9349 300.896C96.5213 300.384 95.6996 299.166 94.8578 296.718C93.0943 291.592 91.6339 282.199 92.8857 266.338C95.0149 239.36 104.318 199.401 118.555 155.565C132.527 112.543 150.783 67.2148 170.288 28.9315C190.263 -10.2765 210.008 -38.9695 225.951 -51.8507C254.96 -75.2882 322.97 -121.089 387.739 -162.055C419.94 -182.421 450.916 -201.325 475.316 -215.369C476.977 -216.325 478.603 -217.256 480.194 -218.162C468.766 -163.415 456.067 -94.2772 447.552 -28.0593C441.941 15.5703 438.081 58.4249 437.685 95.2892C437.516 110.986 437.955 126.276 439.343 140.439ZM388.876 208.926C388.876 208.926 388.849 208.919 388.794 208.895C388.848 208.912 388.876 208.926 388.876 208.926ZM993.24 -31.1568C1030.33 -56.2688 1068.93 -81.74 1108.65 -107.257H1020.61L1015.59 -109.863C1006.96 -114.339 994.933 -121.847 984.531 -131.332C978.164 -102.365 974.088 -74.6092 971.838 -50.8509C978.188 -47.3739 984.113 -42.8096 989.125 -36.784C990.63 -34.9735 992 -33.0958 993.24 -31.1568ZM926.312 -62.2229C932.115 -117.173 946.726 -190.145 975.482 -254.374C1005.78 -322.054 1054.7 -385.892 1130.75 -401.308V-466.763L1131.1 -468.766C1132.63 -477.454 1132.98 -485.383 1132.33 -492.661C1115.56 -488.85 1094.44 -480.079 1070.76 -465.291C1038.16 -444.935 1002.77 -414.434 970.383 -374.483C909.776 -299.729 860.338 -192.742 858.757 -58.8602C873.201 -61.1395 887.837 -62.5536 902.613 -62.9426L902.918 -62.9505H903.223C911.019 -62.9505 918.779 -62.7691 926.312 -62.2229ZM812.295 -48.5346C811.374 -198.976 866.182 -319.699 934.319 -403.74C969.733 -447.422 1008.94 -481.439 1046.17 -504.692C1057.55 -511.794 1068.95 -518.021 1080.17 -523.232C1064.6 -525.932 1047.26 -527.878 1029.8 -529.248C1004.59 -531.227 980.01 -531.94 961.663 -532.154C952.509 -532.26 944.954 -532.242 939.707 -532.198C937.084 -532.176 935.04 -532.147 933.665 -532.124C932.978 -532.113 932.457 -532.103 932.115 -532.096L931.887 -532.091C838.347 -527.63 767.603 -496.247 714.573 -449.992C661.202 -403.44 624.622 -340.791 601.644 -272.475C560.375 -149.776 564.425 -13.3814 589.426 69.8872C649.759 25.8694 727.482 -24.3851 812.295 -48.5346ZM1178.73 -494.922C1179.48 -484.732 1179.01 -474.012 1177.18 -462.778V-334.676H1287.43C1290.92 -385.572 1290 -429.425 1285.85 -461.776C1281.59 -495.032 1272.76 -518.021 1259.58 -534.713C1246.55 -551.23 1227.55 -563.752 1198.87 -572.969C1177.98 -579.684 1152.95 -584.376 1123 -587.636C1135.51 -578.735 1146.75 -568.304 1155.86 -556.074C1162.29 -547.451 1167.51 -538.12 1171.36 -528.102L1190.56 -494.922H1178.73ZM1333.97 -334.676H1380.44C1369.43 -363.132 1352.62 -387.803 1335.91 -407.229C1336.28 -384.897 1335.66 -360.524 1333.97 -334.676ZM1130.75 -331.597V-353.477C1081.14 -339.175 1044.37 -294.613 1017.86 -235.389C1016.98 -233.425 1016.12 -231.45 1015.26 -229.466C1015.3 -229.479 1015.34 -229.493 1015.38 -229.506C1033.32 -235.929 1052.47 -239.847 1064.89 -241.561L1067.04 -241.857L1308.38 -229.962C1317.78 -235.472 1327.2 -240.961 1336.64 -246.424H1120.44L1115.42 -249.03C1109.02 -252.35 1101.57 -257.038 1095.42 -262.911C1090.26 -267.84 1080.91 -278.439 1081.87 -293.31C1082.96 -310.399 1096.19 -319.833 1106.63 -324.506C1113.23 -327.461 1121.27 -329.788 1130.75 -331.597ZM1236.38 -187.006L1069.16 -195.248C1059.11 -193.722 1044.35 -190.545 1031.02 -185.772C1023.88 -183.218 1017.83 -180.447 1013.33 -177.638C1011.12 -176.26 1009.54 -175.038 1008.49 -174.048C1009.21 -172.83 1010.47 -171.063 1012.59 -168.816C1017.92 -163.148 1025.57 -157.664 1032.27 -153.706H1182.16C1200.07 -164.841 1218.16 -175.95 1236.38 -187.006ZM2377.4 277.344C2410.85 251.788 2440.72 219.882 2468.44 185.025L2468.84 184.525L2469.26 184.048C2482.21 169.486 2491.71 157.483 2499.82 146.067H2490.41C2466.83 183.678 2427.78 233.525 2377.4 277.344ZM2125.84 294.374C2134.49 248.025 2147.02 206.453 2162.54 168.954C2147.48 157.451 2119.65 139.532 2071.3 119.144C2031.8 102.491 1978.61 84.1895 1907.52 66.4113C1842.76 50.2162 1743.2 60.0788 1637.21 82.5716C1532.36 104.824 1425.25 138.508 1347.61 166.652C1330.8 172.745 1315.41 178.565 1301.77 183.936L1301.46 184.056L1301.15 184.168C1288.49 188.74 1268.79 195.915 1248.47 203.416C1372.58 195.638 1534.86 190.93 1690.54 199.811C1785.38 205.222 1878.37 215.707 1959.05 233.831C2023.01 248.199 2080.82 267.701 2125.84 294.374ZM1707.15 -409.402C1712.72 -412.054 1718.41 -414.691 1724.19 -417.286C1718.58 -422.515 1714.12 -428.506 1710.55 -434.959C1709.58 -425.488 1708.44 -417.009 1707.15 -409.402ZM2298.55 -622.655V-657.492H2189.29C2187.85 -656.197 2187.28 -655.1 2186.98 -654.37C2186.31 -652.757 2185.81 -649.89 2186.61 -645.09C2187.79 -638.111 2191.18 -630.182 2195.38 -622.655H2298.55ZM3406.34 -1087.01C3406.34 -1087.01 3406.26 -1086.94 3406.04 -1086.82C3406.22 -1086.95 3406.34 -1087.01 3406.34 -1087.01ZM5208.07 -457.549C5185.27 -398.84 5174.08 -322.707 5177.4 -259.247C5180.35 -202.868 5187.77 -140.151 5205.5 -92.1875C5223.53 -43.4046 5248.34 -18.8259 5281.91 -18.8259C5315.11 -18.8259 5338.83 -43.026 5356.07 -92.0485C5373.02 -140.271 5379.87 -203.058 5384.13 -259.775C5388.86 -322.777 5385.88 -395.847 5369.97 -453.106C5353.54 -512.248 5326.98 -543.596 5291.88 -546.073C5277.43 -547.093 5262.97 -541.052 5248.24 -525.891C5233.25 -510.459 5219.49 -486.94 5208.07 -457.549ZM5233.13 -325.691C5226.9 -311.685 5223.87 -291.65 5223.87 -274.293C5223.87 -265.43 5227.65 -252.93 5234.15 -243.69C5240.91 -234.092 5245.66 -234.062 5247.23 -234.372C5251.72 -235.259 5256.59 -238.489 5261.27 -246.558C5266.02 -254.739 5269.19 -265.798 5270.45 -276.896C5272.16 -292.12 5270.69 -308.844 5265.85 -321.409C5261.09 -333.774 5254.82 -338.536 5248.08 -339.609C5244.97 -340.104 5243.37 -339.472 5241.71 -338.215C5239.37 -336.438 5236.22 -332.635 5233.13 -325.691ZM5213.68 -375.241C5225.16 -383.943 5239.46 -388.013 5255.37 -385.48C5284.31 -380.875 5300.96 -359.468 5309.19 -338.105C5317.33 -316.942 5318.92 -292.38 5316.59 -271.689C5314.83 -256.159 5310.26 -238.461 5301.43 -223.244C5292.54 -207.917 5278.01 -193.108 5256.22 -188.803C5228.42 -183.311 5207.63 -200.7 5196.19 -216.937C5184.51 -233.533 5177.43 -255.286 5177.43 -274.293C5177.43 -295.468 5180.92 -322.586 5190.71 -344.586C5195.63 -355.645 5202.88 -367.059 5213.68 -375.241ZM3042.44 -254.728C2995.61 -300.218 2946.46 -310.443 2923.76 -305.1C2894.11 -298.122 2853.1 -282.761 2817.42 -237.305C2781.48 -191.508 2748.92 -112.585 2742.01 25.5537C2745.75 157.331 2778.46 243.656 2817.84 295.59C2857.45 347.844 2903.06 364.802 2935.08 362.132L2936.05 362.052H2937.01C2979.46 362.052 3025.37 347.339 3062.75 295.859C3101.07 243.088 3131.98 149.557 3136.66 -11.5498C3129.8 -133.788 3087.93 -210.529 3042.44 -254.728ZM2942.23 11.8466C2935.47 -18.0493 2916.43 -33.0082 2898.23 -30.6318C2888.31 -29.3369 2880.86 -23.8823 2875.41 -14.4921C2869.65 -4.57699 2866.58 9.30847 2867.33 24.1188C2868.14 39.8856 2872.91 55.3624 2880.12 65.4575C2886.71 74.6643 2893.92 78.0964 2903.33 76.6603C2931.68 72.3339 2949.37 43.4011 2942.23 11.8466ZM2892.22 -76.6899C2945.4 -83.6307 2978.39 -38.7424 2987.52 1.59721C2999.26 53.4962 2970.98 113.321 2910.33 122.577C2879.81 127.235 2856.65 112.471 2842.35 92.4764C2828.69 73.3702 2822.09 48.6411 2820.96 26.4837C2819.84 4.61249 2824.1 -18.6069 2835.25 -37.8145C2846.71 -57.5469 2865.73 -73.2325 2892.22 -76.6899Z" fill="#85E9FF" fill-opacity="0.75"/>
</g>
<g filter="url(#filter1_d_1478_193)">
<path d="M46.66 161L74.6 84H100.12L128.06 161H107.27L101 142.85H73.72L67.45 161H46.66ZM79.44 126.35H95.28L87.36 103.69L79.44 126.35ZM140.269 161V78.5H157.759V161H140.269ZM172.066 188.06V105.56H189.556V108.64C193.296 105.23 198.136 103.36 204.956 103.36C222.666 103.36 232.896 117.11 232.896 133.28C232.896 149.45 222.666 163.2 204.956 163.2C198.136 163.2 193.296 161.33 189.556 157.92V188.06H172.066ZM202.426 119.75C196.816 119.75 192.636 122.17 189.556 126.35V140.21C192.856 144.5 196.926 146.81 202.426 146.81C210.126 146.81 214.856 141.42 214.856 133.28C214.856 125.14 210.126 119.75 202.426 119.75ZM252.734 99.51C246.684 99.51 241.624 94.34 241.624 88.4C241.624 82.46 246.684 77.4 252.734 77.4C258.564 77.4 263.624 82.46 263.624 88.4C263.624 94.34 258.564 99.51 252.734 99.51ZM243.824 161V105.56H261.314V161H243.824ZM275.621 161V105.56H293.111V108.64C296.741 105.56 301.361 103.36 307.851 103.36C319.621 103.36 329.301 111.61 329.301 128.44V161H311.701V129.21C311.701 123.6 308.731 119.75 303.121 119.75C296.961 119.75 294.211 124.59 293.111 126.46V161H275.621ZM395.552 152.09C390.272 159.02 381.582 163.2 370.912 163.2C350.562 163.2 339.782 149.45 339.782 133.28C339.782 117.22 349.792 103.36 368.602 103.36C384.332 103.36 394.672 113.81 394.672 128.88C394.672 132.62 394.122 136.14 393.572 138.12H357.712C359.362 145.6 364.202 147.58 370.802 147.58C376.082 147.58 380.702 145.49 383.232 142.3L395.552 152.09ZM368.162 117.44C362.552 117.44 359.142 120.19 357.822 125.8H377.732C377.512 122.06 374.652 117.44 368.162 117.44ZM439.736 161V84H487.256V100.17H459.316V113.7H482.856V129.87H459.316V161H439.736ZM511.466 162.65C500.246 162.65 492.436 156.16 492.436 145.38C492.436 136.91 498.926 130.42 511.026 128.44L526.646 125.8C526.536 121.62 522.906 118.43 517.736 118.43C513.116 118.43 509.706 120.63 507.176 124.26L494.416 114.58C499.476 107.54 507.946 103.36 518.286 103.36C535.886 103.36 544.026 113.92 544.026 126.02V161H526.646V156.82C523.566 160.23 517.296 162.65 511.466 162.65ZM509.706 144.5C509.706 147.36 511.906 149.12 515.316 149.12C520.926 149.12 524.446 146.48 526.646 143.18V137.68L515.756 139.55C511.246 140.32 509.706 141.97 509.706 144.5ZM557.818 161V105.56H575.308V108.64C578.938 105.56 583.558 103.36 590.048 103.36C601.818 103.36 611.498 111.61 611.498 128.44V161H593.898V129.21C593.898 123.6 590.928 119.75 585.318 119.75C579.158 119.75 576.408 124.59 575.308 126.46V161H557.818ZM644.499 124.48H674.199V141.42H644.499V124.48ZM711.191 161V84H738.691C756.731 84 767.841 92.91 767.841 107.98C767.841 122.94 756.731 131.85 738.691 131.85H730.771V161H711.191ZM739.791 100.17H730.771V115.68H739.791C744.741 115.68 747.601 112.49 747.601 107.76C747.601 103.36 744.741 100.17 739.791 100.17ZM790.763 162.65C779.543 162.65 771.733 156.16 771.733 145.38C771.733 136.91 778.223 130.42 790.323 128.44L805.943 125.8C805.833 121.62 802.203 118.43 797.033 118.43C792.413 118.43 789.003 120.63 786.473 124.26L773.713 114.58C778.773 107.54 787.243 103.36 797.583 103.36C815.183 103.36 823.323 113.92 823.323 126.02V161H805.943V156.82C802.863 160.23 796.593 162.65 790.763 162.65ZM789.003 144.5C789.003 147.36 791.203 149.12 794.613 149.12C800.223 149.12 803.743 146.48 805.943 143.18V137.68L795.053 139.55C790.543 140.32 789.003 141.97 789.003 144.5ZM840.965 139.44V121.18H830.625V105.56H840.965V91.7H858.565V105.56H873.745V121.18H858.565V139.44C858.565 143.84 860.875 146.26 865.495 146.26C869.565 146.26 872.205 145.71 873.855 145.05V160.12C870.885 161.44 867.475 162.1 862.305 162.1C847.235 162.1 840.965 153.08 840.965 139.44ZM911.346 146.81C915.746 146.81 919.266 144.61 921.246 141.75L934.886 152.09C929.716 158.91 921.466 163.2 911.236 163.2C891.656 163.2 880.436 149.45 880.436 133.28C880.436 117.11 891.656 103.36 911.236 103.36C921.466 103.36 929.716 107.65 934.886 114.47L921.246 124.81C919.266 121.95 915.856 119.75 911.016 119.75C903.866 119.75 898.586 125.14 898.586 133.28C898.586 141.53 903.866 146.81 911.346 146.81ZM943.463 161V78.5H960.953V108.64C964.582 105.56 969.203 103.36 975.693 103.36C987.463 103.36 997.143 111.61 997.143 128.44V161H979.543V129.21C979.543 123.6 976.573 119.75 970.963 119.75C964.803 119.75 962.053 124.59 960.953 126.46V161H943.463ZM1014.44 161V84H1039.3L1066.91 132.07V84H1086.49V161H1061.63L1034.02 112.93V161H1014.44ZM1130.59 103.36C1148.74 103.36 1161.17 116.34 1161.17 133.28C1161.17 150.22 1148.74 163.2 1130.59 163.2C1112.33 163.2 1099.9 150.22 1099.9 133.28C1099.9 116.34 1112.33 103.36 1130.59 103.36ZM1130.7 146.81C1137.74 146.81 1143.13 141.42 1143.13 133.28C1143.13 124.92 1137.74 119.75 1130.7 119.75C1123.44 119.75 1118.05 125.03 1118.05 133.28C1118.05 141.53 1123.44 146.81 1130.7 146.81ZM1175.48 139.44V121.18H1165.14V105.56H1175.48V91.7H1193.08V105.56H1208.26V121.18H1193.08V139.44C1193.08 143.84 1195.39 146.26 1200.01 146.26C1204.08 146.26 1206.72 145.71 1208.37 145.05V160.12C1205.4 161.44 1201.99 162.1 1196.82 162.1C1181.75 162.1 1175.48 153.08 1175.48 139.44ZM1270.72 152.09C1265.44 159.02 1256.75 163.2 1246.08 163.2C1225.73 163.2 1214.95 149.45 1214.95 133.28C1214.95 117.22 1224.96 103.36 1243.77 103.36C1259.5 103.36 1269.84 113.81 1269.84 128.88C1269.84 132.62 1269.29 136.14 1268.74 138.12H1232.88C1234.53 145.6 1239.37 147.58 1245.97 147.58C1251.25 147.58 1255.87 145.49 1258.4 142.3L1270.72 152.09ZM1243.33 117.44C1237.72 117.44 1234.31 120.19 1232.99 125.8H1252.9C1252.68 122.06 1249.82 117.44 1243.33 117.44ZM1304.89 84H1325.68L1345.59 138.89L1365.5 84H1386.29L1358.35 161H1332.83L1304.89 84ZM1419.95 81.8C1440.96 81.8 1450.31 99.29 1450.31 122.5C1450.31 145.71 1440.96 163.2 1419.95 163.2C1399.05 163.2 1389.59 145.71 1389.59 122.5C1389.59 99.29 1399.05 81.8 1419.95 81.8ZM1420.06 98.96C1412.14 98.96 1408.62 107.65 1408.62 122.5C1408.62 137.46 1412.14 146.04 1420.06 146.04C1427.65 146.04 1431.28 137.35 1431.28 122.5C1431.28 107.54 1427.65 98.96 1420.06 98.96ZM1465.72 162.43C1459.34 162.43 1454.06 157.15 1454.06 150.88C1454.06 144.72 1459.34 139.44 1465.72 139.44C1471.88 139.44 1477.27 144.72 1477.27 150.88C1477.27 157.15 1471.88 162.43 1465.72 162.43ZM1492.19 160.89V103.25L1479.54 110.62L1470.41 97.42L1493.07 83.89H1510.78V160.89H1492.19ZM1536.29 162.43C1529.91 162.43 1524.63 157.15 1524.63 150.88C1524.63 144.72 1529.91 139.44 1536.29 139.44C1542.45 139.44 1547.84 144.72 1547.84 150.88C1547.84 157.15 1542.45 162.43 1536.29 162.43ZM1559.89 128.66L1562.09 84H1610.71V100.72H1579.91L1579.25 112.05H1581.45C1603.56 112.05 1612.8 120.96 1612.8 136.8C1612.8 153.3 1600.04 163.2 1583.76 163.2C1568.69 163.2 1558.68 156.27 1552.19 144.5L1568.47 134.49C1572.54 142.96 1577.05 146.7 1583.76 146.7C1589.81 146.7 1593.88 143.07 1593.88 137.68C1593.88 131.63 1589.15 128.66 1580.46 128.66H1559.89Z" fill="white"/>
</g>
<g filter="url(#filter2_d_1478_193)">
<path d="M58.416 371V281.4H94.256C122.8 281.4 142.256 302.008 142.256 326.2C142.256 350.392 122.8 371 94.256 371H58.416ZM94.384 302.008H81.2V350.392H94.384C108.464 350.392 118.704 340.024 118.704 326.2C118.704 312.248 108.464 302.008 94.384 302.008ZM187.192 303.928C208.312 303.928 222.776 319.032 222.776 338.744C222.776 358.456 208.312 373.56 187.192 373.56C165.944 373.56 151.48 358.456 151.48 338.744C151.48 319.032 165.944 303.928 187.192 303.928ZM187.32 354.488C195.512 354.488 201.784 348.216 201.784 338.744C201.784 329.016 195.512 323 187.32 323C178.872 323 172.6 329.144 172.6 338.744C172.6 348.344 178.872 354.488 187.32 354.488ZM268.323 354.488C273.443 354.488 277.539 351.928 279.843 348.6L295.715 360.632C289.699 368.568 280.099 373.56 268.195 373.56C245.411 373.56 232.355 357.56 232.355 338.744C232.355 319.928 245.411 303.928 268.195 303.928C280.099 303.928 289.699 308.92 295.715 316.856L279.843 328.888C277.539 325.56 273.571 323 267.939 323C259.619 323 253.475 329.272 253.475 338.744C253.475 348.344 259.619 354.488 268.323 354.488ZM346.527 342.968V306.488H367.007V341.816C367.007 361.144 355.487 373.56 335.647 373.56C315.551 373.56 304.415 361.144 304.415 341.816V306.488H324.895V342.968C324.895 349.752 328.223 354.488 335.775 354.488C343.071 354.488 346.527 349.752 346.527 342.968ZM382.32 371V306.488H402.672V309.816C406.512 306.488 411.632 303.928 418.544 303.928C426.096 303.928 432.752 307 437.104 313.272C441.328 308.28 447.216 303.928 457.84 303.928C470.768 303.928 481.52 313.144 481.52 331.832V371H461.04V332.728C461.04 326.968 458.096 323 452.336 323C445.808 323 443.248 328.632 442.224 330.296C442.224 330.808 442.224 331.32 442.224 331.832V371H421.744V332.728C421.744 326.968 418.8 323 413.04 323C406.64 323 404.08 328.632 402.672 330.808V371H382.32ZM558.626 360.632C552.482 368.696 542.37 373.56 529.954 373.56C506.274 373.56 493.73 357.56 493.73 338.744C493.73 320.056 505.378 303.928 527.266 303.928C545.57 303.928 557.602 316.088 557.602 333.624C557.602 337.976 556.962 342.072 556.322 344.376H514.594C516.514 353.08 522.146 355.384 529.826 355.384C535.97 355.384 541.346 352.952 544.29 349.24L558.626 360.632ZM526.754 320.312C520.226 320.312 516.258 323.512 514.722 330.04H537.89C537.634 325.688 534.306 320.312 526.754 320.312ZM571.445 371V306.488H591.797V310.072C596.021 306.488 601.397 303.928 608.949 303.928C622.645 303.928 633.909 313.528 633.909 333.112V371H613.429V334.008C613.429 327.48 609.973 323 603.445 323C596.277 323 593.077 328.632 591.797 330.808V371H571.445ZM654.425 345.912V324.664H642.393V306.488H654.425V290.36H674.905V306.488H692.569V324.664H674.905V345.912C674.905 351.032 677.593 353.848 682.969 353.848C687.705 353.848 690.777 353.208 692.697 352.44V369.976C689.241 371.512 685.273 372.28 679.257 372.28C661.721 372.28 654.425 361.784 654.425 345.912ZM724.133 372.92C711.077 372.92 701.989 365.368 701.989 352.824C701.989 342.968 709.541 335.416 723.621 333.112L741.797 330.04C741.669 325.176 737.445 321.464 731.429 321.464C726.053 321.464 722.085 324.024 719.141 328.248L704.293 316.984C710.181 308.792 720.037 303.928 732.069 303.928C752.549 303.928 762.021 316.216 762.021 330.296V371H741.797V366.136C738.213 370.104 730.917 372.92 724.133 372.92ZM722.085 351.8C722.085 355.128 724.645 357.176 728.613 357.176C735.141 357.176 739.237 354.104 741.797 350.264V343.864L729.125 346.04C723.877 346.936 722.085 348.856 722.085 351.8ZM782.55 345.912V324.664H770.518V306.488H782.55V290.36H803.03V306.488H820.694V324.664H803.03V345.912C803.03 351.032 805.718 353.848 811.094 353.848C815.83 353.848 818.902 353.208 820.822 352.44V369.976C817.366 371.512 813.398 372.28 807.382 372.28C789.846 372.28 782.55 361.784 782.55 345.912ZM843.938 299.448C836.898 299.448 831.01 293.432 831.01 286.52C831.01 279.608 836.898 273.72 843.938 273.72C850.722 273.72 856.61 279.608 856.61 286.52C856.61 293.432 850.722 299.448 843.938 299.448ZM833.57 371V306.488H853.922V371H833.57ZM902.442 303.928C923.562 303.928 938.026 319.032 938.026 338.744C938.026 358.456 923.562 373.56 902.442 373.56C881.194 373.56 866.73 358.456 866.73 338.744C866.73 319.032 881.194 303.928 902.442 303.928ZM902.57 354.488C910.762 354.488 917.034 348.216 917.034 338.744C917.034 329.016 910.762 323 902.57 323C894.122 323 887.85 329.144 887.85 338.744C887.85 348.344 894.122 354.488 902.57 354.488ZM950.82 371V306.488H971.172V310.072C975.396 306.488 980.772 303.928 988.324 303.928C1002.02 303.928 1013.28 313.528 1013.28 333.112V371H992.804V334.008C992.804 327.48 989.348 323 982.82 323C975.652 323 972.452 328.632 971.172 330.808V371H950.82Z" fill="white"/>
</g>
<g filter="url(#filter3_d_1478_193)">
<path d="M1634.78 149V143.144L1646.3 131.816C1648.9 129.176 1650.53 127.352 1650.53 124.616C1650.53 121.832 1648.61 120.2 1645.97 120.2C1642.75 120.2 1640.78 122.168 1639.01 125.144L1633.73 121.928C1636.56 117.32 1640.74 114.44 1646.59 114.44C1652.45 114.44 1657.15 118.184 1657.15 123.944C1657.15 128.552 1654.13 132.104 1650.82 135.32L1642.7 143.144H1658.02V149H1634.78ZM1674.71 114.44C1682.25 114.44 1686.09 118.76 1686.09 123.512C1686.09 126.584 1684.6 129.224 1681.67 130.808C1685.51 132.392 1687.58 135.512 1687.58 139.592C1687.58 145.448 1683.06 149.96 1674.71 149.96C1666.41 149.96 1661.85 145.448 1661.85 139.592C1661.85 135.512 1663.91 132.392 1667.8 130.808C1664.82 129.224 1663.34 126.584 1663.34 123.512C1663.34 118.76 1667.22 114.44 1674.71 114.44ZM1674.81 128.36C1677.59 128.36 1679.42 126.728 1679.42 124.232C1679.42 121.688 1677.59 120.008 1674.81 120.008C1671.78 120.008 1670.01 121.688 1670.01 124.232C1670.01 126.728 1671.83 128.36 1674.81 128.36ZM1674.76 144.344C1678.55 144.344 1680.9 142.328 1680.9 139.256C1680.9 136.088 1678.55 133.928 1674.76 133.928C1670.92 133.928 1668.52 136.088 1668.52 139.256C1668.52 142.376 1670.92 144.344 1674.76 144.344ZM1689.62 158.456L1700.47 113H1706.66L1695.81 158.456H1689.62ZM1721.59 114.44C1730.42 114.44 1734.55 122.12 1734.55 132.2C1734.55 142.28 1730.42 149.96 1721.59 149.96C1712.76 149.96 1708.63 142.28 1708.63 132.2C1708.63 122.12 1712.76 114.44 1721.59 114.44ZM1721.59 120.44C1717.32 120.44 1715.25 125.144 1715.25 132.2C1715.25 139.304 1717.32 143.96 1721.59 143.96C1725.81 143.96 1727.88 139.256 1727.88 132.2C1727.88 125.096 1725.81 120.44 1721.59 120.44ZM1752.52 114.44C1758.13 114.44 1761.64 116.984 1763.85 119.912L1758.85 124.04C1757.13 121.736 1755.16 120.296 1752.52 120.296C1747.67 120.296 1745.08 123.8 1744.65 130.376C1746.81 128.504 1749.54 127.448 1752.85 127.448C1759.53 127.448 1763.75 132.2 1763.75 138.344C1763.75 144.68 1759.19 149.96 1751.51 149.96C1742.77 149.96 1737.93 143.576 1737.93 132.344C1737.93 121.88 1742.25 114.44 1752.52 114.44ZM1751.65 133.208C1748.92 133.208 1746.57 134.264 1744.84 136.52C1745.61 141.992 1747.96 144.104 1751.37 144.104C1754.92 144.104 1757.08 141.752 1757.08 138.584C1757.08 135.464 1754.87 133.208 1751.65 133.208ZM1765.7 158.456L1776.55 113H1782.74L1771.89 158.456H1765.7ZM1786.05 149V143.144L1797.57 131.816C1800.16 129.176 1801.79 127.352 1801.79 124.616C1801.79 121.832 1799.87 120.2 1797.23 120.2C1794.02 120.2 1792.05 122.168 1790.27 125.144L1784.99 121.928C1787.83 117.32 1792 114.44 1797.86 114.44C1803.71 114.44 1808.42 118.184 1808.42 123.944C1808.42 128.552 1805.39 132.104 1802.08 135.32L1793.97 143.144H1809.28V149H1786.05ZM1826.45 114.44C1835.28 114.44 1839.41 122.12 1839.41 132.2C1839.41 142.28 1835.28 149.96 1826.45 149.96C1817.61 149.96 1813.49 142.28 1813.49 132.2C1813.49 122.12 1817.61 114.44 1826.45 114.44ZM1826.45 120.44C1822.17 120.44 1820.11 125.144 1820.11 132.2C1820.11 139.304 1822.17 143.96 1826.45 143.96C1830.67 143.96 1832.73 139.256 1832.73 132.2C1832.73 125.096 1830.67 120.44 1826.45 120.44ZM1843.52 149V143.144L1855.04 131.816C1857.63 129.176 1859.26 127.352 1859.26 124.616C1859.26 121.832 1857.34 120.2 1854.7 120.2C1851.49 120.2 1849.52 122.168 1847.74 125.144L1842.46 121.928C1845.29 117.32 1849.47 114.44 1855.33 114.44C1861.18 114.44 1865.89 118.184 1865.89 123.944C1865.89 128.552 1862.86 132.104 1859.55 135.32L1851.44 143.144H1866.75V149H1843.52ZM1895.26 139.4C1895.26 145.784 1890.03 149.96 1883.02 149.96C1876.68 149.96 1872.6 147.176 1869.87 142.376L1875.53 138.872C1877.4 142.568 1879.66 144.2 1882.97 144.2C1886.24 144.2 1888.68 142.232 1888.68 139.112C1888.68 136.04 1886.28 134.12 1882.73 134.12H1877.21V128.36H1882.3C1885.13 128.36 1887.2 126.776 1887.2 124.184C1887.2 121.64 1885.28 120.2 1882.64 120.2C1879.95 120.2 1878.12 121.64 1876.73 124.04L1871.45 120.776C1873.9 116.792 1877.69 114.44 1883.12 114.44C1889.26 114.44 1893.82 117.944 1893.82 123.464C1893.82 126.584 1892.48 129.224 1889.98 130.952C1893.39 132.68 1895.26 135.704 1895.26 139.4Z" fill="#A8A8A8"/>
</g>
</g>
<defs>
<filter id="filter0_i_1478_193" x="46" y="-1123" width="5417" height="1699" filterUnits="userSpaceOnUse" color-interpolation-filters="sRGB">
<feFlood flood-opacity="0" result="BackgroundImageFix"/>
<feBlend mode="normal" in="SourceGraphic" in2="BackgroundImageFix" result="shape"/>
<feColorMatrix in="SourceAlpha" type="matrix" values="0 0 0 0 0 0 0 0 0 0 0 0 0 0 0 0 0 0 127 0" result="hardAlpha"/>
<feOffset dx="10" dy="10"/>
<feGaussianBlur stdDeviation="5"/>
<feComposite in2="hardAlpha" operator="arithmetic" k2="-1" k3="1"/>
<feColorMatrix type="matrix" values="0 0 0 0 0 0 0 0 0 0 0 0 0 0 0 0 0 0 0.25 0"/>
<feBlend mode="normal" in2="shape" result="effect1_innerShadow_1478_193"/>
</filter>
<filter id="filter1_d_1478_193" x="31.6602" y="62.3999" width="1606.14" height="150.66" filterUnits="userSpaceOnUse" color-interpolation-filters="sRGB">
<feFlood flood-opacity="0" result="BackgroundImageFix"/>
<feColorMatrix in="SourceAlpha" type="matrix" values="0 0 0 0 0 0 0 0 0 0 0 0 0 0 0 0 0 0 127 0" result="hardAlpha"/>
<feOffset dx="5" dy="5"/>
<feGaussianBlur stdDeviation="10"/>
<feComposite in2="hardAlpha" operator="out"/>
<feColorMatrix type="matrix" values="0 0 0 0 0 0 0 0 0 0 0 0 0 0 0 0 0 0 0.5 0"/>
<feBlend mode="normal" in2="BackgroundImageFix" result="effect1_dropShadow_1478_193"/>
<feBlend mode="normal" in="SourceGraphic" in2="effect1_dropShadow_1478_193" result="shape"/>
</filter>
<filter id="filter2_d_1478_193" x="43.4141" y="258.72" width="994.871" height="139.84" filterUnits="userSpaceOnUse" color-interpolation-filters="sRGB">
<feFlood flood-opacity="0" result="BackgroundImageFix"/>
<feColorMatrix in="SourceAlpha" type="matrix" values="0 0 0 0 0 0 0 0 0 0 0 0 0 0 0 0 0 0 127 0" result="hardAlpha"/>
<feOffset dx="5" dy="5"/>
<feGaussianBlur stdDeviation="10"/>
<feComposite in2="hardAlpha" operator="out"/>
<feColorMatrix type="matrix" values="0 0 0 0 0 0 0 0 0 0 0 0 0 0 0 0 0 0 0.5 0"/>
<feBlend mode="normal" in2="BackgroundImageFix" result="effect1_dropShadow_1478_193"/>
<feBlend mode="normal" in="SourceGraphic" in2="effect1_dropShadow_1478_193" result="shape"/>
</filter>
<filter id="filter3_d_1478_193" x="1618.73" y="98" width="301.535" height="85.4561" filterUnits="userSpaceOnUse" color-interpolation-filters="sRGB">
<feFlood flood-opacity="0" result="BackgroundImageFix"/>
<feColorMatrix in="SourceAlpha" type="matrix" values="0 0 0 0 0 0 0 0 0 0 0 0 0 0 0 0 0 0 127 0" result="hardAlpha"/>
<feOffset dx="5" dy="5"/>
<feGaussianBlur stdDeviation="10"/>
<feComposite in2="hardAlpha" operator="out"/>
<feColorMatrix type="matrix" values="0 0 0 0 0 0 0 0 0 0 0 0 0 0 0 0 0 0 0.5 0"/>
<feBlend mode="normal" in2="BackgroundImageFix" result="effect1_dropShadow_1478_193"/>
<feBlend mode="normal" in="SourceGraphic" in2="effect1_dropShadow_1478_193" result="shape"/>
</filter>
<linearGradient id="paint0_linear_1478_193" x1="960" y1="0" x2="960" y2="452" gradientUnits="userSpaceOnUse">
<stop stop-color="#537698"/>
<stop offset="0.0737108" stop-color="#496785"/>
<stop offset="0.203343" stop-color="#3E5872"/>
<stop offset="0.401202" stop-color="#354B61"/>
<stop offset="0.578716" stop-color="#2F4255"/>
<stop offset="0.766782" stop-color="#2C3E50"/>
</linearGradient>
<clipPath id="clip0_1478_193">
<rect width="1920" height="452" rx="25" fill="white"/>
</clipPath>
</defs>
</svg>
